<svg width="22" height="23" viewBox="0 0 22 23" fill="none" xmlns="http://www.w3.org/2000/svg">
<path fill-rule="evenodd" clip-rule="evenodd" d="M2.37931 0.792969C1.06525 0.792969 0 1.85822 0 3.17228V8.32745C0 9.64151 1.06525 10.7068 2.37931 10.7068H7.13793C8.45199 10.7068 9.51724 9.64151 9.51724 8.32745V3.17228C9.51724 1.85822 8.45199 0.792969 7.13793 0.792969H2.37931ZM0 14.6723C0 13.3582 1.06525 12.293 2.37931 12.293H7.13793C8.45199 12.293 9.51724 13.3582 9.51724 14.6723V19.8275C9.51724 21.1415 8.45199 22.2068 7.13793 22.2068H2.37931C1.06525 22.2068 0 21.1415 0 19.8275V14.6723ZM11.8966 3.17228C11.8966 1.85822 12.9618 0.792969 14.2759 0.792969H19.0345C20.3485 0.792969 21.4138 1.85822 21.4138 3.17228V8.32745C21.4138 9.64151 20.3485 10.7068 19.0345 10.7068H14.2759C12.9618 10.7068 11.8966 9.64151 11.8966 8.32745V3.17228ZM11.8966 14.6723C11.8966 13.3582 12.9618 12.293 14.2759 12.293H19.0345C20.3485 12.293 21.4138 13.3582 21.4138 14.6723V19.8275C21.4138 21.1415 20.3485 22.2068 19.0345 22.2068H14.2759C12.9618 22.2068 11.8966 21.1415 11.8966 19.8275V14.6723Z" fill="#BDBDBD"/>
</svg>
