<svg width="43" height="43" viewBox="0 0 43 43" fill="none" xmlns="http://www.w3.org/2000/svg">
<circle cx="21.5" cy="21.5" r="21.5" fill="#43C7FF"/>
<path fill-rule="evenodd" clip-rule="evenodd" d="M33 21.5003C33 21.9708 32.6186 22.3521 32.1481 22.3521H10.8519C10.3814 22.3521 10 21.9708 10 21.5003C10 21.0298 10.3814 20.6484 10.8519 20.6484H32.1481C32.6186 20.6484 33 21.0298 33 21.5003Z" fill="white"/>
<path d="M11.371 10.7616V14.3146C11.371 14.6931 11.0641 15 10.6855 15C10.307 15 10.0001 14.6931 10.0001 14.3146V10.6093C10.0001 10.2728 10.2729 10 10.6094 10C11.03 10 11.371 10.341 11.371 10.7616Z" fill="white"/>
<path d="M10.7616 10L14.3146 10C14.6931 10 15 10.3069 15 10.6854C15 11.064 14.6931 11.3709 14.3146 11.3709L10.6093 11.3709C10.2728 11.3709 10 11.0981 10 10.7616C10 10.341 10.341 10 10.7616 10Z" fill="white"/>
<path d="M31.629 10.7616V14.3146C31.629 14.6931 31.9359 15 32.3145 15C32.693 15 32.9999 14.6931 32.9999 14.3146V10.6093C32.9999 10.2728 32.7271 10 32.3906 10C31.97 10 31.629 10.341 31.629 10.7616Z" fill="white"/>
<path d="M32.2384 10L28.6854 10C28.3069 10 28 10.3069 28 10.6854C28 11.064 28.3069 11.3709 28.6854 11.3709L32.3907 11.3709C32.7272 11.3709 33 11.0981 33 10.7616C33 10.341 32.659 10 32.2384 10Z" fill="white"/>
<path d="M31.629 32.2384L31.629 28.6854C31.629 28.3069 31.9359 28 32.3145 28C32.693 28 32.9999 28.3069 32.9999 28.6854L32.9999 32.3907C32.9999 32.7272 32.7271 33 32.3906 33C31.97 33 31.629 32.659 31.629 32.2384Z" fill="white"/>
<path d="M32.2384 33L28.6854 33C28.3069 33 28 32.6931 28 32.3146C28 31.936 28.3069 31.6291 28.6854 31.6291L32.3907 31.6291C32.7272 31.6291 33 31.9019 33 32.2384C33 32.659 32.659 33 32.2384 33Z" fill="white"/>
<path d="M11.371 32.2384L11.371 28.6854C11.371 28.3069 11.0641 28 10.6855 28C10.307 28 10.0001 28.3069 10.0001 28.6854L10.0001 32.3907C10.0001 32.7272 10.2729 33 10.6094 33C11.03 33 11.371 32.659 11.371 32.2384Z" fill="white"/>
<path d="M10.7616 33L14.3146 33C14.6931 33 15 32.6931 15 32.3146C15 31.936 14.6931 31.6291 14.3146 31.6291L10.6093 31.6291C10.2728 31.6291 10 31.9019 10 32.2384C10 32.659 10.341 33 10.7616 33Z" fill="white"/>
</svg>
