<svg width="60" height="52" viewBox="0 0 60 52" fill="none" xmlns="http://www.w3.org/2000/svg">
<mask id="path-1-inside-1_809_6974" fill="white">
<path fill-rule="evenodd" clip-rule="evenodd" d="M0 31H60C60 13.8792 46.5685 0 30 0C13.4315 0 0 13.8792 0 31Z"/>
</mask>
<path fill-rule="evenodd" clip-rule="evenodd" d="M0 31H60C60 13.8792 46.5685 0 30 0C13.4315 0 0 13.8792 0 31Z" fill="white"/>
<path d="M0 31H-1V32H0V31ZM60 31V32H61V31H60ZM0 32H60V30H0V32ZM30 1C45.9856 1 59 14.4003 59 31H61C61 13.358 47.1515 -1 30 -1V1ZM1 31C1 14.4003 14.0144 1 30 1V-1C12.8485 -1 -1 13.358 -1 31H1Z" fill="#EDEDED" mask="url(#path-1-inside-1_809_6974)"/>
<path d="M1 30.5H8" stroke="white"/>
<path d="M51 30H59" stroke="white" stroke-width="2"/>
<circle cx="29.5" cy="30.5" r="21.5" fill="#43C7FF"/>
<path fill-rule="evenodd" clip-rule="evenodd" d="M41 30.5003C41 30.9708 40.6186 31.3521 40.1481 31.3521H18.8519C18.3814 31.3521 18 30.9708 18 30.5003V30.5003C18 30.0298 18.3814 29.6484 18.8519 29.6484H40.1481C40.6186 29.6484 41 30.0298 41 30.5003V30.5003Z" fill="white"/>
<path d="M19.3711 19.7616V23.3146C19.3711 23.6931 19.0642 24 18.6857 24C18.3071 24 18.0002 23.6931 18.0002 23.3146V19.6093C18.0002 19.2728 18.273 19 18.6095 19C19.0301 19 19.3711 19.341 19.3711 19.7616Z" fill="white"/>
<path d="M18.7616 19L22.3146 19C22.6931 19 23 19.3069 23 19.6854C23 20.064 22.6931 20.3709 22.3146 20.3709L18.6093 20.3709C18.2728 20.3709 18 20.0981 18 19.7616C18 19.341 18.341 19 18.7616 19Z" fill="white"/>
<path d="M39.6289 19.7616V23.3146C39.6289 23.6931 39.9358 24 40.3143 24C40.6929 24 40.9998 23.6931 40.9998 23.3146V19.6093C40.9998 19.2728 40.727 19 40.3905 19C39.9699 19 39.6289 19.341 39.6289 19.7616Z" fill="white"/>
<path d="M40.2384 19L36.6854 19C36.3069 19 36 19.3069 36 19.6854C36 20.064 36.3069 20.3709 36.6854 20.3709L40.3907 20.3709C40.7272 20.3709 41 20.0981 41 19.7616C41 19.341 40.659 19 40.2384 19Z" fill="white"/>
<path d="M39.6289 41.2384L39.6289 37.6854C39.6289 37.3069 39.9358 37 40.3143 37C40.6929 37 40.9998 37.3069 40.9998 37.6854L40.9998 41.3907C40.9998 41.7272 40.727 42 40.3905 42C39.9699 42 39.6289 41.659 39.6289 41.2384Z" fill="white"/>
<path d="M40.2384 42L36.6854 42C36.3069 42 36 41.6931 36 41.3146C36 40.936 36.3069 40.6291 36.6854 40.6291L40.3907 40.6291C40.7272 40.6291 41 40.9019 41 41.2384C41 41.659 40.659 42 40.2384 42Z" fill="white"/>
<path d="M19.3711 41.2384L19.3711 37.6854C19.3711 37.3069 19.0642 37 18.6857 37C18.3071 37 18.0002 37.3069 18.0002 37.6854L18.0002 41.3907C18.0002 41.7272 18.273 42 18.6095 42C19.0301 42 19.3711 41.659 19.3711 41.2384Z" fill="white"/>
<path d="M18.7616 42L22.3146 42C22.6931 42 23 41.6931 23 41.3146C23 40.936 22.6931 40.6291 22.3146 40.6291L18.6093 40.6291C18.2728 40.6291 18 40.9019 18 41.2384C18 41.659 18.341 42 18.7616 42Z" fill="white"/>
</svg>
