<svg width="17" height="18" viewBox="0 0 17 18" fill="none" xmlns="http://www.w3.org/2000/svg">
<path d="M17 9C17 13.6944 13.1944 17.5 8.5 17.5C3.80558 17.5 0 13.6944 0 9C0 4.30558 3.80558 0.5 8.5 0.5C13.1944 0.5 17 4.30558 17 9Z" fill="black"/>
<g clip-path="url(#clip0_956_4525)">
<path d="M12.6616 11.424C12.5073 11.7804 12.3247 12.1084 12.1132 12.41C11.8248 12.8211 11.5887 13.1057 11.4068 13.2637C11.1247 13.5231 10.8225 13.656 10.4989 13.6635C10.2665 13.6635 9.98637 13.5974 9.66023 13.4633C9.33303 13.3298 9.03233 13.2637 8.75737 13.2637C8.46901 13.2637 8.15975 13.3298 7.82895 13.4633C7.49765 13.5974 7.23076 13.6673 7.0267 13.6742C6.71637 13.6874 6.40704 13.5508 6.09828 13.2637C5.90121 13.0918 5.65472 12.7972 5.35943 12.3797C5.04262 11.934 4.78215 11.4171 4.57809 10.8278C4.35955 10.1912 4.25 9.57483 4.25 8.97809C4.25 8.29452 4.39771 7.70495 4.69356 7.21089C4.92607 6.81405 5.2354 6.50101 5.62255 6.2712C6.0097 6.04139 6.42801 5.92428 6.87849 5.91679C7.12499 5.91679 7.44823 5.99304 7.84992 6.14289C8.25048 6.29324 8.50767 6.36948 8.62043 6.36948C8.70474 6.36948 8.99046 6.28033 9.47481 6.10259C9.93286 5.93776 10.3194 5.86951 10.6361 5.89639C11.4943 5.96565 12.139 6.30394 12.5678 6.9134C11.8003 7.37843 11.4206 8.02977 11.4282 8.86532C11.4351 9.51615 11.6712 10.0577 12.1352 10.4878C12.3455 10.6874 12.5804 10.8416 12.8417 10.9512C12.785 11.1155 12.7252 11.2729 12.6616 11.424ZM10.6934 3.67916C10.6934 4.18927 10.5071 4.66557 10.1356 5.10642C9.68731 5.63051 9.14509 5.93335 8.5571 5.88556C8.5496 5.82437 8.54526 5.75996 8.54526 5.69227C8.54526 5.20256 8.75844 4.67847 9.13703 4.24996C9.32604 4.033 9.56642 3.85259 9.85793 3.70868C10.1488 3.56692 10.424 3.48852 10.6827 3.4751C10.6903 3.54329 10.6934 3.61149 10.6934 3.67915V3.67916Z" fill="white"/>
</g>
<defs>
<clipPath id="clip0_956_4525">
<rect width="10.2" height="10.2" fill="white" transform="translate(3.3999 3.4751)"/>
</clipPath>
</defs>
</svg>
