<svg width="16" height="19" viewBox="0 0 16 19" fill="none" xmlns="http://www.w3.org/2000/svg">
<path d="M11.8868 4.59001C10.2689 4.47475 8.89688 5.4641 8.13131 5.4641C7.35472 5.4641 6.15698 4.61495 4.88626 4.63746C3.21892 4.6624 1.68179 5.57511 0.822173 7.02036C-0.910278 9.9282 0.379939 14.2357 2.0671 16.5936C2.89243 17.7478 3.8763 19.0462 5.16934 18.9987C6.41427 18.9516 6.8845 18.2195 8.3886 18.2195C9.89175 18.2195 10.3161 18.9987 11.6321 18.9741C12.971 18.9513 13.82 17.7992 14.639 16.6386C15.5873 15.3014 15.9767 14.0067 16 13.9364C15.9701 13.9264 13.3891 12.9671 13.3633 10.0921C13.34 7.68915 15.3923 6.53283 15.4861 6.47717C14.3207 4.81872 12.5206 4.63563 11.8868 4.59001ZM10.8882 3.03223C11.5751 2.23053 12.0378 1.11101 11.9104 0C10.9215 0.0371045 9.72568 0.637164 9.01672 1.43856C8.38136 2.14963 7.82338 3.2874 7.97467 4.37773C9.07774 4.45984 10.2016 3.83576 10.8882 3.03223Z" fill="white"/>
</svg>
