<svg width="22" height="22" viewBox="0 0 22 22" fill="none" xmlns="http://www.w3.org/2000/svg">
<g clip-path="url(#clip0_2018_11282)">
<path d="M3.95981 13.0085L8.621 12.3713L6.90619 15.937L3.75828 13.9252C3.36627 13.6747 3.49888 13.0715 3.95981 13.0085Z" fill="#43C7FF"/>
<path d="M10.4589 18.0902L9.95322 13.413L6.90627 15.937L9.61784 18.5069C9.9555 18.8269 10.5089 18.5528 10.4589 18.0902Z" fill="#43C7FF"/>
<path d="M4.47758 5.57179L13.1875 6.72733L10.8242 9.74983L4.10434 6.95955C3.32165 6.63455 3.63746 5.46033 4.47758 5.57179Z" fill="#43C7FF"/>
<path d="M17.5512 15.7944L14.3293 7.62016L11.9659 10.6427L16.2944 16.4913C16.7985 17.1725 17.8619 16.5828 17.5512 15.7944Z" fill="#43C7FF"/>
<path d="M8.82235 15.8395C8.70877 15.9848 8.56851 16.107 8.4091 16.1997L6.8428 17.1104C6.27723 17.4393 5.59988 16.9097 5.78263 16.2815L6.28876 14.5418C6.34027 14.3647 6.4251 14.1991 6.53868 14.0539L12.0817 6.96489C12.1405 6.8897 12.2066 6.8205 12.279 6.7583L15.0276 4.39689C15.6284 3.88065 16.5033 4.56475 16.1472 5.27238L14.5183 8.50928C14.4754 8.59454 14.4242 8.67536 14.3654 8.75055L8.82235 15.8395Z" fill="#D9D9D9"/>
</g>
<defs>
<clipPath id="clip0_2018_11282">
<rect width="22" height="22" fill="white"/>
</clipPath>
</defs>
</svg>
