<svg width="24" height="24" viewBox="0 0 24 24" fill="none" xmlns="http://www.w3.org/2000/svg">
<path d="M4.20494 16.6074L3.4905 16.0601H3.4905L4.20494 16.6074ZM5.36792 13.3378L4.46792 13.3266V13.3378H5.36792ZM5.39233 11.3609L6.29233 11.372V11.3609H5.39233ZM20 16.6233L20.7253 16.0904L20.7253 16.0904L20 16.6233ZM18.8808 13.3378L17.9808 13.3261V13.3378H18.8808ZM18.9052 11.4589L19.8052 11.4705V11.4589H18.9052ZM4.91937 17.1548C5.59159 16.2773 6.26792 14.9568 6.26792 13.3378H4.46792C4.46792 14.4473 4.00186 15.3926 3.4905 16.0601L4.91937 17.1548ZM6.26785 13.3489L6.29226 11.372L4.4924 11.3498L4.46799 13.3266L6.26785 13.3489ZM20.7253 16.0904C20.2358 15.4241 19.7808 14.4676 19.7808 13.3378H17.9808C17.9808 14.9552 18.6288 16.2769 19.2747 17.1561L20.7253 16.0904ZM19.7807 13.3494L19.8051 11.4705L18.0053 11.4472L17.9809 13.3261L19.7807 13.3494ZM19.8052 11.4589C19.8052 9.36346 18.9552 7.22595 17.6019 5.60936C16.2478 3.99185 14.3125 2.81054 12.0994 2.81054V4.61054C13.645 4.61054 15.1126 5.4399 16.2217 6.7648C17.3316 8.09062 18.0052 9.82727 18.0052 11.4589H19.8052ZM19.5927 18.4395C20.267 18.4395 20.6963 17.9694 20.8715 17.5616C21.0453 17.1566 21.0807 16.5742 20.7253 16.0904L19.2747 17.1561C19.1644 17.006 19.2044 16.8818 19.2174 16.8515C19.2317 16.8183 19.3348 16.6395 19.5927 16.6395V18.4395ZM6.29233 11.3609C6.29233 9.7561 6.95505 8.0436 8.04759 6.73526C9.13945 5.42772 10.5822 4.61054 12.0994 4.61054V2.81054C9.91231 2.81054 8.00157 3.9821 6.66596 5.58152C5.33103 7.18014 4.49233 9.29281 4.49233 11.3609H6.29233ZM4.607 16.6395C4.87099 16.6395 4.97154 16.8246 4.98309 16.8523C4.99363 16.8777 5.03539 17.0033 4.91937 17.1548L3.4905 16.0601C3.11946 16.5444 3.15144 17.1361 3.32137 17.5442C3.4923 17.9547 3.9214 18.4395 4.607 18.4395V16.6395ZM19.5927 16.6395H4.607V18.4395H19.5927V16.6395ZM14.3994 17.5395C14.3994 18.6128 13.4368 19.6 12.0994 19.6V21.4C14.2965 21.4 16.1994 19.7362 16.1994 17.5395H14.3994ZM12.0994 19.6C10.7619 19.6 9.79937 18.6128 9.79937 17.5395H7.99937C7.99937 19.7362 9.90219 21.4 12.0994 21.4V19.6Z" fill="black"/>
</svg>
