<svg width="95" height="95" viewBox="0 0 95 95" fill="none" xmlns="http://www.w3.org/2000/svg">
<path d="M26.8229 21.7097C38.3016 10.0968 56.9123 10.0968 68.391 21.7097C79.8697 33.3227 79.8697 52.151 68.391 63.7639L51.97 80.377C51.3971 80.9567 50.7169 81.4165 49.9683 81.7303C49.2196 82.044 48.4173 82.2055 47.607 82.2055C46.7966 82.2055 45.9943 82.044 45.2457 81.7303C44.497 81.4165 43.8168 80.9567 43.2439 80.377L26.8229 63.7639C15.3443 52.151 15.3443 33.3227 26.8229 21.7097ZM47.607 53.55C53.5101 53.55 58.2954 48.7087 58.2954 42.7367C58.2954 36.7646 53.5101 31.9233 47.607 31.9233C41.704 31.9233 36.9186 36.7646 36.9186 42.7367C36.9186 48.7087 41.704 53.55 47.607 53.55Z" fill="url(#paint0_linear_2298_19872)"/>
<defs>
<linearGradient id="paint0_linear_2298_19872" x1="47.607" y1="13" x2="47.607" y2="82.2055" gradientUnits="userSpaceOnUse">
<stop stop-color="#43C7FF"/>
<stop offset="1" stop-color="#7DD8FF"/>
</linearGradient>
</defs>
</svg>
