<svg width="95" height="95" viewBox="0 0 95 95" fill="none" xmlns="http://www.w3.org/2000/svg">
<g clip-path="url(#clip0_823_1107)">
<path d="M39.2814 35.6795C39.3266 35.067 39.8367 34.593 40.4509 34.593H57.489C58.1097 34.593 58.6229 35.0767 58.6596 35.6963L60.3063 63.4857C60.3599 64.3911 59.4094 65.0121 58.6018 64.5992L49.5016 59.9469C49.172 59.7784 48.7822 59.7754 48.4501 59.9389L38.9188 64.6284C38.1055 65.0286 37.165 64.394 37.2316 63.49L39.2814 35.6795Z" fill="#43C7FF"/>
<mask id="mask0_823_1107" style="mask-type:alpha" maskUnits="userSpaceOnUse" x="37" y="34" width="24" height="31">
<path d="M39.2814 35.6795C39.3266 35.067 39.8367 34.593 40.4509 34.593H57.489C58.1097 34.593 58.6229 35.0767 58.6596 35.6963L60.3063 63.4857C60.3599 64.3911 59.4094 65.0121 58.6018 64.5992L49.5016 59.9469C49.172 59.7784 48.7822 59.7754 48.4501 59.9389L38.9188 64.6284C38.1055 65.0286 37.165 64.394 37.2316 63.49L39.2814 35.6795Z" fill="#43C7FF"/>
</mask>
<g mask="url(#mask0_823_1107)">
<path d="M45.2808 35.7654H52.2612L52.9994 66.2555H44.5098L45.2808 35.7654Z" fill="url(#paint0_linear_823_1107)"/>
</g>
<path d="M18.9871 26.1033C19.3562 25.6123 20.0416 25.4893 20.5584 25.8213L34.8931 35.0305C35.4153 35.366 35.5857 36.0504 35.2816 36.5916L21.6466 60.8619C21.2024 61.6526 20.0671 61.6613 19.6108 60.8774L14.469 52.0445C14.2828 51.7246 13.9565 51.5114 13.5887 51.4694L3.03495 50.2631C2.13431 50.1602 1.68604 49.118 2.23075 48.3934L18.9871 26.1033Z" fill="#FF8368"/>
<mask id="mask1_823_1107" style="mask-type:alpha" maskUnits="userSpaceOnUse" x="1" y="25" width="35" height="37">
<path d="M18.9871 26.1033C19.3562 25.6123 20.0416 25.4893 20.5584 25.8213L34.8931 35.0305C35.4153 35.366 35.5857 36.0504 35.2816 36.5916L21.6466 60.8619C21.2024 61.6526 20.0671 61.6613 19.6108 60.8774L14.469 52.0445C14.2828 51.7246 13.9565 51.5114 13.5887 51.4694L3.03495 50.2631C2.13431 50.1602 1.68604 49.118 2.23075 48.3934L18.9871 26.1033Z" fill="#43C7FF"/>
</mask>
<g mask="url(#mask1_823_1107)">
<path d="M23.9881 29.4182L29.861 33.1912L14.0018 59.2427L6.85918 54.6539L23.9881 29.4182Z" fill="url(#paint1_linear_823_1107)"/>
</g>
<path d="M77.7448 26.1033C77.3757 25.6123 76.6903 25.4893 76.1736 25.8213L61.8388 35.0305C61.3166 35.366 61.1463 36.0504 61.4503 36.5916L75.0853 60.8619C75.5295 61.6526 76.6649 61.6613 77.1212 60.8774L82.2629 52.0445C82.4492 51.7246 82.7755 51.5114 83.1433 51.4694L93.697 50.2631C94.5976 50.1602 95.0459 49.118 94.5012 48.3934L77.7448 26.1033Z" fill="#61DB6A"/>
<mask id="mask2_823_1107" style="mask-type:alpha" maskUnits="userSpaceOnUse" x="61" y="25" width="34" height="37">
<path d="M77.7448 26.1033C77.3757 25.6123 76.6903 25.4893 76.1736 25.8213L61.8388 35.0305C61.3166 35.366 61.1463 36.0504 61.4503 36.5916L75.0853 60.8619C75.5295 61.6526 76.6649 61.6613 77.1212 60.8774L82.2629 52.0445C82.4492 51.7246 82.7755 51.5114 83.1433 51.4694L93.697 50.2631C94.5976 50.1602 95.0459 49.118 94.5012 48.3934L77.7448 26.1033Z" fill="#43C7FF"/>
</mask>
<g mask="url(#mask2_823_1107)">
<path d="M72.7439 29.4182L66.871 33.1912L82.7301 59.2427L89.8727 54.6539L72.7439 29.4182Z" fill="url(#paint2_linear_823_1107)"/>
</g>
<mask id="mask3_823_1107" style="mask-type:alpha" maskUnits="userSpaceOnUse" x="1" y="25" width="94" height="40">
<path d="M39.2814 35.6795C39.3266 35.067 39.8367 34.593 40.4509 34.593H57.489C58.1097 34.593 58.6229 35.0767 58.6596 35.6963L60.3063 63.4857C60.3599 64.3911 59.4094 65.0121 58.6018 64.5992L49.5016 59.9469C49.172 59.7784 48.7822 59.7754 48.4501 59.9389L38.9188 64.6284C38.1055 65.0286 37.165 64.394 37.2316 63.49L39.2814 35.6795Z" fill="#43C7FF"/>
<mask id="mask4_823_1107" style="mask-type:alpha" maskUnits="userSpaceOnUse" x="37" y="34" width="24" height="31">
<path d="M39.2814 35.6795C39.3266 35.067 39.8367 34.593 40.4509 34.593H57.489C58.1097 34.593 58.6229 35.0767 58.6596 35.6963L60.3063 63.4857C60.3599 64.3911 59.4094 65.0121 58.6018 64.5992L49.5016 59.9469C49.172 59.7784 48.7822 59.7754 48.4501 59.9389L38.9188 64.6284C38.1055 65.0286 37.165 64.394 37.2316 63.49L39.2814 35.6795Z" fill="#43C7FF"/>
</mask>
<g mask="url(#mask4_823_1107)">
<path d="M45.2808 35.7654H52.2612L52.9994 66.2555H44.5098L45.2808 35.7654Z" fill="url(#paint3_linear_823_1107)"/>
</g>
<path d="M18.9871 26.1033C19.3562 25.6123 20.0416 25.4893 20.5584 25.8213L34.8931 35.0305C35.4153 35.366 35.5857 36.0504 35.2816 36.5916L21.6466 60.8619C21.2024 61.6526 20.0671 61.6613 19.6108 60.8774L14.469 52.0445C14.2828 51.7246 13.9565 51.5114 13.5887 51.4694L3.03495 50.2631C2.13431 50.1602 1.68604 49.118 2.23075 48.3934L18.9871 26.1033Z" fill="#FF8368"/>
<mask id="mask5_823_1107" style="mask-type:alpha" maskUnits="userSpaceOnUse" x="1" y="25" width="35" height="37">
<path d="M18.9871 26.1033C19.3562 25.6123 20.0416 25.4893 20.5584 25.8213L34.8931 35.0305C35.4153 35.366 35.5857 36.0504 35.2816 36.5916L21.6466 60.8619C21.2024 61.6526 20.0671 61.6613 19.6108 60.8774L14.469 52.0445C14.2828 51.7246 13.9565 51.5114 13.5887 51.4694L3.03495 50.2631C2.13431 50.1602 1.68604 49.118 2.23075 48.3934L18.9871 26.1033Z" fill="#43C7FF"/>
</mask>
<g mask="url(#mask5_823_1107)">
<path d="M23.9881 29.4182L29.861 33.1912L14.0018 59.2427L6.85918 54.6539L23.9881 29.4182Z" fill="url(#paint4_linear_823_1107)"/>
</g>
<path d="M77.7448 26.1033C77.3757 25.6123 76.6903 25.4893 76.1736 25.8213L61.8388 35.0305C61.3166 35.366 61.1463 36.0504 61.4503 36.5916L75.0853 60.8619C75.5295 61.6526 76.6649 61.6613 77.1212 60.8774L82.2629 52.0445C82.4492 51.7246 82.7755 51.5114 83.1433 51.4694L93.697 50.2631C94.5976 50.1602 95.0459 49.118 94.5012 48.3934L77.7448 26.1033Z" fill="#61DB6A"/>
<mask id="mask6_823_1107" style="mask-type:alpha" maskUnits="userSpaceOnUse" x="61" y="25" width="34" height="37">
<path d="M77.7448 26.1033C77.3757 25.6123 76.6903 25.4893 76.1736 25.8213L61.8388 35.0305C61.3166 35.366 61.1463 36.0504 61.4503 36.5916L75.0853 60.8619C75.5295 61.6526 76.6649 61.6613 77.1212 60.8774L82.2629 52.0445C82.4492 51.7246 82.7755 51.5114 83.1433 51.4694L93.697 50.2631C94.5976 50.1602 95.0459 49.118 94.5012 48.3934L77.7448 26.1033Z" fill="#43C7FF"/>
</mask>
<g mask="url(#mask6_823_1107)">
<path d="M72.7439 29.4182L66.871 33.1912L82.7301 59.2427L89.8727 54.6539L72.7439 29.4182Z" fill="url(#paint5_linear_823_1107)"/>
</g>
</mask>
<g mask="url(#mask3_823_1107)">
<g style="mix-blend-mode:multiply">
<path d="M25.4077 25.4503C28.9087 32.1642 38.632 36.7344 52.2713 36.7344C66.1726 36.7344 76.6836 31.987 79.5292 25.0612" stroke="#969696" stroke-width="11.6733" stroke-linecap="round"/>
</g>
</g>
<path d="M21.1631 24.389C24.6641 31.1029 34.3874 35.6731 48.0267 35.6731C61.928 35.6731 72.439 30.9257 75.2846 23.9999" stroke="#C0AE71" stroke-width="4.24482" stroke-linecap="round"/>
</g>
<defs>
<linearGradient id="paint0_linear_823_1107" x1="48.7546" y1="35.7654" x2="48.7546" y2="66.2555" gradientUnits="userSpaceOnUse">
<stop stop-color="white"/>
<stop offset="0.85" stop-color="white" stop-opacity="0.34"/>
</linearGradient>
<linearGradient id="paint1_linear_823_1107" x1="26.9107" y1="31.2958" x2="10.4305" y2="56.9483" gradientUnits="userSpaceOnUse">
<stop stop-color="white"/>
<stop offset="0.85" stop-color="white" stop-opacity="0.34"/>
</linearGradient>
<linearGradient id="paint2_linear_823_1107" x1="69.8212" y1="31.2958" x2="86.3014" y2="56.9483" gradientUnits="userSpaceOnUse">
<stop stop-color="white"/>
<stop offset="0.85" stop-color="white" stop-opacity="0.34"/>
</linearGradient>
<linearGradient id="paint3_linear_823_1107" x1="48.7546" y1="35.7654" x2="48.7546" y2="66.2555" gradientUnits="userSpaceOnUse">
<stop stop-color="white"/>
<stop offset="0.85" stop-color="white" stop-opacity="0.34"/>
</linearGradient>
<linearGradient id="paint4_linear_823_1107" x1="26.9107" y1="31.2958" x2="10.4305" y2="56.9483" gradientUnits="userSpaceOnUse">
<stop stop-color="white"/>
<stop offset="0.85" stop-color="white" stop-opacity="0.34"/>
</linearGradient>
<linearGradient id="paint5_linear_823_1107" x1="69.8212" y1="31.2958" x2="86.3014" y2="56.9483" gradientUnits="userSpaceOnUse">
<stop stop-color="white"/>
<stop offset="0.85" stop-color="white" stop-opacity="0.34"/>
</linearGradient>
<clipPath id="clip0_823_1107">
<rect width="95" height="95" fill="white"/>
</clipPath>
</defs>
</svg>
