<svg width="95" height="95" viewBox="0 0 95 95" fill="none" xmlns="http://www.w3.org/2000/svg">
<path d="M45.312 4.48746C45.312 3.66596 45.978 3 46.7995 3H49.1794C50.0009 3 50.6669 3.66596 50.6669 4.48746V20.8495C50.6669 21.671 50.0009 22.3369 49.1794 22.3369H46.7995C45.978 22.3369 45.312 21.671 45.312 20.8495V4.48746Z" fill="#B3B3B3"/>
<rect x="40.8496" y="10.8834" width="14.2796" height="21.4194" rx="2.14194" fill="#B3B3B3"/>
<rect x="37.2798" y="26.0555" width="21.4194" height="21.4194" rx="2.14194" fill="black"/>
<rect x="35.4946" y="48.3673" width="24.9892" height="26.7742" rx="2.14194" fill="black"/>
<rect width="46.4086" height="14.2796" rx="2.14194" transform="matrix(1 0 0 -1 24.7852 85.1075)" fill="#929394"/>
<rect x="28.355" y="86" width="5.35484" height="18.7419" rx="1.78495" transform="rotate(180 28.355 86)" fill="#929394"/>
<rect x="73.8711" y="86" width="5.35484" height="18.7419" rx="1.78495" transform="rotate(180 73.8711 86)" fill="#929394"/>
<path fill-rule="evenodd" clip-rule="evenodd" d="M42.4196 16.4854C41.6812 16.4854 40.9612 16.7149 40.3591 17.1423L29.2476 25.0291L46.3352 25.0291H67.6946L56.4863 17.1348C55.8863 16.7122 55.1703 16.4854 54.4364 16.4854L51.3189 16.4854H42.4196Z" fill="#B3B3B3"/>
<path fill-rule="evenodd" clip-rule="evenodd" d="M39.9689 34.0878C38.8258 34.0878 37.7303 33.6296 36.9275 32.8157L29.2474 25.0291L46.0341 25.0292L46.0341 25.029L67.6943 25.029L60.0142 32.8156C59.2114 33.6295 58.1159 34.0877 56.9728 34.0877L50.9076 34.0877L50.9076 34.0878L39.9689 34.0878Z" fill="url(#paint0_linear_823_1106)"/>
<path fill-rule="evenodd" clip-rule="evenodd" d="M39.1878 40.3351C38.1615 40.3351 37.1692 40.7038 36.3919 41.374L25.6772 50.6116H46.2303V50.6117H71.9216L61.5715 41.4161C60.7878 40.7198 59.7759 40.3352 58.7275 40.3352H52.2249V40.3351H39.1878Z" fill="#B3B3B3"/>
<path fill-rule="evenodd" clip-rule="evenodd" d="M38.573 61.5074C37.198 61.5074 35.8803 60.9563 34.9148 59.9774L25.677 50.6117L45.8683 50.6117L71.9214 50.6117L62.6836 59.9774C61.7181 60.9563 60.4004 61.5074 59.0254 61.5074L51.7301 61.5074L38.573 61.5074Z" fill="url(#paint1_linear_823_1106)"/>
<defs>
<linearGradient id="paint0_linear_823_1106" x1="50.5172" y1="25.0292" x2="50.5172" y2="34.3017" gradientUnits="userSpaceOnUse">
<stop stop-color="#929292"/>
<stop offset="1" stop-color="#98A6AC"/>
</linearGradient>
<linearGradient id="paint1_linear_823_1106" x1="51.2606" y1="50.6117" x2="51.2606" y2="61.7648" gradientUnits="userSpaceOnUse">
<stop stop-color="#929292"/>
<stop offset="1" stop-color="#98A6AC"/>
</linearGradient>
</defs>
</svg>
