<svg width="95" height="95" viewBox="0 0 95 95" fill="none" xmlns="http://www.w3.org/2000/svg">
<path fill-rule="evenodd" clip-rule="evenodd" d="M48.0861 2.07837C35.3793 2.07837 25.0784 7.3448 25.0784 13.8413C25.0784 14.983 25.3966 16.0867 25.99 17.1305C17.579 21.8237 12.1719 29.1345 12.1719 37.3471C12.1719 51.5092 28.2512 62.9899 48.0861 62.9899C67.9209 62.99 84.0002 51.5093 84.0002 37.3471C84.0002 29.1345 78.5931 21.8237 70.1821 17.1305C70.7755 16.0867 71.0937 14.983 71.0937 13.8413C71.0937 7.34481 60.7928 2.07837 48.0861 2.07837Z" fill="url(#paint0_linear_823_1105)"/>
<path fill-rule="evenodd" clip-rule="evenodd" d="M62.9537 70.9039H33.2178V78.3379H33.2196C33.3427 80.3642 39.9514 81.9973 48.0858 81.9973C56.2202 81.9973 62.8289 80.3642 62.952 78.3379H62.9537V78.2929C62.9538 78.2887 62.9538 78.2845 62.9538 78.2803C62.9538 78.2761 62.9538 78.2719 62.9537 78.2677V70.9039Z" fill="#EF7054"/>
<path d="M81.9283 52.2987C81.9283 67.9377 67.6995 77.853 48.4349 77.853C29.1703 77.853 13.5532 67.9377 13.5532 52.2987C13.5532 36.6597 20.4598 21.2191 48.4349 21.2191C72.9498 21.2191 81.9283 36.6597 81.9283 52.2987Z" fill="#FF8368"/>
<mask id="mask0_823_1105" style="mask-type:alpha" maskUnits="userSpaceOnUse" x="13" y="21" width="69" height="57">
<path d="M81.9283 52.2989C81.9283 67.938 67.6995 77.8533 48.4349 77.8533C29.1703 77.8533 13.5532 67.938 13.5532 52.2989C13.5532 36.6599 20.4598 21.2194 48.4349 21.2194C72.9498 21.2194 81.9283 36.6599 81.9283 52.2989Z" fill="#FF8368"/>
</mask>
<g mask="url(#mask0_823_1105)">
<g style="mix-blend-mode:multiply">
<ellipse cx="52.6045" cy="35.8573" rx="40.4326" ry="24.5666" fill="url(#paint1_linear_823_1105)"/>
</g>
</g>
<path fill-rule="evenodd" clip-rule="evenodd" d="M81.2301 44.237C81.7922 42.7399 81.8395 40.8109 81.2381 38.8677C80.4135 36.2034 78.5976 34.2501 76.6838 33.701C76.8643 31.9945 76.2749 29.9438 74.9329 28.1408C73.0727 25.6416 70.3418 24.3911 68.2364 24.8854C68.3884 22.7775 66.6607 20.3994 63.9031 18.9336C62.4165 18.1435 60.8791 17.7505 59.5175 17.7607C58.6493 16.0054 56.3473 14.6685 53.5285 14.3431C51.3228 14.0885 49.2869 14.5093 47.9101 15.4288C46.5333 14.5093 44.4974 14.0885 42.2916 14.3431C39.3872 14.6784 37.0313 16.0877 36.2274 17.922C34.5918 17.5229 32.4884 17.8651 30.478 18.9336C27.7652 20.3756 26.0492 22.7005 26.1389 24.7824C24.1702 24.7038 21.8525 25.9367 20.212 28.1408C18.864 29.9519 18.2753 32.0128 18.4635 33.7239C16.5782 34.3027 14.7998 36.2392 13.9863 38.8677C13.2576 41.2221 13.4813 43.5557 14.419 45.1254C16.0659 50.323 29.1784 54.3709 47.3666 54.3709C66.579 54.3709 80.8566 49.8542 81.2301 44.237Z" fill="white"/>
<defs>
<linearGradient id="paint0_linear_823_1105" x1="48.0861" y1="26.2352" x2="48.0861" y2="-1.66918" gradientUnits="userSpaceOnUse">
<stop stop-color="white" stop-opacity="0.48"/>
<stop offset="1" stop-color="white" stop-opacity="0"/>
</linearGradient>
<linearGradient id="paint1_linear_823_1105" x1="41.5628" y1="54.591" x2="87.7304" y2="62.1571" gradientUnits="userSpaceOnUse">
<stop stop-color="#EEB5A8"/>
<stop offset="1" stop-color="#EEB5A8" stop-opacity="0"/>
</linearGradient>
</defs>
</svg>
