<svg width="95" height="95" viewBox="0 0 95 95" fill="none" xmlns="http://www.w3.org/2000/svg">
<g clip-path="url(#clip0_925_9824)">
<path d="M23 28C23 25.2386 25.2386 23 28 23H29C31.7614 23 34 25.2386 34 28V75C34 77.7614 31.7614 80 29 80H28C25.2386 80 23 77.7614 23 75V28Z" fill="#604500"/>
<path d="M26.0973 24.2935C27.3269 22.7493 29.6731 22.7493 30.9027 24.2935L53.6673 52.88C54.4682 53.8858 54.5329 55.2745 53.5977 56.1567C50.9184 58.6842 43.9093 63.3107 28.5 63.3107C13.0907 63.3107 6.08165 58.6842 3.40231 56.1567C2.4671 55.2745 2.53179 53.8858 3.33268 52.88L26.0973 24.2935Z" fill="#00844C"/>
<mask id="mask0_925_9824" style="mask-type:alpha" maskUnits="userSpaceOnUse" x="2" y="4" width="51" height="60">
<path d="M25.2889 24.4207C26.5185 22.8297 28.9198 22.8297 30.1494 24.4207L52.1683 52.9103C52.9355 53.903 53.0005 55.2547 52.1031 56.1315C49.5221 58.6533 42.7242 63.3107 27.7191 63.3107C12.714 63.3107 5.9161 58.6533 3.33512 56.1315C2.43776 55.2547 2.50279 53.903 3.26999 52.9103L25.2889 24.4207Z" fill="#0A9F60"/>
<path d="M25.353 13.1699C26.5813 11.6855 28.8573 11.6855 30.0857 13.1699L50.2479 37.5349C51.0934 38.5567 51.1555 39.9927 50.1514 40.859C47.5607 43.0939 41.1947 46.862 27.7193 46.862C14.2439 46.862 7.87792 43.0939 5.28726 40.859C4.2831 39.9927 4.34525 38.5567 5.19074 37.5349L25.353 13.1699Z" fill="#23B169"/>
<path d="M25.4152 5.61538C26.6381 4.22751 28.8013 4.22751 30.0242 5.61537L46.554 24.3749C47.4756 25.4208 47.5271 26.937 46.406 27.7656C43.9641 29.5704 38.5249 32.2414 27.7197 32.2414C16.9145 32.2414 11.4753 29.5704 9.03336 27.7656C7.91228 26.937 7.96376 25.4208 8.88537 24.3749L25.4152 5.61538Z" fill="#68C76F"/>
</mask>
<g mask="url(#mask0_925_9824)">
<g style="mix-blend-mode:multiply">
<ellipse cx="35.155" cy="43.9998" rx="25.0047" ry="15.0028" transform="rotate(11.1813 35.155 43.9998)" fill="url(#paint0_linear_925_9824)" fill-opacity="0.61"/>
</g>
</g>
<path d="M26.1633 13.0515C27.3896 11.6133 29.6115 11.6133 30.8378 13.0515L51.6877 37.5051C52.569 38.5387 52.6304 40.0121 51.5868 40.8814C48.9004 43.119 42.3387 46.862 28.5005 46.862C14.6624 46.862 8.10064 43.119 5.4143 40.8814C4.37065 40.0121 4.43214 38.5387 5.3134 37.5051L26.1633 13.0515Z" fill="#23B169"/>
<mask id="mask1_925_9824" style="mask-type:alpha" maskUnits="userSpaceOnUse" x="4" y="11" width="49" height="36">
<path d="M26.1633 13.0515C27.3896 11.6133 29.6115 11.6133 30.8378 13.0515L51.6877 37.5051C52.569 38.5387 52.6304 40.0121 51.5868 40.8814C48.9004 43.119 42.3387 46.862 28.5005 46.862C14.6624 46.862 8.10064 43.119 5.4143 40.8814C4.37065 40.0121 4.43214 38.5387 5.3134 37.5051L26.1633 13.0515Z" fill="#2AD17C"/>
</mask>
<g mask="url(#mask1_925_9824)">
<g style="mix-blend-mode:multiply">
<ellipse cx="34.8635" cy="28.7192" rx="22.8614" ry="12.8596" transform="rotate(7.67869 34.8635 28.7192)" fill="url(#paint1_linear_925_9824)" fill-opacity="0.61"/>
</g>
</g>
<path d="M26.2261 5.50479C27.4449 4.16228 29.5554 4.16228 30.7742 5.50479L47.8798 24.3457C48.839 25.4022 48.8879 26.9567 47.7262 27.7854C45.1968 29.5898 39.5928 32.2414 28.5002 32.2414C17.4075 32.2414 11.8035 29.5898 9.27412 27.7854C8.11245 26.9567 8.16134 25.4022 9.12054 24.3457L26.2261 5.50479Z" fill="#61DB6A"/>
<rect x="50" y="43" width="6" height="24" rx="2.68427" fill="black"/>
<rect x="86" y="43" width="6" height="24" rx="2.68427" fill="black"/>
<rect x="46" y="41.7537" width="49.2861" height="16.4287" rx="2.30081" fill="#F0C351"/>
<rect x="39.563" y="65.4838" width="6.00279" height="15.516" rx="2.68427" fill="black"/>
<rect x="85.584" y="65.4838" width="6.00279" height="15.516" rx="2.68427" fill="black"/>
<path d="M35.4564 64.6584L95.2386 62.833V65.9013C95.2386 66.8106 94.7031 67.6345 93.8722 68.0038L91.5776 69.0236C91.2834 69.1544 90.965 69.2219 90.6431 69.2219H37.5424C36.1812 69.2219 35.1175 68.0467 35.253 66.6922L35.4564 64.6584Z" fill="url(#paint2_linear_925_9824)"/>
<rect width="55.675" height="5.26951" rx="0.766935" transform="matrix(1 0 -0.920505 0.390731 39.8506 62.833)" fill="#F0C351"/>
</g>
<defs>
<linearGradient id="paint0_linear_925_9824" x1="21.3415" y1="50.7905" x2="48.4928" y2="54.536" gradientUnits="userSpaceOnUse">
<stop stop-color="#0A9F72"/>
<stop offset="1" stop-color="#0A9F72" stop-opacity="0"/>
</linearGradient>
<linearGradient id="paint1_linear_925_9824" x1="21.6022" y1="31.9489" x2="57.687" y2="42.9432" gradientUnits="userSpaceOnUse">
<stop stop-color="#0A9F72"/>
<stop offset="1" stop-color="#0A9F72" stop-opacity="0"/>
</linearGradient>
<linearGradient id="paint2_linear_925_9824" x1="73.3336" y1="64.6584" x2="73.3336" y2="78" gradientUnits="userSpaceOnUse">
<stop stop-color="#E19B32"/>
<stop offset="0.75" stop-color="#F0C351"/>
</linearGradient>
<clipPath id="clip0_925_9824">
<rect width="95" height="95" fill="white"/>
</clipPath>
</defs>
</svg>
