<svg width="95" height="95" viewBox="0 0 95 95" fill="none" xmlns="http://www.w3.org/2000/svg">
<circle cx="47.1302" cy="47.3001" r="38.3001" fill="url(#paint0_linear_823_1102)"/>
<path d="M24.4708 20.4174C25.3034 19.0784 27.2523 19.0783 28.0848 20.4174L32.9498 28.2421C33.2428 28.7132 33.7081 29.0513 34.2467 29.1843L43.1918 31.3933C44.7226 31.7713 45.3248 33.6248 44.3086 34.8304L38.3702 41.8752C38.0127 42.2994 37.8349 42.8465 37.8749 43.3998L38.5382 52.5897C38.6518 54.1624 37.0751 55.3079 35.6145 54.714L27.0793 51.2432C26.5654 51.0343 25.9902 51.0343 25.4763 51.2432L16.9412 54.714C15.4806 55.3079 13.9039 54.1624 14.0174 52.5897L14.6808 43.3998C14.7207 42.8465 14.543 42.2994 14.1854 41.8752L8.24706 34.8304C7.23083 33.6248 7.83306 31.7713 9.36384 31.3933L18.3089 29.1843C18.8475 29.0513 19.3129 28.7132 19.6058 28.2421L24.4708 20.4174Z" fill="#FEFFD0"/>
<path d="M67.0265 20.4173C67.8591 19.0782 69.8079 19.0782 70.6405 20.4173L75.5055 28.242C75.7984 28.7131 76.2638 29.0512 76.8024 29.1842L85.7475 31.3931C87.2783 31.7712 87.8805 33.6247 86.8643 34.8302L80.9259 41.8751C80.5684 42.2993 80.3906 42.8464 80.4305 43.3997L81.0939 52.5896C81.2074 54.1623 79.6308 55.3078 78.1701 54.7138L69.635 51.2431C69.1211 51.0341 68.5459 51.0341 68.032 51.2431L59.4969 54.7138C58.0362 55.3078 56.4596 54.1623 56.5731 52.5896L57.2364 43.3997C57.2764 42.8464 57.0986 42.2993 56.7411 41.8751L50.8027 34.8302C49.7865 33.6247 50.3887 31.7712 51.9195 31.3931L60.8646 29.1842C61.4032 29.0512 61.8686 28.7131 62.1615 28.242L67.0265 20.4173Z" fill="#FEFFD0"/>
<path d="M47.3843 73.8416C53.4819 73.8416 58.5502 69.4349 59.5783 63.6325C59.7888 62.444 58.7902 61.4573 57.5832 61.4573H37.1855C35.9785 61.4573 34.9798 62.444 35.1904 63.6325C36.2185 69.4349 41.2868 73.8416 47.3843 73.8416Z" fill="black"/>
<mask id="mask0_823_1102" style="mask-type:alpha" maskUnits="userSpaceOnUse" x="35" y="61" width="25" height="13">
<path d="M47.3843 73.8416C53.4819 73.8416 58.5502 69.4349 59.5783 63.6325C59.7888 62.444 58.7902 61.4573 57.5832 61.4573H37.1855C35.9785 61.4573 34.9798 62.444 35.1904 63.6325C36.2185 69.4349 41.2868 73.8416 47.3843 73.8416Z" fill="black"/>
</mask>
<g mask="url(#mask0_823_1102)">
<ellipse cx="47.3844" cy="71.2917" rx="10.9274" ry="5.46368" fill="#FF8368"/>
</g>
<path d="M47.3846 60C40.4252 60 35.3643 61.0747 35.3643 62.914H59.4044C59.4044 61.0747 54.3439 60 47.3846 60Z" fill="black"/>
<defs>
<linearGradient id="paint0_linear_823_1102" x1="47.1302" y1="-36.5" x2="47.1302" y2="85.6002" gradientUnits="userSpaceOnUse">
<stop stop-color="#FFB1B1"/>
<stop offset="1" stop-color="#FFDD52"/>
</linearGradient>
</defs>
</svg>
