<svg width="95" height="95" viewBox="0 0 95 95" fill="none" xmlns="http://www.w3.org/2000/svg">
<path d="M25.0588 12.7673C37.3986 0.2832 57.4054 0.2832 69.7452 12.7673C82.0849 25.2515 82.0849 45.4922 69.7452 57.9762L52.0924 75.8355C51.4765 76.4587 50.7452 76.9531 49.9405 77.2904C49.1357 77.6277 48.2731 77.8013 47.402 77.8013C46.5309 77.8013 45.6683 77.6277 44.8636 77.2904C44.0588 76.9531 43.3276 76.4587 42.7116 75.8355L25.0588 57.9762C12.7191 45.4922 12.7191 25.2515 25.0588 12.7673ZM47.4021 46.9962C53.748 46.9962 58.8923 41.7917 58.8923 35.3716C58.8923 28.9516 53.748 23.7471 47.4021 23.7471C41.0562 23.7471 35.9119 28.9516 35.9119 35.3716C35.9119 41.7917 41.0562 46.9962 47.4021 46.9962Z" fill="url(#paint0_linear_2119_17979)"/>
<defs>
<linearGradient id="paint0_linear_2119_17979" x1="47.402" y1="37.5" x2="47.402" y2="77.8013" gradientUnits="userSpaceOnUse">
<stop stop-color="white"/>
<stop offset="1" stop-color="white" stop-opacity="0.61"/>
</linearGradient>
</defs>
</svg>
