<svg width="95" height="95" viewBox="0 0 95 95" fill="none" xmlns="http://www.w3.org/2000/svg">
<g clip-path="url(#clip0_823_1103)">
<ellipse cx="46.5" cy="71" rx="38.5" ry="15" fill="#FFD075"/>
<rect x="51.9946" y="40.3167" width="6" height="32" rx="3" transform="rotate(14.9285 51.9946 40.3167)" fill="black"/>
<path fill-rule="evenodd" clip-rule="evenodd" d="M60.1974 10.6675C48.7396 8.85269 29.8498 10.0432 17.941 25.0297C17.0549 26.1448 17.6965 27.8167 18.9789 28.4366C21.3121 29.5644 24.0044 31.6244 25.3186 34.935C25.672 35.8252 26.5019 36.4736 27.4571 36.5446C31.6667 36.8577 38.4845 38.8793 42.2737 45.2232C42.7626 46.0417 43.7109 46.4969 44.6518 46.3432C47.0162 45.9568 50.4188 45.7649 53.5255 46.5109C56.5913 47.4106 59.4467 49.271 61.3049 50.7831C62.0444 51.3849 63.0935 51.4622 63.9249 50.9957C70.3695 47.3802 77.2888 49.0211 81.0954 50.8452C81.9592 51.2592 83.0017 51.11 83.7514 50.5139C86.5393 48.297 89.8999 47.8507 92.4848 48.0342C93.9056 48.135 95.2944 47.0044 95.081 45.5961C92.2137 26.6702 76.4238 16.2336 65.5834 12.1035C65.4091 11.9031 65.1752 11.751 64.8998 11.6776C64.2917 11.5067 63.6379 11.3421 62.9432 11.1874C62.2636 10.9757 61.6147 10.7929 61.0022 10.6385C60.7268 10.5651 60.4483 10.5805 60.1974 10.6675Z" fill="#43C7FF"/>
<mask id="mask0_823_1103" style="mask-type:alpha" maskUnits="userSpaceOnUse" x="17" y="10" width="79" height="42">
<path fill-rule="evenodd" clip-rule="evenodd" d="M60.1974 10.6675C48.7396 8.85269 29.8498 10.0432 17.941 25.0297C17.0549 26.1448 17.6965 27.8167 18.9789 28.4366C21.3121 29.5644 24.0044 31.6244 25.3186 34.935C25.672 35.8252 26.5019 36.4736 27.4571 36.5446C31.6667 36.8577 38.4845 38.8793 42.2737 45.2232C42.7626 46.0417 43.7109 46.4969 44.6518 46.3432C47.0162 45.9568 50.4188 45.7649 53.5255 46.5109C56.5913 47.4106 59.4467 49.271 61.3049 50.7831C62.0444 51.3849 63.0935 51.4622 63.9249 50.9957C70.3695 47.3802 77.2888 49.0211 81.0954 50.8452C81.9592 51.2592 83.0017 51.11 83.7514 50.5139C86.5393 48.297 89.8999 47.8507 92.4848 48.0342C93.9056 48.135 95.2944 47.0044 95.081 45.5961C92.2137 26.6702 76.4238 16.2336 65.5834 12.1035C65.4091 11.9031 65.1752 11.751 64.8998 11.6776C64.2917 11.5067 63.6379 11.3421 62.9432 11.1874C62.2636 10.9757 61.6147 10.7929 61.0022 10.6385C60.7268 10.5651 60.4483 10.5805 60.1974 10.6675Z" fill="#43C7FF"/>
</mask>
<g mask="url(#mask0_823_1103)">
<path d="M24.8604 37.6662C31.4862 19.3646 52.1397 13.2372 61.9441 12.4615C61.989 12.458 62.0319 12.4623 62.0754 12.4739C62.4147 12.5644 62.4865 13.0227 62.1991 13.2244C53.4684 19.3528 46.725 37.3129 43.7957 47.7672C43.4335 49.0597 41.9433 49.6711 40.7913 48.9823L25.7085 39.9648C24.9171 39.4916 24.5465 38.5332 24.8604 37.6662Z" fill="white"/>
<path d="M83.1272 53.2007C86.4921 34.0297 71.6303 18.4336 63.5134 12.8799C63.4763 12.8545 63.4368 12.8369 63.3933 12.8253C63.054 12.7348 62.7636 13.0965 62.9125 13.4146C67.4334 23.076 64.3406 42.0093 61.6765 52.5344C61.3471 53.8356 62.3352 55.1078 63.6772 55.0839L81.2473 54.7721C82.1693 54.7557 82.9677 54.109 83.1272 53.2007Z" fill="white"/>
</g>
<rect x="61.2686" y="5.53174" width="6" height="9" rx="3" transform="rotate(14.9285 61.2686 5.53174)" fill="black"/>
<path d="M21.0735 67.1356C20.5606 66.0745 22.2532 65.0972 24.0912 65.3933L27.5475 65.9502C28.2332 66.0607 28.9682 65.9935 29.5612 65.7661L32.5502 64.6198C34.1398 64.0102 36.2727 64.6377 36.3528 65.7384L36.5036 67.8083C36.5335 68.219 36.8713 68.6018 37.4291 68.8571L40.241 70.1442C41.7363 70.8286 41.3618 72.1937 39.5734 72.5778L36.2103 73.3002C35.5431 73.4435 35.0169 73.7473 34.7686 74.1326L33.5174 76.0743C32.852 77.1068 30.4877 77.323 29.3022 76.4597L27.0729 74.8363C26.6307 74.5142 25.9676 74.3192 25.2564 74.3019L21.6712 74.2149C19.7647 74.1686 18.6779 72.9371 19.7337 72.0194L21.7191 70.2937C22.1129 69.9513 22.2293 69.527 22.038 69.1311L21.0735 67.1356Z" fill="#FF8368"/>
<mask id="mask1_823_1103" style="mask-type:alpha" maskUnits="userSpaceOnUse" x="8" y="56" width="77" height="30">
<ellipse cx="46.5" cy="71" rx="38.5" ry="15" fill="#FFD075"/>
</mask>
<g mask="url(#mask1_823_1103)">
<g style="mix-blend-mode:multiply">
<ellipse cx="64.5" cy="71" rx="38.5" ry="15" fill="url(#paint0_linear_823_1103)"/>
</g>
</g>
</g>
<defs>
<linearGradient id="paint0_linear_823_1103" x1="44.5" y1="68" x2="97" y2="71" gradientUnits="userSpaceOnUse">
<stop stop-color="#EABB5E"/>
<stop offset="1" stop-color="#EABB5E" stop-opacity="0"/>
</linearGradient>
<clipPath id="clip0_823_1103">
<rect width="95" height="95" fill="white"/>
</clipPath>
</defs>
</svg>
