<svg width="115" height="115" viewBox="0 0 115 115" fill="none" xmlns="http://www.w3.org/2000/svg">
<circle cx="57.5" cy="57.5" r="57.5" fill="#C8EEFF"/>
<g clip-path="url(#clip0_1687_14189)">
<ellipse cx="54.1167" cy="77.779" rx="34.0421" ry="13.2632" fill="#FFD075"/>
<rect x="58.976" y="50.6485" width="5.30526" height="28.2947" rx="2.65263" transform="rotate(14.9285 58.976 50.6485)" fill="black"/>
<path fill-rule="evenodd" clip-rule="evenodd" d="M66.2289 24.4324C56.0978 22.8278 39.3953 23.8805 28.8654 37.1316C28.0819 38.1176 28.6493 39.596 29.7831 40.1441C31.8462 41.1413 34.2268 42.9627 35.3888 45.89C35.7013 46.6772 36.4351 47.2504 37.2797 47.3133C41.0018 47.5901 47.0302 49.3776 50.3806 54.987C50.8129 55.7107 51.6514 56.1132 52.4834 55.9773C54.574 55.6357 57.5824 55.466 60.3293 56.1255C63.0402 56.921 65.5651 58.566 67.2082 59.9031C67.862 60.4352 68.7897 60.5035 69.5248 60.091C75.2231 56.8942 81.3413 58.3451 84.7072 59.958C85.4709 60.324 86.3927 60.1921 87.0556 59.665C89.5207 57.7048 92.4922 57.3102 94.7778 57.4724C96.034 57.5616 97.262 56.5619 97.0734 55.3167C94.5381 38.5823 80.5766 29.3541 70.9914 25.7022C70.8372 25.525 70.6304 25.3905 70.3869 25.3256C69.8492 25.1744 69.271 25.0289 68.6566 24.8921C68.0558 24.7049 67.4821 24.5433 66.9405 24.4068C66.697 24.3418 66.4507 24.3555 66.2289 24.4324Z" fill="#43C7FF"/>
<mask id="mask0_1687_14189" style="mask-type:alpha" maskUnits="userSpaceOnUse" x="28" y="23" width="70" height="38">
<path fill-rule="evenodd" clip-rule="evenodd" d="M66.2289 24.4324C56.0978 22.8278 39.3953 23.8805 28.8654 37.1316C28.0819 38.1176 28.6493 39.596 29.7831 40.1441C31.8462 41.1413 34.2268 42.9627 35.3888 45.89C35.7013 46.6772 36.4351 47.2504 37.2797 47.3133C41.0018 47.5901 47.0302 49.3776 50.3806 54.987C50.8129 55.7107 51.6514 56.1132 52.4834 55.9773C54.574 55.6357 57.5824 55.466 60.3293 56.1255C63.0402 56.921 65.5651 58.566 67.2082 59.9031C67.862 60.4352 68.7897 60.5035 69.5248 60.091C75.2231 56.8942 81.3413 58.3451 84.7072 59.958C85.4709 60.324 86.3927 60.1921 87.0556 59.665C89.5207 57.7048 92.4922 57.3102 94.7778 57.4724C96.034 57.5616 97.262 56.5619 97.0734 55.3167C94.5381 38.5823 80.5766 29.3541 70.9914 25.7022C70.8372 25.525 70.6304 25.3905 70.3869 25.3256C69.8492 25.1744 69.271 25.0289 68.6566 24.8921C68.0558 24.7049 67.4821 24.5433 66.9405 24.4068C66.697 24.3418 66.4507 24.3555 66.2289 24.4324Z" fill="#43C7FF"/>
</mask>
<g mask="url(#mask0_1687_14189)">
<path d="M34.984 48.305C40.8425 32.1225 59.1046 26.7046 67.7737 26.0188C67.8134 26.0157 67.8514 26.0195 67.8899 26.0298C68.1899 26.1097 68.2533 26.515 67.9992 26.6934C60.2795 32.1121 54.3169 47.9926 51.7267 57.2365C51.4065 58.3792 50.0888 58.9199 49.0702 58.3109L35.7339 50.3375C35.034 49.9191 34.7064 49.0716 34.984 48.305Z" fill="white"/>
<path d="M86.5041 62.0408C89.4793 45.0896 76.3384 31.2993 69.1614 26.3887C69.1285 26.3662 69.0937 26.3506 69.0552 26.3404C68.7552 26.2604 68.4984 26.5802 68.63 26.8615C72.6275 35.4041 69.8928 52.1452 67.5372 61.4516C67.2459 62.6021 68.1196 63.727 69.3062 63.7059L84.8419 63.4302C85.6571 63.4157 86.3631 62.8438 86.5041 62.0408Z" fill="white"/>
</g>
<rect x="67.1757" y="19.8913" width="5.30526" height="7.95789" rx="2.65263" transform="rotate(14.9285 67.1757 19.8913)" fill="black"/>
<path d="M31.6343 74.3621C31.1808 73.4238 32.6775 72.5597 34.3026 72.8215L37.3587 73.3139C37.965 73.4116 38.6149 73.3522 39.1392 73.1511L41.7822 72.1376C43.1876 71.5986 45.0736 72.1534 45.1445 73.1267L45.2777 74.9569C45.3042 75.32 45.6029 75.6585 46.0962 75.8843L48.5824 77.0223C49.9046 77.6275 49.5735 78.8345 47.9921 79.1741L45.0184 79.8129C44.4285 79.9396 43.9632 80.2082 43.7437 80.5488L42.6374 82.2657C42.049 83.1787 39.9584 83.3699 38.9102 82.6065L36.9391 81.1711C36.548 80.8863 35.9618 80.7138 35.3329 80.6986L32.1628 80.6216C30.4771 80.5807 29.5161 79.4919 30.4497 78.6804L32.2051 77.1545C32.5534 76.8518 32.6563 76.4766 32.4871 76.1265L31.6343 74.3621Z" fill="#FF8368"/>
<mask id="mask1_1687_14189" style="mask-type:alpha" maskUnits="userSpaceOnUse" x="20" y="64" width="69" height="28">
<ellipse cx="54.1172" cy="77.779" rx="34.0421" ry="13.2632" fill="#FFD075"/>
</mask>
<g mask="url(#mask1_1687_14189)">
<g style="mix-blend-mode:multiply">
<ellipse cx="70.033" cy="77.779" rx="34.0421" ry="13.2632" fill="url(#paint0_linear_1687_14189)"/>
</g>
</g>
</g>
<defs>
<linearGradient id="paint0_linear_1687_14189" x1="52.3487" y1="75.1264" x2="98.7698" y2="77.779" gradientUnits="userSpaceOnUse">
<stop stop-color="#EABB5E"/>
<stop offset="1" stop-color="#EABB5E" stop-opacity="0"/>
</linearGradient>
<clipPath id="clip0_1687_14189">
<rect width="84" height="84" fill="white" transform="translate(13 15)"/>
</clipPath>
</defs>
</svg>
