<svg width="23" height="23" viewBox="0 0 23 23" fill="none" xmlns="http://www.w3.org/2000/svg">
<path fill-rule="evenodd" clip-rule="evenodd" d="M11.4991 0C5.14814 0 0 5.14889 0 11.5C0 17.8511 5.14814 23 11.4991 23C13.267 23 14.9459 22.5997 16.4462 21.8838L20.6841 22.9434L20.8765 22.174L20.6841 22.9434C21.2861 23.094 21.9236 22.935 22.3844 22.5194C22.8453 22.1038 23.069 21.4861 22.9813 20.8717L22.2329 15.6325C22.7276 14.3478 22.9982 12.9535 22.9982 11.5C22.9982 5.14889 17.85 0 11.4991 0Z" />
<path d="M6.68153 10.4292C7.27285 10.4292 7.75222 10.9086 7.75222 11.4999V11.5905C7.75222 12.1818 7.27285 12.6612 6.68153 12.6612C6.0902 12.6612 5.61084 12.1818 5.61084 11.5905V11.4999C5.61084 10.9086 6.0902 10.4292 6.68153 10.4292Z" fill="white"/>
<path d="M11.4992 10.4292C12.0905 10.4292 12.5699 10.9086 12.5699 11.4999V11.5905C12.5699 12.1818 12.0905 12.6612 11.4992 12.6612C10.9078 12.6612 10.4285 12.1818 10.4285 11.5905V11.4999C10.4285 10.9086 10.9078 10.4292 11.4992 10.4292Z" fill="white"/>
<path d="M16.3168 10.4292C16.9081 10.4292 17.3875 10.9086 17.3875 11.4999V11.5905C17.3875 12.1818 16.9081 12.6612 16.3168 12.6612C15.7255 12.6612 15.2461 12.1818 15.2461 11.5905V11.4999C15.2461 10.9086 15.7255 10.4292 16.3168 10.4292Z" fill="white"/>
</svg>
