<svg width="194" height="141" viewBox="0 0 194 141" fill="none" xmlns="http://www.w3.org/2000/svg">
<path d="M134.774 31.2666V41.3305C134.774 42.03 135.341 42.5971 136.04 42.5971H138.437C139.136 42.5971 139.703 42.03 139.703 41.3305V31.2666C139.703 30.5671 139.136 30 138.437 30H137.512H136.04C135.341 30 134.774 30.5671 134.774 31.2666Z" fill="#BDBDBD"/>
<path d="M138.437 30L128.373 30C127.673 30 127.106 30.5671 127.106 31.2666L127.106 33.6627C127.106 34.3622 127.673 34.9293 128.373 34.9293L138.437 34.9293C139.136 34.9293 139.703 34.3622 139.703 33.6627L139.703 32.7385L139.703 31.2666C139.703 30.5671 139.136 30 138.437 30Z" fill="#BDBDBD"/>
<path d="M61.9288 31.2666V41.3305C61.9288 42.03 61.3618 42.5971 60.6623 42.5971H58.2661C57.5666 42.5971 56.9995 42.03 56.9995 41.3305V31.2666C56.9995 30.5671 57.5666 30 58.2661 30H59.1903H60.6623C61.3618 30 61.9288 30.5671 61.9288 31.2666Z" fill="#BDBDBD"/>
<path d="M58.2662 30L68.3302 30C69.0297 30 69.5967 30.5671 69.5967 31.2666L69.5967 33.6627C69.5967 34.3622 69.0297 34.9293 68.3302 34.9293L58.2662 34.9293C57.5667 34.9293 56.9996 34.3622 56.9996 33.6627L56.9996 32.7385L56.9996 31.2666C56.9996 30.5671 57.5667 30 58.2662 30Z" fill="#BDBDBD"/>
<path d="M61.9292 109.793L61.9292 99.729C61.9292 99.0295 61.3621 98.4625 60.6626 98.4625L58.2665 98.4625C57.567 98.4625 56.9999 99.0295 56.9999 99.729L56.9999 109.793C56.9999 110.493 57.567 111.06 58.2665 111.06L59.1907 111.06L60.6626 111.06C61.3621 111.06 61.9292 110.493 61.9292 109.793Z" fill="#BDBDBD"/>
<path d="M58.2666 111.06L68.3305 111.06C69.03 111.06 69.5971 110.493 69.5971 109.793L69.5971 107.397C69.5971 106.697 69.03 106.13 68.3305 106.13L58.2666 106.13C57.5671 106.13 57 106.697 57 107.397L57 108.321L57 109.793C57 110.493 57.5671 111.06 58.2666 111.06Z" fill="#BDBDBD"/>
<path d="M134.774 109.793L134.774 99.729C134.774 99.0295 135.341 98.4625 136.04 98.4625L138.437 98.4625C139.136 98.4625 139.703 99.0295 139.703 99.729L139.703 109.793C139.703 110.493 139.136 111.06 138.437 111.06L137.512 111.06L136.04 111.06C135.341 111.06 134.774 110.493 134.774 109.793Z" fill="#BDBDBD"/>
<path d="M138.437 111.06L128.373 111.06C127.673 111.06 127.106 110.493 127.106 109.793L127.106 107.397C127.106 106.697 127.673 106.13 128.373 106.13L138.437 106.13C139.136 106.13 139.703 106.697 139.703 107.397L139.703 108.321L139.703 109.793C139.703 110.493 139.136 111.06 138.437 111.06Z" fill="#BDBDBD"/>
<rect x="73.4652" y="45.1987" width="50.6622" height="50.6622" rx="4.82497" fill="#D9D9D9"/>
<path fill-rule="evenodd" clip-rule="evenodd" d="M93.7148 68.5582C92.3489 66.504 89.3033 66.5903 88.0561 68.7187L78.7968 84.5186C77.4929 86.7436 79.0974 89.5436 81.6763 89.5436H97.4778V89.5438H110.919V89.5316H117.635C119.719 89.5316 121.011 87.2629 119.947 85.4709L113.851 75.2041C112.811 73.4522 110.276 73.4491 109.231 75.1985L103.979 83.9956L93.7148 68.5582Z" fill="white"/>
<circle cx="106.396" cy="60.3972" r="6.33278" fill="white"/>
</svg>
