<svg width="194" height="141" viewBox="0 0 194 141" fill="none" xmlns="http://www.w3.org/2000/svg">
<path d="M59 29V40C59 40.5523 58.5523 41 58 41H56C55.4477 41 55 40.5523 55 40V29C55 28.4477 55.4477 28 56 28H56.7778H58C58.5523 28 59 28.4477 59 29Z" fill="#D9D9D9"/>
<path d="M56 28L67 28C67.5523 28 68 28.4477 68 29L68 31C68 31.5523 67.5523 32 67 32L56 32C55.4477 32 55 31.5523 55 31L55 30.2222L55 29C55 28.4477 55.4477 28 56 28Z" fill="#D9D9D9"/>
<path d="M134 29V40C134 40.5523 134.448 41 135 41H137C137.552 41 138 40.5523 138 40V29C138 28.4477 137.552 28 137 28H136.222H135C134.448 28 134 28.4477 134 29Z" fill="#D9D9D9"/>
<path d="M137 28L126 28C125.448 28 125 28.4477 125 29L125 31C125 31.5523 125.448 32 126 32L137 32C137.552 32 138 31.5523 138 31L138 30.2222L138 29C138 28.4477 137.552 28 137 28Z" fill="#D9D9D9"/>
<path d="M134 111L134 100C134 99.4477 134.448 99 135 99L137 99C137.552 99 138 99.4477 138 100L138 111C138 111.552 137.552 112 137 112L136.222 112L135 112C134.448 112 134 111.552 134 111Z" fill="#D9D9D9"/>
<path d="M137 112L126 112C125.448 112 125 111.552 125 111L125 109C125 108.448 125.448 108 126 108L137 108C137.552 108 138 108.448 138 109L138 109.778L138 111C138 111.552 137.552 112 137 112Z" fill="#D9D9D9"/>
<path d="M59 111L59 100C59 99.4477 58.5523 99 58 99L56 99C55.4477 99 55 99.4477 55 100L55 111C55 111.552 55.4477 112 56 112L56.7778 112L58 112C58.5523 112 59 111.552 59 111Z" fill="#D9D9D9"/>
<path d="M56 112L67 112C67.5523 112 68 111.552 68 111L68 109C68 108.448 67.5523 108 67 108L56 108C55.4477 108 55 108.448 55 109L55 109.778L55 111C55 111.552 55.4477 112 56 112Z" fill="#D9D9D9"/>
<rect x="72.4648" y="45.1987" width="50.6622" height="50.6622" rx="4.82497" fill="#D9D9D9"/>
<path fill-rule="evenodd" clip-rule="evenodd" d="M92.7152 68.5585C91.3493 66.5042 88.3037 66.5906 87.0564 68.7189L77.7972 84.5189C76.4933 86.7438 78.0978 89.5439 80.6767 89.5439H96.4781V89.5441H109.919V89.5319H116.636C118.72 89.5319 120.011 87.2631 118.947 85.4711L112.851 75.2043C111.811 73.4524 109.276 73.4493 108.232 75.1987L102.979 83.9959L92.7152 68.5585Z" fill="white"/>
<circle cx="105.395" cy="60.3972" r="6.33278" fill="white"/>
</svg>
