<svg width="64" height="64" viewBox="0 0 115 115" fill="none" xmlns="http://www.w3.org/2000/svg">
<circle cx="57.5" cy="57.5" r="57.5" fill="#CBF6C4"/>
<g clip-path="url(#clip0_2257_34326)">
<path d="M35.3369 39.758C35.3369 37.3163 37.3163 35.3369 39.758 35.3369H40.6422C43.0839 35.3369 45.0632 37.3163 45.0632 39.758V81.3159C45.0632 83.7575 43.0839 85.7369 40.6422 85.7369H39.758C37.3163 85.7369 35.3369 83.7575 35.3369 81.3159V39.758Z" fill="#604500"/>
<path d="M38.0756 36.4808C39.1629 35.1155 41.2374 35.1155 42.3246 36.4808L62.4533 61.7574C63.1615 62.6467 63.2187 63.8746 62.3918 64.6547C60.0227 66.8895 53.8252 70.9803 40.2001 70.9803C26.5751 70.9803 20.3776 66.8895 18.0085 64.6547C17.1816 63.8746 17.2388 62.6467 17.9469 61.7574L38.0756 36.4808Z" fill="#00844C"/>
<mask id="mask0_2257_34326" style="mask-type:alpha" maskUnits="userSpaceOnUse" x="17" y="19" width="45" height="52">
<path d="M37.3608 36.5933C38.448 35.1866 40.5713 35.1866 41.6585 36.5933L61.1278 61.7842C61.8062 62.6619 61.8637 63.8571 61.0703 64.6324C58.7881 66.8622 52.7773 70.9803 39.5097 70.9803C26.242 70.9803 20.2312 66.8621 17.9491 64.6324C17.1556 63.8571 17.2131 62.6619 17.8915 61.7842L37.3608 36.5933Z" fill="#0A9F60"/>
<path d="M37.4178 26.6447C38.504 25.3322 40.5164 25.3322 41.6025 26.6447L59.4302 48.1885C60.1778 49.0919 60.2327 50.3617 59.3448 51.1277C57.0541 53.1038 51.4253 56.4356 39.5102 56.4356C27.5951 56.4356 21.9662 53.1038 19.6755 51.1277C18.7876 50.3617 18.8426 49.0919 19.5902 48.1885L37.4178 26.6447Z" fill="#23B169"/>
<path d="M37.472 19.9654C38.5533 18.7382 40.4661 18.7382 41.5474 19.9654L56.1632 36.5528C56.9781 37.4776 57.0236 38.8182 56.0324 39.5509C53.8732 41.1467 49.0638 43.5084 39.5097 43.5084C29.9556 43.5084 25.1462 41.1467 22.987 39.5508C21.9958 38.8182 22.0413 37.4776 22.8562 36.5528L37.472 19.9654Z" fill="#68C76F"/>
</mask>
<g mask="url(#mask0_2257_34326)">
<g style="mix-blend-mode:multiply">
<ellipse cx="46.0846" cy="53.9052" rx="22.1094" ry="13.2657" transform="rotate(11.1813 46.0846 53.9052)" fill="url(#paint0_linear_2257_34326)" fill-opacity="0.61"/>
</g>
</g>
<path d="M38.1337 26.54C39.218 25.2683 41.1827 25.2683 42.267 26.54L60.7027 48.1621C61.4819 49.076 61.5363 50.3789 60.6135 51.1475C58.2382 53.126 52.4362 56.4356 40.2004 56.4356C27.9645 56.4356 22.1626 53.126 19.7873 51.1475C18.8645 50.3789 18.9188 49.076 19.6981 48.1621L38.1337 26.54Z" fill="#23B169"/>
<mask id="mask1_2257_34326" style="mask-type:alpha" maskUnits="userSpaceOnUse" x="19" y="25" width="43" height="32">
<path d="M38.1337 26.54C39.218 25.2683 41.1827 25.2683 42.267 26.54L60.7027 48.1621C61.4819 49.076 61.5363 50.3789 60.6135 51.1475C58.2382 53.126 52.4362 56.4356 40.2004 56.4356C27.9645 56.4356 22.1626 53.126 19.7873 51.1475C18.8645 50.3789 18.9188 49.076 19.6981 48.1621L38.1337 26.54Z" fill="#2AD17C"/>
</mask>
<g mask="url(#mask1_2257_34326)">
<g style="mix-blend-mode:multiply">
<ellipse cx="45.8272" cy="40.3934" rx="20.2143" ry="11.3706" transform="rotate(7.67869 45.8272 40.3934)" fill="url(#paint1_linear_2257_34326)" fill-opacity="0.61"/>
</g>
</g>
<path d="M38.1891 19.8676C39.2668 18.6805 41.1329 18.6805 42.2106 19.8676L57.3355 36.5269C58.1837 37.4611 58.2269 38.8356 57.1997 39.5683C54.9632 41.1639 50.0081 43.5084 40.1999 43.5084C30.3916 43.5084 25.4365 41.1639 23.2 39.5683C22.1729 38.8356 22.2161 37.4611 23.0642 36.5269L38.1891 19.8676Z" fill="#61DB6A"/>
<rect x="59.21" y="53.021" width="5.30526" height="21.2211" rx="2.37346" fill="black"/>
<rect x="91.0415" y="53.021" width="5.30526" height="21.2211" rx="2.37346" fill="black"/>
<rect x="55.6738" y="51.9194" width="43.5793" height="14.5264" rx="2.0344" fill="#F0C351"/>
<rect x="49.9824" y="72.9014" width="5.30773" height="13.7194" rx="2.37346" fill="black"/>
<rect x="90.6753" y="72.9014" width="5.30773" height="13.7194" rx="2.37346" fill="black"/>
<path d="M46.3508 72.1717L99.2108 70.5576V73.2706C99.2108 74.0746 98.7374 74.8032 98.0027 75.1297L95.9738 76.0314C95.7136 76.147 95.4322 76.2068 95.1475 76.2068H48.1952C46.9917 76.2068 46.0512 75.1676 46.1709 73.97L46.3508 72.1717Z" fill="url(#paint2_linear_2257_34326)"/>
<rect width="49.2285" height="4.65935" rx="0.678132" transform="matrix(1 0 -0.920505 0.390731 50.2363 70.5576)" fill="#F0C351"/>
</g>
<defs>
<linearGradient id="paint0_linear_2257_34326" x1="33.8706" y1="59.9096" x2="57.878" y2="63.2214" gradientUnits="userSpaceOnUse">
<stop stop-color="#0A9F72"/>
<stop offset="1" stop-color="#0A9F72" stop-opacity="0"/>
</linearGradient>
<linearGradient id="paint1_linear_2257_34326" x1="34.1015" y1="43.2491" x2="66.008" y2="52.9704" gradientUnits="userSpaceOnUse">
<stop stop-color="#0A9F72"/>
<stop offset="1" stop-color="#0A9F72" stop-opacity="0"/>
</linearGradient>
<linearGradient id="paint2_linear_2257_34326" x1="79.8423" y1="72.1717" x2="79.8423" y2="83.9684" gradientUnits="userSpaceOnUse">
<stop stop-color="#E19B32"/>
<stop offset="0.75" stop-color="#F0C351"/>
</linearGradient>
<clipPath id="clip0_2257_34326">
<rect width="84" height="84" fill="white" transform="translate(15 15)"/>
</clipPath>
</defs>
</svg>
