<svg width="64" height="64" viewBox="0 0 115 115" fill="none" xmlns="http://www.w3.org/2000/svg">
<circle cx="57.5" cy="57.5" r="57.5" fill="#FFF4CC"/>
<g clip-path="url(#clip0_2257_34329)">
<path d="M50.7337 52.5476C50.7736 52.006 51.2247 51.5869 51.7678 51.5869H66.833C67.3818 51.5869 67.8356 52.0146 67.8681 52.5625L69.3241 77.1341C69.3715 77.9347 68.5311 78.4838 67.817 78.1187L59.7705 74.0051C59.479 73.8561 59.1344 73.8535 58.8407 73.998L50.4131 78.1445C49.6939 78.4984 48.8623 77.9373 48.9212 77.1379L50.7337 52.5476Z" fill="#43C7FF"/>
<mask id="mask0_2257_34329" style="mask-type:alpha" maskUnits="userSpaceOnUse" x="48" y="51" width="22" height="28">
<path d="M50.7342 52.5476C50.7741 52.006 51.2252 51.5869 51.7683 51.5869H66.8335C67.3823 51.5869 67.8361 52.0146 67.8686 52.5625L69.3246 77.1341C69.372 77.9347 68.5316 78.4838 67.8175 78.1187L59.771 74.0051C59.4795 73.8561 59.1349 73.8535 58.8412 73.998L50.4136 78.1445C49.6944 78.4984 48.8628 77.9373 48.9217 77.1379L50.7342 52.5476Z" fill="#43C7FF"/>
</mask>
<g mask="url(#mask0_2257_34329)">
<path d="M56.0387 52.6235H62.2109L62.8636 79.5832H55.3569L56.0387 52.6235Z" fill="url(#paint0_linear_2257_34329)"/>
</g>
<path d="M32.788 44.0806C33.1144 43.6465 33.7204 43.5377 34.1773 43.8313L46.8523 51.9741C47.314 52.2708 47.4646 52.8759 47.1958 53.3544L35.1396 74.8145C34.7468 75.5137 33.7429 75.5213 33.3395 74.8282L28.7931 67.0181C28.6284 66.7352 28.3399 66.5467 28.0147 66.5095L18.683 65.4429C17.8866 65.3519 17.4902 64.4304 17.9719 63.7897L32.788 44.0806Z" fill="#FF8368"/>
<mask id="mask1_2257_34329" style="mask-type:alpha" maskUnits="userSpaceOnUse" x="17" y="43" width="31" height="33">
<path d="M32.7876 44.0801C33.1139 43.646 33.7199 43.5372 34.1769 43.8308L46.8518 51.9736C47.3135 52.2703 47.4642 52.8754 47.1953 53.3539L35.1391 74.814C34.7463 75.5132 33.7424 75.5209 33.339 74.8278L28.7926 67.0176C28.6279 66.7347 28.3394 66.5462 28.0142 66.509L18.6825 65.4425C17.8861 65.3514 17.4897 64.4299 17.9714 63.7892L32.7876 44.0801Z" fill="#43C7FF"/>
</mask>
<g mask="url(#mask1_2257_34329)">
<path d="M37.2098 47.0111L42.4027 50.3472L28.3799 73.3822L22.0643 69.3248L37.2098 47.0111Z" fill="url(#paint1_linear_2257_34329)"/>
</g>
<path d="M84.7437 44.0806C84.4173 43.6465 83.8113 43.5377 83.3544 43.8313L70.6795 51.9741C70.2177 52.2708 70.0671 52.8759 70.3359 53.3544L82.3921 74.8145C82.7849 75.5137 83.7888 75.5213 84.1923 74.8282L88.7387 67.0181C88.9033 66.7352 89.1919 66.5467 89.5171 66.5095L98.8488 65.4429C99.6451 65.3519 100.042 64.4304 99.5599 63.7897L84.7437 44.0806Z" fill="#61DB6A"/>
<mask id="mask2_2257_34329" style="mask-type:alpha" maskUnits="userSpaceOnUse" x="70" y="43" width="30" height="33">
<path d="M84.7437 44.0806C84.4173 43.6465 83.8113 43.5377 83.3544 43.8313L70.6795 51.9741C70.2177 52.2708 70.0671 52.8759 70.3359 53.3544L82.3921 74.8145C82.7849 75.5137 83.7888 75.5213 84.1923 74.8282L88.7387 67.0181C88.9033 66.7352 89.1919 66.5467 89.5171 66.5095L98.8488 65.4429C99.6451 65.3519 100.042 64.4304 99.5599 63.7897L84.7437 44.0806Z" fill="#43C7FF"/>
</mask>
<g mask="url(#mask2_2257_34329)">
<path d="M80.3219 47.0116L75.129 50.3477L89.1518 73.3827L95.4674 69.3253L80.3219 47.0116Z" fill="url(#paint2_linear_2257_34329)"/>
</g>
<mask id="mask3_2257_34329" style="mask-type:alpha" maskUnits="userSpaceOnUse" x="17" y="43" width="83" height="36">
<path d="M50.7342 52.5476C50.7741 52.006 51.2252 51.5869 51.7683 51.5869H66.8335C67.3823 51.5869 67.8361 52.0146 67.8686 52.5625L69.3246 77.1341C69.372 77.9347 68.5316 78.4838 67.8175 78.1187L59.771 74.0051C59.4795 73.8561 59.1349 73.8535 58.8412 73.998L50.4136 78.1445C49.6944 78.4984 48.8628 77.9373 48.9217 77.1379L50.7342 52.5476Z" fill="#43C7FF"/>
<mask id="mask4_2257_34329" style="mask-type:alpha" maskUnits="userSpaceOnUse" x="48" y="51" width="22" height="28">
<path d="M50.7347 52.5476C50.7746 52.006 51.2257 51.5869 51.7688 51.5869H66.834C67.3828 51.5869 67.8366 52.0146 67.8691 52.5625L69.3251 77.1341C69.3725 77.9347 68.5321 78.4838 67.818 78.1187L59.7714 74.0051C59.48 73.8561 59.1354 73.8535 58.8417 73.998L50.4141 78.1445C49.6949 78.4984 48.8633 77.9373 48.9222 77.1379L50.7347 52.5476Z" fill="#43C7FF"/>
</mask>
<g mask="url(#mask4_2257_34329)">
<path d="M56.0392 52.6235H62.2113L62.8641 79.5832H55.3574L56.0392 52.6235Z" fill="url(#paint3_linear_2257_34329)"/>
</g>
<path d="M32.7885 44.0806C33.1149 43.6465 33.7209 43.5377 34.1778 43.8313L46.8528 51.9741C47.3145 52.2708 47.4651 52.8759 47.1963 53.3544L35.1401 74.8145C34.7473 75.5137 33.7434 75.5213 33.34 74.8282L28.7936 67.0181C28.6289 66.7352 28.3403 66.5467 28.0152 66.5095L18.6834 65.4429C17.8871 65.3519 17.4907 64.4304 17.9724 63.7897L32.7885 44.0806Z" fill="#FF8368"/>
<mask id="mask5_2257_34329" style="mask-type:alpha" maskUnits="userSpaceOnUse" x="17" y="43" width="31" height="33">
<path d="M32.788 44.0801C33.1144 43.646 33.7204 43.5372 34.1773 43.8308L46.8523 51.9736C47.314 52.2703 47.4646 52.8754 47.1958 53.3539L35.1396 74.814C34.7468 75.5132 33.7429 75.5209 33.3395 74.8278L28.7931 67.0176C28.6284 66.7347 28.3399 66.5462 28.0147 66.509L18.683 65.4425C17.8866 65.3514 17.4902 64.4299 17.9719 63.7892L32.788 44.0801Z" fill="#43C7FF"/>
</mask>
<g mask="url(#mask5_2257_34329)">
<path d="M37.2103 47.0111L42.4032 50.3472L28.3804 73.3822L22.0648 69.3248L37.2103 47.0111Z" fill="url(#paint4_linear_2257_34329)"/>
</g>
<path d="M84.7437 44.0806C84.4173 43.6465 83.8113 43.5377 83.3544 43.8313L70.6795 51.9741C70.2177 52.2708 70.0671 52.8759 70.3359 53.3544L82.3921 74.8145C82.7849 75.5137 83.7888 75.5213 84.1923 74.8282L88.7387 67.0181C88.9033 66.7352 89.1919 66.5467 89.5171 66.5095L98.8488 65.4429C99.6451 65.3519 100.042 64.4304 99.5599 63.7897L84.7437 44.0806Z" fill="#61DB6A"/>
<mask id="mask6_2257_34329" style="mask-type:alpha" maskUnits="userSpaceOnUse" x="70" y="43" width="30" height="33">
<path d="M84.7437 44.0806C84.4173 43.6465 83.8113 43.5377 83.3544 43.8313L70.6795 51.9741C70.2177 52.2708 70.0671 52.8759 70.3359 53.3544L82.3921 74.8145C82.7849 75.5137 83.7888 75.5213 84.1923 74.8282L88.7387 67.0181C88.9033 66.7352 89.1919 66.5467 89.5171 66.5095L98.8488 65.4429C99.6451 65.3519 100.042 64.4304 99.5599 63.7897L84.7437 44.0806Z" fill="#43C7FF"/>
</mask>
<g mask="url(#mask6_2257_34329)">
<path d="M80.3219 47.0116L75.129 50.3477L89.1518 73.3827L95.4674 69.3253L80.3219 47.0116Z" fill="url(#paint5_linear_2257_34329)"/>
</g>
</mask>
<g mask="url(#mask3_2257_34329)">
<g style="mix-blend-mode:multiply">
<path d="M38.0244 43.5032C41.12 49.4398 49.7175 53.4808 61.7775 53.4808C74.0691 53.4808 83.3631 49.2831 85.8792 43.1592" stroke="#969696" stroke-width="10.3216" stroke-linecap="round"/>
</g>
</g>
<path d="M34.27 42.5652C37.3656 48.5018 45.9631 52.5428 58.0231 52.5428C70.3147 52.5428 79.6087 48.3451 82.1248 42.2212" stroke="#C0AE71" stroke-width="3.75332" stroke-linecap="round"/>
</g>
<defs>
<linearGradient id="paint0_linear_2257_34329" x1="59.1103" y1="52.6235" x2="59.1103" y2="79.5832" gradientUnits="userSpaceOnUse">
<stop stop-color="white"/>
<stop offset="0.85" stop-color="white" stop-opacity="0.34"/>
</linearGradient>
<linearGradient id="paint1_linear_2257_34329" x1="39.794" y1="48.6713" x2="25.2221" y2="71.3535" gradientUnits="userSpaceOnUse">
<stop stop-color="white"/>
<stop offset="0.85" stop-color="white" stop-opacity="0.34"/>
</linearGradient>
<linearGradient id="paint2_linear_2257_34329" x1="77.7377" y1="48.6718" x2="92.3096" y2="71.354" gradientUnits="userSpaceOnUse">
<stop stop-color="white"/>
<stop offset="0.85" stop-color="white" stop-opacity="0.34"/>
</linearGradient>
<linearGradient id="paint3_linear_2257_34329" x1="59.1107" y1="52.6235" x2="59.1107" y2="79.5832" gradientUnits="userSpaceOnUse">
<stop stop-color="white"/>
<stop offset="0.85" stop-color="white" stop-opacity="0.34"/>
</linearGradient>
<linearGradient id="paint4_linear_2257_34329" x1="39.7945" y1="48.6713" x2="25.2226" y2="71.3535" gradientUnits="userSpaceOnUse">
<stop stop-color="white"/>
<stop offset="0.85" stop-color="white" stop-opacity="0.34"/>
</linearGradient>
<linearGradient id="paint5_linear_2257_34329" x1="77.7377" y1="48.6718" x2="92.3096" y2="71.354" gradientUnits="userSpaceOnUse">
<stop stop-color="white"/>
<stop offset="0.85" stop-color="white" stop-opacity="0.34"/>
</linearGradient>
<clipPath id="clip0_2257_34329">
<rect width="84" height="84" fill="white" transform="translate(16 21)"/>
</clipPath>
</defs>
</svg>
