<svg width="64" height="64" viewBox="0 0 115 115" fill="none" xmlns="http://www.w3.org/2000/svg">
<circle cx="57.5" cy="57.5" r="57.5" fill="#BEFBF0"/>
<circle cx="57.6735" cy="56.8234" r="33.8654" fill="url(#paint0_linear_2257_34320)"/>
<path d="M37.6377 33.0537C38.3739 31.8697 40.0971 31.8697 40.8332 33.0537L45.1349 39.9723C45.3939 40.3889 45.8054 40.6879 46.2816 40.8055L54.191 42.7586C55.5445 43.0929 56.077 44.7318 55.1785 45.7978L49.9277 52.0269C49.6116 52.402 49.4544 52.8857 49.4897 53.3749L50.0763 61.5008C50.1766 62.8913 48.7825 63.9042 47.491 63.379L39.9442 60.3102C39.4898 60.1254 38.9812 60.1254 38.5268 60.3102L30.9799 63.379C29.6884 63.9042 28.2943 62.8913 28.3947 61.5008L28.9812 53.3749C29.0166 52.8857 28.8594 52.402 28.5432 52.0269L23.2925 45.7978C22.3939 44.7318 22.9264 43.0929 24.2799 42.7586L32.1893 40.8055C32.6655 40.6879 33.077 40.3889 33.336 39.9723L37.6377 33.0537Z" fill="#FEFFD0"/>
<path d="M75.2661 33.0537C76.0023 31.8697 77.7255 31.8697 78.4616 33.0537L82.7634 39.9723C83.0224 40.3889 83.4338 40.6879 83.9101 40.8055L91.8194 42.7586C93.1729 43.0929 93.7054 44.7318 92.8069 45.7978L87.5561 52.0269C87.24 52.402 87.0828 52.8857 87.1181 53.3749L87.7047 61.5008C87.805 62.8913 86.4109 63.9042 85.1194 63.379L77.5726 60.3102C77.1182 60.1254 76.6096 60.1254 76.1552 60.3102L68.6083 63.379C67.3168 63.9042 65.9227 62.8913 66.0231 61.5008L66.6097 53.3749C66.645 52.8857 66.4878 52.402 66.1716 52.0269L60.9209 45.7978C60.0223 44.7318 60.5548 43.0929 61.9084 42.7586L69.8177 40.8055C70.2939 40.6879 70.7054 40.3889 70.9644 39.9723L75.2661 33.0537Z" fill="#FEFFD0"/>
<path d="M57.8981 80.2912C63.2896 80.2912 67.7711 76.3947 68.6801 71.2642C68.8663 70.2133 67.9833 69.3408 66.916 69.3408H48.8802C47.8129 69.3408 46.9299 70.2133 47.1161 71.2642C48.0251 76.3947 52.5066 80.2912 57.8981 80.2912Z" fill="black"/>
<mask id="mask0_2257_34320" style="mask-type:alpha" maskUnits="userSpaceOnUse" x="47" y="69" width="22" height="12">
<path d="M57.8981 80.2912C63.2896 80.2912 67.7711 76.3947 68.6801 71.2642C68.8663 70.2133 67.9833 69.3408 66.916 69.3408H48.8802C47.8129 69.3408 46.9299 70.2133 47.1161 71.2642C48.0251 76.3947 52.5066 80.2912 57.8981 80.2912Z" fill="black"/>
</mask>
<g mask="url(#mask0_2257_34320)">
<ellipse cx="57.8984" cy="78.0366" rx="9.66208" ry="4.83104" fill="#FF8368"/>
</g>
<path d="M57.8985 68.0527C51.745 68.0527 47.27 69.003 47.27 70.6293H68.5266C68.5266 69.003 64.052 68.0527 57.8985 68.0527Z" fill="black"/>
<defs>
<linearGradient id="paint0_linear_2257_34320" x1="57.6735" y1="-17.2736" x2="57.6735" y2="90.6887" gradientUnits="userSpaceOnUse">
<stop stop-color="#FFB1B1"/>
<stop offset="1" stop-color="#FFDD52"/>
</linearGradient>
</defs>
</svg>
