<svg width="42" height="41" viewBox="0 0 42 41" fill="none" xmlns="http://www.w3.org/2000/svg">
<rect x="0.70459" width="41" height="41" rx="6.72131" fill="#FFF4CC"/>
<g clip-path="url(#clip0_823_1114)">
<path d="M18.6111 18.3759C18.6262 18.17 18.7977 18.0107 19.0041 18.0107H24.73C24.9386 18.0107 25.1111 18.1733 25.1234 18.3815L25.6768 27.7206C25.6948 28.0249 25.3754 28.2336 25.104 28.0948L22.0457 26.5313C21.9349 26.4747 21.8039 26.4737 21.6923 26.5286L18.4892 28.1046C18.2159 28.2391 17.8998 28.0258 17.9222 27.722L18.6111 18.3759Z" fill="#43C7FF"/>
<mask id="mask0_823_1114" style="mask-type:alpha" maskUnits="userSpaceOnUse" x="17" y="18" width="9" height="11">
<path d="M18.6111 18.3759C18.6262 18.17 18.7977 18.0107 19.0041 18.0107H24.73C24.9386 18.0107 25.1111 18.1733 25.1234 18.3815L25.6768 27.7206C25.6948 28.0249 25.3754 28.2336 25.104 28.0948L22.0457 26.5313C21.9349 26.4747 21.8039 26.4737 21.6923 26.5286L18.4892 28.1046C18.2159 28.2391 17.8998 28.0258 17.9222 27.722L18.6111 18.3759Z" fill="#43C7FF"/>
</mask>
<g mask="url(#mask0_823_1114)">
<path d="M20.6273 18.4045H22.9732L23.2212 28.6512H20.3682L20.6273 18.4045Z" fill="url(#paint0_linear_823_1114)"/>
</g>
<path d="M11.791 15.1576C11.915 14.9926 12.1454 14.9512 12.319 15.0628L17.1364 18.1577C17.3119 18.2705 17.3692 18.5004 17.267 18.6823L12.6848 26.8387C12.5355 27.1045 12.1539 27.1074 12.0006 26.844L10.2726 23.8755C10.21 23.768 10.1004 23.6964 9.97676 23.6822L6.43002 23.2769C6.12734 23.2423 5.97669 22.892 6.15975 22.6485L11.791 15.1576Z" fill="#FF8368"/>
<mask id="mask1_823_1114" style="mask-type:alpha" maskUnits="userSpaceOnUse" x="6" y="15" width="12" height="13">
<path d="M11.791 15.1576C11.915 14.9926 12.1454 14.9512 12.319 15.0628L17.1364 18.1577C17.3119 18.2705 17.3692 18.5004 17.267 18.6823L12.6848 26.8387C12.5355 27.1045 12.1539 27.1074 12.0006 26.844L10.2726 23.8755C10.21 23.768 10.1004 23.6964 9.97676 23.6822L6.43002 23.2769C6.12734 23.2423 5.97669 22.892 6.15975 22.6485L11.791 15.1576Z" fill="#43C7FF"/>
</mask>
<g mask="url(#mask1_823_1114)">
<path d="M13.4714 16.2716L15.4451 17.5396L10.1154 26.2946L7.715 24.7525L13.4714 16.2716Z" fill="url(#paint1_linear_823_1114)"/>
</g>
<path d="M31.5371 15.1576C31.4131 14.9926 31.1828 14.9512 31.0091 15.0628L26.1917 18.1577C26.0162 18.2705 25.9589 18.5004 26.0611 18.6823L30.6434 26.8387C30.7927 27.1045 31.1742 27.1074 31.3276 26.844L33.0555 23.8755C33.1181 23.768 33.2278 23.6964 33.3514 23.6822L36.8981 23.2769C37.2008 23.2423 37.3514 22.892 37.1684 22.6485L31.5371 15.1576Z" fill="#61DB6A"/>
<mask id="mask2_823_1114" style="mask-type:alpha" maskUnits="userSpaceOnUse" x="26" y="15" width="12" height="13">
<path d="M31.5371 15.1576C31.4131 14.9926 31.1828 14.9512 31.0091 15.0628L26.1917 18.1577C26.0162 18.2705 25.9589 18.5004 26.0611 18.6823L30.6434 26.8387C30.7927 27.1045 31.1742 27.1074 31.3276 26.844L33.0555 23.8755C33.1181 23.768 33.2278 23.6964 33.3514 23.6822L36.8981 23.2769C37.2008 23.2423 37.3514 22.892 37.1684 22.6485L31.5371 15.1576Z" fill="#43C7FF"/>
</mask>
<g mask="url(#mask2_823_1114)">
<path d="M29.8567 16.2716L27.883 17.5396L33.2127 26.2946L35.6131 24.7525L29.8567 16.2716Z" fill="url(#paint2_linear_823_1114)"/>
</g>
<mask id="mask3_823_1114" style="mask-type:alpha" maskUnits="userSpaceOnUse" x="6" y="15" width="32" height="14">
<path d="M18.6111 18.3759C18.6262 18.17 18.7977 18.0107 19.0041 18.0107H24.73C24.9386 18.0107 25.1111 18.1733 25.1234 18.3815L25.6768 27.7206C25.6948 28.0249 25.3754 28.2336 25.104 28.0948L22.0457 26.5313C21.9349 26.4747 21.8039 26.4737 21.6923 26.5286L18.4892 28.1046C18.2159 28.2391 17.8998 28.0258 17.9222 27.722L18.6111 18.3759Z" fill="#43C7FF"/>
<mask id="mask4_823_1114" style="mask-type:alpha" maskUnits="userSpaceOnUse" x="17" y="18" width="9" height="11">
<path d="M18.6111 18.3759C18.6262 18.17 18.7977 18.0107 19.0041 18.0107H24.73C24.9386 18.0107 25.1111 18.1733 25.1234 18.3815L25.6768 27.7206C25.6948 28.0249 25.3754 28.2336 25.104 28.0948L22.0457 26.5313C21.9349 26.4747 21.8039 26.4737 21.6923 26.5286L18.4892 28.1046C18.2159 28.2391 17.8998 28.0258 17.9222 27.722L18.6111 18.3759Z" fill="#43C7FF"/>
</mask>
<g mask="url(#mask4_823_1114)">
<path d="M20.6273 18.4045H22.9732L23.2212 28.6512H20.3682L20.6273 18.4045Z" fill="url(#paint3_linear_823_1114)"/>
</g>
<path d="M11.791 15.1576C11.915 14.9926 12.1454 14.9512 12.319 15.0628L17.1364 18.1577C17.3119 18.2705 17.3692 18.5004 17.267 18.6823L12.6848 26.8387C12.5355 27.1045 12.1539 27.1074 12.0006 26.844L10.2726 23.8755C10.21 23.768 10.1004 23.6964 9.97676 23.6822L6.43002 23.2769C6.12734 23.2423 5.97669 22.892 6.15975 22.6485L11.791 15.1576Z" fill="#FF8368"/>
<mask id="mask5_823_1114" style="mask-type:alpha" maskUnits="userSpaceOnUse" x="6" y="15" width="12" height="13">
<path d="M11.791 15.1576C11.915 14.9926 12.1454 14.9512 12.319 15.0628L17.1364 18.1577C17.3119 18.2705 17.3692 18.5004 17.267 18.6823L12.6848 26.8387C12.5355 27.1045 12.1539 27.1074 12.0006 26.844L10.2726 23.8755C10.21 23.768 10.1004 23.6964 9.97676 23.6822L6.43002 23.2769C6.12734 23.2423 5.97669 22.892 6.15975 22.6485L11.791 15.1576Z" fill="#43C7FF"/>
</mask>
<g mask="url(#mask5_823_1114)">
<path d="M13.4714 16.2716L15.4451 17.5396L10.1154 26.2946L7.715 24.7525L13.4714 16.2716Z" fill="url(#paint4_linear_823_1114)"/>
</g>
<path d="M31.5371 15.1576C31.4131 14.9926 31.1828 14.9512 31.0091 15.0628L26.1917 18.1577C26.0162 18.2705 25.9589 18.5004 26.0611 18.6823L30.6434 26.8387C30.7927 27.1045 31.1742 27.1074 31.3276 26.844L33.0555 23.8755C33.1181 23.768 33.2278 23.6964 33.3514 23.6822L36.8981 23.2769C37.2008 23.2423 37.3514 22.892 37.1684 22.6485L31.5371 15.1576Z" fill="#61DB6A"/>
<mask id="mask6_823_1114" style="mask-type:alpha" maskUnits="userSpaceOnUse" x="26" y="15" width="12" height="13">
<path d="M31.5371 15.1576C31.4131 14.9926 31.1828 14.9512 31.0091 15.0628L26.1917 18.1577C26.0162 18.2705 25.9589 18.5004 26.0611 18.6823L30.6434 26.8387C30.7927 27.1045 31.1742 27.1074 31.3276 26.844L33.0555 23.8755C33.1181 23.768 33.2278 23.6964 33.3514 23.6822L36.8981 23.2769C37.2008 23.2423 37.3514 22.892 37.1684 22.6485L31.5371 15.1576Z" fill="#43C7FF"/>
</mask>
<g mask="url(#mask6_823_1114)">
<path d="M29.8567 16.2716L27.883 17.5396L33.2127 26.2946L35.6131 24.7525L29.8567 16.2716Z" fill="url(#paint5_linear_823_1114)"/>
</g>
</mask>
<g mask="url(#mask3_823_1114)">
<g style="mix-blend-mode:multiply">
<path d="M13.9487 14.9381C15.1253 17.1945 18.393 18.7304 22.9767 18.7304C27.6484 18.7304 31.1808 17.1349 32.1371 14.8074" stroke="#969696" stroke-width="3.92298" stroke-linecap="round"/>
</g>
</g>
<path d="M12.522 14.5814C13.6985 16.8378 16.9662 18.3737 21.5499 18.3737C26.2216 18.3737 29.754 16.7782 30.7103 14.4507" stroke="#C0AE71" stroke-width="1.42654" stroke-linecap="round"/>
</g>
<defs>
<linearGradient id="paint0_linear_823_1114" x1="21.7947" y1="18.4045" x2="21.7947" y2="28.6512" gradientUnits="userSpaceOnUse">
<stop stop-color="white"/>
<stop offset="0.85" stop-color="white" stop-opacity="0.34"/>
</linearGradient>
<linearGradient id="paint1_linear_823_1114" x1="14.4536" y1="16.9026" x2="8.9152" y2="25.5236" gradientUnits="userSpaceOnUse">
<stop stop-color="white"/>
<stop offset="0.85" stop-color="white" stop-opacity="0.34"/>
</linearGradient>
<linearGradient id="paint2_linear_823_1114" x1="28.8745" y1="16.9026" x2="34.4129" y2="25.5236" gradientUnits="userSpaceOnUse">
<stop stop-color="white"/>
<stop offset="0.85" stop-color="white" stop-opacity="0.34"/>
</linearGradient>
<linearGradient id="paint3_linear_823_1114" x1="21.7947" y1="18.4045" x2="21.7947" y2="28.6512" gradientUnits="userSpaceOnUse">
<stop stop-color="white"/>
<stop offset="0.85" stop-color="white" stop-opacity="0.34"/>
</linearGradient>
<linearGradient id="paint4_linear_823_1114" x1="14.4536" y1="16.9026" x2="8.9152" y2="25.5236" gradientUnits="userSpaceOnUse">
<stop stop-color="white"/>
<stop offset="0.85" stop-color="white" stop-opacity="0.34"/>
</linearGradient>
<linearGradient id="paint5_linear_823_1114" x1="28.8745" y1="16.9026" x2="34.4129" y2="25.5236" gradientUnits="userSpaceOnUse">
<stop stop-color="white"/>
<stop offset="0.85" stop-color="white" stop-opacity="0.34"/>
</linearGradient>
<clipPath id="clip0_823_1114">
<rect width="31.9262" height="31.9262" fill="white" transform="translate(5.41016 5.04102)"/>
</clipPath>
</defs>
</svg>
