<svg width="64" height="64" viewBox="0 0 115 115" fill="none" xmlns="http://www.w3.org/2000/svg">
<circle cx="57.5" cy="57.5" r="57.5" fill="#C8EEFF"/>
<g clip-path="url(#clip0_2257_34317)">
<ellipse cx="56.1153" cy="77.7788" rx="34.0421" ry="13.2632" fill="#FFD075"/>
<rect x="60.9746" y="50.6479" width="5.30526" height="28.2947" rx="2.65263" transform="rotate(14.9285 60.9746 50.6479)" fill="black"/>
<path fill-rule="evenodd" clip-rule="evenodd" d="M72.9902 25.7013C82.5755 29.3532 96.5371 38.5814 99.0724 55.3159C99.261 56.5611 98.033 57.5608 96.7768 57.4716C94.4912 57.3094 91.5197 57.704 89.0546 59.6642C88.3917 60.1913 87.4699 60.3232 86.7062 59.9572C83.3403 58.3442 77.2221 56.8934 71.5238 60.0902C70.7887 60.5027 69.861 60.4344 69.2072 59.9023C67.5645 58.5655 65.0405 56.921 62.3304 56.1253C59.5829 55.4652 56.5735 55.6349 54.4824 55.9766C53.6504 56.1125 52.8119 55.71 52.3797 54.9863C49.0292 49.3769 43.0008 47.5894 39.2787 47.3126C38.4341 47.2497 37.7003 46.6765 37.3878 45.8893C36.2258 42.962 33.8452 41.1406 31.7821 40.1433C30.6483 39.5953 30.0809 38.1169 30.8644 37.1309C41.3942 23.8799 58.0966 22.8271 68.2276 24.4317C68.4496 24.3547 68.696 24.341 68.9395 24.406C69.4814 24.5426 70.0556 24.7043 70.6569 24.8917C71.2708 25.0284 71.8485 25.1738 72.3859 25.3249C72.6293 25.3898 72.8361 25.5242 72.9902 25.7013Z" fill="#43C7FF"/>
<mask id="mask0_2257_34317" style="mask-type:alpha" maskUnits="userSpaceOnUse" x="30" y="23" width="70" height="38">
<path fill-rule="evenodd" clip-rule="evenodd" d="M72.9902 25.7013C82.5755 29.3532 96.5371 38.5814 99.0724 55.3159C99.261 56.5611 98.033 57.5608 96.7768 57.4716C94.4912 57.3094 91.5197 57.704 89.0546 59.6642C88.3917 60.1913 87.4699 60.3232 86.7062 59.9572C83.3403 58.3442 77.2221 56.8934 71.5238 60.0902C70.7887 60.5027 69.861 60.4344 69.2072 59.9023C67.5645 58.5655 65.0405 56.921 62.3304 56.1253C59.5829 55.4652 56.5735 55.6349 54.4824 55.9766C53.6504 56.1125 52.8119 55.71 52.3797 54.9863C49.0292 49.3769 43.0008 47.5894 39.2787 47.3126C38.4341 47.2497 37.7003 46.6765 37.3878 45.8893C36.2258 42.962 33.8452 41.1406 31.7821 40.1433C30.6483 39.5953 30.0809 38.1169 30.8644 37.1309C41.3942 23.8799 58.0966 22.8271 68.2276 24.4317C68.4496 24.3547 68.696 24.341 68.9395 24.406C69.4814 24.5426 70.0556 24.7043 70.6569 24.8917C71.2708 25.0284 71.8485 25.1738 72.3859 25.3249C72.6293 25.3898 72.8361 25.5242 72.9902 25.7013Z" fill="#43C7FF"/>
</mask>
<g mask="url(#mask0_2257_34317)">
<path d="M36.983 48.3043C42.8416 32.1218 61.1036 26.704 69.7727 26.0181C69.8124 26.015 69.8504 26.0188 69.8889 26.0291C70.1889 26.1091 70.2524 26.5143 69.9982 26.6927C62.2785 32.1114 56.3159 47.9919 53.7258 57.2358C53.4056 58.3786 52.0879 58.9192 51.0692 58.3102L37.7329 50.3368C37.0331 49.9184 36.7055 49.071 36.983 48.3043Z" fill="white"/>
<path d="M88.5028 62.04C91.4781 45.0888 78.3372 31.2985 71.1602 26.3879C71.1273 26.3654 71.0924 26.3498 71.054 26.3396C70.7539 26.2596 70.4972 26.5794 70.6288 26.8607C74.6262 35.4033 71.8915 52.1444 69.5359 61.4508C69.2447 62.6013 70.1184 63.7262 71.305 63.7051L86.8407 63.4294C87.6559 63.4149 88.3619 62.8431 88.5028 62.04Z" fill="white"/>
</g>
<rect x="69.1743" y="19.8906" width="5.30526" height="7.9579" rx="2.65263" transform="rotate(14.9285 69.1743 19.8906)" fill="black"/>
<path d="M33.6331 74.3615C33.1796 73.4232 34.6762 72.5591 36.3014 72.8209L39.3575 73.3133C39.9638 73.411 40.6137 73.3516 41.138 73.1505L43.781 72.137C45.1864 71.598 47.0724 72.1528 47.1432 73.1261L47.2765 74.9563C47.303 75.3194 47.6017 75.6579 48.0949 75.8836L50.5812 77.0217C51.9034 77.6269 51.5723 78.8339 49.9909 79.1735L47.0172 79.8123C46.4272 79.939 45.962 80.2076 45.7425 80.5482L44.6361 82.2651C44.0478 83.1781 41.9572 83.3693 40.909 82.6059L38.9379 81.1705C38.5468 80.8857 37.9605 80.7132 37.3317 80.698L34.1616 80.621C32.4758 80.5801 31.5149 79.4912 32.4484 78.6798L34.2039 77.1539C34.5522 76.8512 34.6551 76.4759 34.4859 76.1259L33.6331 74.3615Z" fill="#FF8368"/>
<mask id="mask1_2257_34317" style="mask-type:alpha" maskUnits="userSpaceOnUse" x="22" y="64" width="69" height="28">
<ellipse cx="56.1158" cy="77.7788" rx="34.0421" ry="13.2632" fill="#FFD075"/>
</mask>
<g mask="url(#mask1_2257_34317)">
<g style="mix-blend-mode:multiply">
<ellipse cx="72.0319" cy="77.7788" rx="34.0421" ry="13.2632" fill="url(#paint0_linear_2257_34317)"/>
</g>
</g>
</g>
<defs>
<linearGradient id="paint0_linear_2257_34317" x1="54.3476" y1="75.1262" x2="100.769" y2="77.7788" gradientUnits="userSpaceOnUse">
<stop stop-color="#EABB5E"/>
<stop offset="1" stop-color="#EABB5E" stop-opacity="0"/>
</linearGradient>
<clipPath id="clip0_2257_34317">
<rect width="84" height="84" fill="white" transform="translate(15 15)"/>
</clipPath>
</defs>
</svg>
