<svg width="64" height="64" viewBox="0 0 115 115" fill="none" xmlns="http://www.w3.org/2000/svg">
<circle cx="57.5" cy="57.5" r="57.5" fill="#E3E3E3"/>
<path d="M55.0654 18.9681C55.0654 18.2417 55.6543 17.6528 56.3807 17.6528H58.485C59.2114 17.6528 59.8002 18.2417 59.8002 18.9681V33.4355C59.8002 34.1619 59.2114 34.7507 58.485 34.7507H56.3807C55.6543 34.7507 55.0654 34.1619 55.0654 33.4355V18.9681Z" fill="#B3B3B3"/>
<rect x="51.1201" y="24.6235" width="12.6261" height="18.9392" rx="1.89392" fill="#B3B3B3"/>
<rect x="47.9629" y="38.0391" width="18.9392" height="18.9392" rx="1.89392" fill="black"/>
<rect x="46.3857" y="57.7671" width="22.0958" height="23.674" rx="1.89392" fill="black"/>
<rect width="41.035" height="12.6261" rx="1.89392" transform="matrix(1 0 0 -1 36.916 90.2529)" fill="#929394"/>
<rect x="40.0713" y="91.042" width="4.73481" height="16.5718" rx="1.57827" transform="rotate(180 40.0713 91.042)" fill="#929394"/>
<rect x="80.3184" y="91.042" width="4.73481" height="16.5718" rx="1.57827" transform="rotate(180 80.3184 91.042)" fill="#929394"/>
<path fill-rule="evenodd" clip-rule="evenodd" d="M63.134 29.5767C63.783 29.5767 64.416 29.7772 64.9466 30.1509L74.857 37.1311H60.3771V37.1313H40.8613L50.6863 30.1577C51.2186 29.7798 51.8553 29.5768 52.5082 29.5768H55.9708V29.5767H63.134Z" fill="#B3B3B3"/>
<path fill-rule="evenodd" clip-rule="evenodd" d="M50.3411 45.1406C49.3303 45.1406 48.3617 44.7355 47.6519 44.0159L40.861 37.1309L55.7042 37.1309L74.8564 37.1309L68.0656 44.0159C67.3558 44.7355 66.3871 45.1406 65.3763 45.1406L60.0132 45.1406L60.0132 45.1406L50.3411 45.1406Z" fill="url(#paint0_linear_2257_34332)"/>
<path fill-rule="evenodd" clip-rule="evenodd" d="M49.6523 50.665C48.7447 50.665 47.8674 50.991 47.1801 51.5836L37.7061 59.7516H55.8792H61.1797H78.5956L69.444 51.6208C68.751 51.0051 67.8563 50.665 66.9293 50.665H61.1797H55.8792H49.6523Z" fill="#B3B3B3"/>
<path fill-rule="evenodd" clip-rule="evenodd" d="M49.1089 69.3862C47.8931 69.3862 46.728 68.8989 45.8743 68.0334L37.7061 59.7521L55.5593 59.7521L78.5957 59.7521L70.4276 68.0334C69.5738 68.8989 68.4087 69.3862 67.193 69.3862L60.7426 69.3862L60.7426 69.3862L49.1089 69.3862Z" fill="url(#paint1_linear_2257_34332)"/>
<defs>
<linearGradient id="paint0_linear_2257_34332" x1="59.6681" y1="37.131" x2="59.6681" y2="45.3298" gradientUnits="userSpaceOnUse">
<stop stop-color="#929292"/>
<stop offset="1" stop-color="#98A6AC"/>
</linearGradient>
<linearGradient id="paint1_linear_2257_34332" x1="60.3273" y1="59.7521" x2="60.3273" y2="69.6138" gradientUnits="userSpaceOnUse">
<stop stop-color="#929292"/>
<stop offset="1" stop-color="#98A6AC"/>
</linearGradient>
</defs>
</svg>
