<svg width="64" height="64" viewBox="0 0 115 115" fill="none" xmlns="http://www.w3.org/2000/svg">
<circle cx="57.5" cy="57.5" r="57.5" fill="#FFCFA2"/>
<path fill-rule="evenodd" clip-rule="evenodd" d="M57.5182 16.8374C46.2828 16.8374 37.1746 21.494 37.1746 27.2383C37.1746 28.2477 37.4559 29.2236 37.9806 30.1465C30.5433 34.2963 25.7622 40.7607 25.7622 48.0224C25.7622 60.5447 39.9797 70.6961 57.5179 70.6961C75.0561 70.6961 89.2736 60.5447 89.2736 48.0224C89.2736 40.7608 84.4927 34.2965 77.0557 30.1467C77.5804 29.2238 77.8618 28.2478 77.8618 27.2383C77.8618 21.494 68.7536 16.8374 57.5182 16.8374Z" fill="url(#paint0_linear_2257_34323)"/>
<path fill-rule="evenodd" clip-rule="evenodd" d="M70.6649 77.6943H44.3721V84.2164V84.2675H44.3736C44.4829 86.0591 50.3262 87.503 57.5185 87.503C64.7108 87.503 70.5541 86.0591 70.6633 84.2675H70.6649V84.2164V77.6943Z" fill="#EF7054"/>
<path d="M87.4414 61.2431C87.4414 75.0713 74.8601 83.8385 57.8262 83.8385C40.7922 83.8385 26.9834 75.0713 26.9834 61.2431C26.9834 47.4149 33.0903 33.7622 57.8262 33.7622C79.5024 33.7622 87.4414 47.4149 87.4414 61.2431Z" fill="#FF8368"/>
<mask id="mask0_2257_34323" style="mask-type:alpha" maskUnits="userSpaceOnUse" x="26" y="33" width="62" height="51">
<path d="M87.4414 61.2436C87.4414 75.0718 74.8601 83.839 57.8262 83.839C40.7922 83.839 26.9834 75.0718 26.9834 61.2436C26.9834 47.4154 33.0903 33.7627 57.8262 33.7627C79.5024 33.7627 87.4414 47.4154 87.4414 61.2436Z" fill="#FF8368"/>
</mask>
<g mask="url(#mask0_2257_34323)">
<g style="mix-blend-mode:multiply">
<ellipse cx="61.5126" cy="46.7055" rx="35.7509" ry="21.7221" fill="url(#paint1_linear_2257_34323)"/>
</g>
</g>
<path fill-rule="evenodd" clip-rule="evenodd" d="M86.824 54.1143C87.3208 52.7906 87.3627 51.085 86.8309 49.3669C86.1016 47.0107 84.4956 45.2834 82.803 44.7983C82.9625 43.2894 82.4414 41.4763 81.2548 39.8821C79.6103 37.6727 77.1963 36.567 75.3348 37.0034C75.4689 35.1397 73.9414 33.0372 71.5033 31.7413C70.1886 31.0425 68.8289 30.695 67.6249 30.7042C66.8571 29.1522 64.8217 27.9702 62.3294 27.6824C60.379 27.4573 58.5789 27.8294 57.3615 28.6424C56.1441 27.8294 54.3439 27.4573 52.3936 27.6824C49.8256 27.9789 47.7426 29.2248 47.0316 30.8467C45.5855 30.4939 43.7259 30.7966 41.9485 31.7413C39.5499 33.0163 38.0326 35.0718 38.1118 36.9127C36.3708 36.8425 34.3207 37.9327 32.8697 39.8821C31.6777 41.4836 31.1572 43.3061 31.3237 44.8191C29.6571 45.3312 28.0851 47.0433 27.3659 49.3669C26.7214 51.4491 26.9194 53.5129 27.7489 54.9008C29.2055 59.4964 40.7996 63.0755 56.8815 63.0755C73.8701 63.0755 86.4949 59.0814 86.824 54.1143Z" fill="white"/>
<defs>
<linearGradient id="paint0_linear_2257_34323" x1="57.5179" y1="38.1971" x2="57.5179" y2="13.5238" gradientUnits="userSpaceOnUse">
<stop stop-color="white" stop-opacity="0.48"/>
<stop offset="1" stop-color="white" stop-opacity="0"/>
</linearGradient>
<linearGradient id="paint1_linear_2257_34323" x1="51.7495" y1="63.27" x2="92.5714" y2="69.96" gradientUnits="userSpaceOnUse">
<stop stop-color="#EEB5A8"/>
<stop offset="1" stop-color="#EEB5A8" stop-opacity="0"/>
</linearGradient>
</defs>
</svg>
