<svg width="64" height="64" viewBox="0 0 115 115" fill="none" xmlns="http://www.w3.org/2000/svg">
<circle cx="57.5" cy="57.5" r="57.5" fill="white"/>
<path d="M41.4236 37.6961C50.2485 28.768 64.5565 28.768 73.3814 37.6961C82.2062 46.6242 82.2062 61.0995 73.3814 70.0275L60.7568 82.7997C60.3164 83.2454 59.7934 83.5989 59.2179 83.8401C58.6423 84.0814 58.0255 84.2055 57.4025 84.2055C56.7795 84.2055 56.1627 84.0814 55.5871 83.8401C55.0116 83.5989 54.4886 83.2454 54.0481 82.7997L41.4236 70.0275C32.5988 61.0995 32.5988 46.6242 41.4236 37.6961ZM57.4025 62.175C61.9409 62.175 65.6198 58.453 65.6198 53.8617C65.6198 49.2703 61.9409 45.5483 57.4025 45.5483C52.8642 45.5483 49.1853 49.2703 49.1853 53.8617C49.1853 58.453 52.8642 62.175 57.4025 62.175Z" fill="url(#paint0_linear_2257_34338)"/>
<defs>
<linearGradient id="paint0_linear_2257_34338" x1="57.4025" y1="31" x2="57.4025" y2="84.2055" gradientUnits="userSpaceOnUse">
<stop stop-color="#43C7FF"/>
<stop offset="1" stop-color="#7DD8FF"/>
</linearGradient>
</defs>
</svg>
