<svg width="64" height="64" viewBox="0 0 115 115" fill="none" xmlns="http://www.w3.org/2000/svg">
<circle cx="57.5" cy="57.5" r="57.5" fill="#E3CCFF"/>
<path fill-rule="evenodd" clip-rule="evenodd" d="M69.1378 15.8843C68.7036 15.8843 68.3337 16.1995 68.2648 16.6282L66.9633 24.7264H63.6317C62.6551 24.7264 61.8633 25.5181 61.8633 26.4948V31.8001H57.4422C56.4656 31.8001 55.6738 32.5918 55.6738 33.5685V83.0843C55.6738 84.061 56.4656 84.8527 57.4422 84.8527H81.3159C82.2926 84.8527 83.0844 84.061 83.0844 83.0843V33.5685C83.0844 32.5918 82.2926 31.8001 81.3159 31.8001H76.8949V26.4948C76.8949 25.5181 76.1031 24.7264 75.1265 24.7264H71.9686L70.8139 16.6434C70.7516 16.2078 70.3786 15.8843 69.9385 15.8843H69.1378Z" fill="url(#paint0_linear_2257_34335)"/>
<rect x="60.9795" y="36.9727" width="5.57053" height="5.57053" rx="0.884211" fill="#E3CCFF"/>
<rect x="71.3252" y="44.9307" width="5.57053" height="5.57053" rx="0.884211" fill="#E3CCFF"/>
<path d="M34.4525 52.9878C34.8781 48.123 39.5216 44.1793 44.824 44.1793C50.1265 44.1793 54.0799 48.123 53.6543 52.9878" stroke="#FF85DD" stroke-width="2.65263" stroke-linecap="round"/>
<path d="M28.5331 53.6488C28.6324 52.8059 29.3218 52.1803 30.1722 52.1613L53.9045 51.6315L51.4328 87.3985L26.69 86.0562C25.6404 85.9992 24.8322 85.0448 24.9546 84.0066L28.5331 53.6488Z" fill="#FF85DD"/>
<path d="M51.908 51.6447L58.1322 51.6447C59.0055 51.6447 59.7102 52.2874 59.7889 53.1555L62.5868 84.0184C62.6749 84.9905 61.9519 85.8945 60.9758 86.0328L51.252 87.4098L51.908 51.6447Z" fill="url(#paint1_linear_2257_34335)"/>
<g style="mix-blend-mode:overlay">
<mask id="mask0_2257_34335" style="mask-type:alpha" maskUnits="userSpaceOnUse" x="24" y="51" width="39" height="37">
<path d="M28.5331 53.6484C28.6324 52.8054 29.3218 52.1798 30.1722 52.1608L53.9045 51.631L51.4328 87.398L26.69 86.0557C25.6404 85.9987 24.8322 85.0443 24.9546 84.0061L28.5331 53.6484Z" fill="#FF85DD"/>
<path d="M51.908 51.6442L58.1322 51.6442C59.0055 51.6442 59.7102 52.2869 59.7889 53.155L62.5868 84.0179C62.6749 84.99 61.9519 85.8941 60.9758 86.0323L51.252 87.4093L51.908 51.6442Z" fill="url(#paint2_linear_2257_34335)"/>
</mask>
<g mask="url(#mask0_2257_34335)">
<path fill-rule="evenodd" clip-rule="evenodd" d="M61.4557 57.4419L51.2518 58.3261V58.3337L25.1997 58.5586L22.957 63.6313H51.2518V63.6314L51.2524 63.6313H51.7072L51.7126 63.5642L61.8623 62.084L61.4557 57.4419ZM51.252 79.5439L51.2518 79.5472L62.3044 77.3366L61.8623 71.5893L51.7432 72.9091L25.1673 72.4735L23.7972 78.6824L51.2516 79.5472L51.252 79.5439Z" fill="white"/>
</g>
</g>
<defs>
<linearGradient id="paint0_linear_2257_34335" x1="69.3791" y1="15.8843" x2="69.3791" y2="95.4632" gradientUnits="userSpaceOnUse">
<stop/>
<stop offset="1" stop-color="#1C0285" stop-opacity="0.71"/>
</linearGradient>
<linearGradient id="paint1_linear_2257_34335" x1="56.0795" y1="51.0707" x2="59.8756" y2="107.061" gradientUnits="userSpaceOnUse">
<stop offset="0.196181" stop-color="#E761C1"/>
<stop offset="0.66358" stop-color="#FF85DD"/>
</linearGradient>
<linearGradient id="paint2_linear_2257_34335" x1="56.0795" y1="51.0702" x2="59.8756" y2="107.06" gradientUnits="userSpaceOnUse">
<stop offset="0.196181" stop-color="#E761C1"/>
<stop offset="0.66358" stop-color="#FF85DD"/>
</linearGradient>
</defs>
</svg>
