<svg width="24" height="24" viewBox="0 0 24 24" fill="none" xmlns="http://www.w3.org/2000/svg">
<path d="M4.9 19.3001C4.9 19.5122 4.98429 19.7157 5.13432 19.8658C5.28434 20.0158 5.48783 20.1001 5.7 20.1001L12.65 20.1001C12.6776 20.1001 12.7 20.1224 12.7 20.1501C12.7 20.1777 12.6776 20.2001 12.65 20.2001L5 20.2001C4.88954 20.2001 4.8 20.1105 4.8 20.0001V16.0001C4.8 14.5812 5.36533 13.5097 6.26307 12.7773C7.1778 12.0311 8.48732 11.6001 10 11.6001H14C14.9326 11.6001 15.8057 11.8449 16.561 12.2732C16.5575 12.2761 16.5534 12.279 16.5487 12.2819L16.9554 12.9425L16.5487 12.2819C16.5364 12.2895 16.5142 12.2987 16.4743 12.2983C16.4319 12.2979 16.3763 12.2861 16.318 12.2562C15.6216 11.9004 14.833 11.7001 14 11.7001H10C8.69997 11.7001 7.43941 12.0063 6.48233 12.7173C5.49519 13.4508 4.9 14.567 4.9 16.0001V19.3001Z" stroke="black" stroke-width="1.6" stroke-linejoin="round"/>
<path d="M20.6379 19.7307L18.1378 17.2308M18.1378 17.2308L15.6379 14.7307M18.1378 17.2308L15.6379 19.7307M18.1378 17.2308L20.6379 14.7307" stroke="black" stroke-width="1.6" stroke-linecap="round"/>
<path d="M15.2 6C15.2 7.76731 13.7673 9.2 12 9.2C10.2327 9.2 8.8 7.76731 8.8 6C8.8 4.23269 10.2327 2.8 12 2.8C13.7673 2.8 15.2 4.23269 15.2 6Z" stroke="black" stroke-width="1.6"/>
</svg>
