<svg width="42" height="41" viewBox="0 0 42 41" fill="none" xmlns="http://www.w3.org/2000/svg">
<rect x="0.205078" width="41" height="41" rx="6.72131" fill="#E3E3E3"/>
<path d="M20.1377 6.54908C20.1377 6.273 20.3615 6.04919 20.6376 6.04919H21.4374C21.7135 6.04919 21.9373 6.273 21.9373 6.54908V12.0478C21.9373 12.3239 21.7135 12.5477 21.4374 12.5477H20.6376C20.3615 12.5477 20.1377 12.3239 20.1377 12.0478V6.54908Z" fill="#B3B3B3"/>
<rect x="18.6382" y="8.69861" width="4.79887" height="7.19831" rx="0.719831" fill="#B3B3B3"/>
<rect x="17.438" y="13.7974" width="7.19831" height="7.19831" rx="0.719831" fill="black"/>
<rect x="16.8384" y="21.2955" width="8.39803" height="8.99788" rx="0.719831" fill="black"/>
<rect width="15.5963" height="4.79887" rx="0.719831" transform="matrix(1 0 0 -1 13.2393 33.6427)" fill="#929394"/>
<rect x="14.439" y="33.9427" width="1.79958" height="6.29852" rx="0.599859" transform="rotate(180 14.439 33.9427)" fill="#929394"/>
<rect x="29.7354" y="33.9427" width="1.79958" height="6.29852" rx="0.599859" transform="rotate(180 29.7354 33.9427)" fill="#929394"/>
<path fill-rule="evenodd" clip-rule="evenodd" d="M19.1654 10.5812C18.9173 10.5812 18.6753 10.6583 18.473 10.8019L14.7388 13.4524H20.4813V13.4525H27.6595L23.8928 10.7995C23.6911 10.6574 23.4505 10.5812 23.2039 10.5812H22.1562V10.5812H19.1654Z" fill="#B3B3B3"/>
<path fill-rule="evenodd" clip-rule="evenodd" d="M18.342 16.4968C17.9579 16.4968 17.5897 16.3428 17.3199 16.0693L14.7389 13.4525L20.3804 13.4525L20.3804 13.4525L27.6597 13.4525L25.0786 16.0693C24.8088 16.3428 24.4407 16.4968 24.0565 16.4968L22.0181 16.4968L22.0181 16.4968L18.342 16.4968Z" fill="url(#paint0_linear_823_1116)"/>
<path fill-rule="evenodd" clip-rule="evenodd" d="M18.0795 18.5963C17.7346 18.5963 17.4011 18.7202 17.1399 18.9454L13.5391 22.0499H20.4463V22.0499H29.0802L25.6019 18.9596C25.3385 18.7256 24.9985 18.5964 24.6462 18.5964H22.4608V18.5963H18.0795Z" fill="#B3B3B3"/>
<path fill-rule="evenodd" clip-rule="evenodd" d="M17.8729 25.7117C17.4108 25.7117 16.968 25.5265 16.6435 25.1975L13.539 22.05L20.3245 22.05L20.3245 22.0499L29.0801 22.0499L25.9756 25.1974C25.6511 25.5264 25.2083 25.7116 24.7462 25.7116L22.2945 25.7116L22.2945 25.7117L17.8729 25.7117Z" fill="url(#paint1_linear_823_1116)"/>
<defs>
<linearGradient id="paint0_linear_823_1116" x1="21.887" y1="13.4526" x2="21.887" y2="16.5687" gradientUnits="userSpaceOnUse">
<stop stop-color="#929292"/>
<stop offset="1" stop-color="#98A6AC"/>
</linearGradient>
<linearGradient id="paint1_linear_823_1116" x1="22.1367" y1="22.05" x2="22.1367" y2="25.7981" gradientUnits="userSpaceOnUse">
<stop stop-color="#929292"/>
<stop offset="1" stop-color="#98A6AC"/>
</linearGradient>
</defs>
</svg>
