<svg width="248" height="39" viewBox="0 0 248 39" fill="none" xmlns="http://www.w3.org/2000/svg">
<rect y="8" width="248" height="31" rx="3" fill="#43C7FF"/>
<g clip-path="url(#clip0_1294_16342)">
<circle cx="18" cy="23.5" r="5.85" stroke="white" stroke-width="1.3"/>
<path d="M18.7197 19.8018L18.6016 25.291H17.3877L17.2588 19.8018H18.7197ZM18 27.665C17.5381 27.665 17.1621 27.2891 17.1621 26.8271C17.1621 26.376 17.5381 26 18 26C18.4404 26 18.8271 26.376 18.8271 26.8271C18.8271 27.2891 18.4404 27.665 18 27.665Z" fill="white"/>
</g>
<path d="M29.9219 28H28.7285L32.0928 18.8086H33.2988L36.6631 28H35.457L34.543 25.4102H30.8486L29.9219 28ZM31.1914 24.4072H34.1875L32.7275 20.2939H32.6514L31.1914 24.4072ZM39.0498 18.8086V28H37.9072V18.8086H39.0498ZM49.3486 22.2362H51.1127V23.2462H49.3486V29.0639H48.1411V17.7023H49.3486V22.2362ZM40.4919 26.0338C43.3379 24.6153 44.8896 22.5714 45.1469 19.9019H41.062V18.9054H46.3724C46.3664 20.6351 45.946 22.1913 45.111 23.5739C44.2761 24.9535 42.9608 26.0847 41.1652 26.9675L40.4919 26.0338ZM60.804 18.856C60.801 20.068 60.6484 21.1738 60.3462 22.1733C60.0439 23.1729 59.5112 24.1036 58.7481 24.9655C57.988 25.8273 56.945 26.586 55.6193 27.2414L54.9549 26.3346C55.9605 25.8408 56.7849 25.2902 57.4283 24.6827C58.0747 24.0752 58.5715 23.4003 58.9187 22.6581L55.1973 23.0083L55.0268 21.9669L59.2823 21.6885C59.4469 21.1319 59.5531 20.5154 59.601 19.8391H55.6103V18.856H60.804ZM62.5502 17.7023H63.7578V22.2452H65.5219V23.2372H63.7578V29.0639H62.5502V17.7023ZM70.787 20.0097H67.6896V22.1105H70.2842V23.0487H67.6896V25.4323C68.4707 25.4263 69.129 25.4039 69.6647 25.365C70.2034 25.3231 70.754 25.2498 71.3167 25.145L71.4289 26.1236C70.8214 26.2433 70.2288 26.3211 69.6513 26.357C69.0737 26.39 68.2806 26.4094 67.2721 26.4154H66.5404V19.0445H70.787V20.0097ZM70.8767 21.9624H72.4165V17.9492H73.5522V28.5073H72.4165V22.9544H70.8767V21.9624ZM74.7417 17.7023H75.9089V29.0773H74.7417V17.7023ZM86.5696 19.9109C86.5666 20.5633 86.5577 21.1229 86.5427 21.5898C86.5277 22.0536 86.4888 22.5953 86.426 23.2148C86.3661 23.8343 86.2689 24.5046 86.1342 25.2258L84.9222 25.0912C85.0539 24.4268 85.1511 23.7998 85.214 23.2103C85.2798 22.6177 85.3202 22.091 85.3352 21.6302C85.3531 21.1693 85.3636 20.6291 85.3666 20.0097V19.9109V19.7762H78.4581V18.7977H86.5696V19.9109ZM77.3673 26.5456H81.3086V22.5325H82.5026V26.5456H87.7367V27.5421H77.3673V26.5456ZM98.0384 29.0998H96.8443V17.7023H98.0384V29.0998ZM89.2311 18.7258H94.5595V22.8871H90.4835V25.374C91.4771 25.368 92.3928 25.3366 93.2307 25.2797C94.0687 25.2198 94.938 25.1151 95.8388 24.9655L95.951 25.962C95.0024 26.1176 94.0821 26.2254 93.1903 26.2852C92.3015 26.3421 91.311 26.3705 90.2186 26.3705H89.2445V21.9175H93.3385V19.7134H89.2311V18.7258ZM110.23 23.8477H99.82V22.923H110.23V23.8477ZM101.054 24.6423H108.951V27.1516H102.271V28.0898H109.305V28.9427H101.068V26.3481H107.756V25.5131H101.054V24.6423ZM101.126 17.9986H108.919V20.4586H102.352V21.3249H109.117V22.1733H101.158V19.664H107.716V18.847H101.126V17.9986ZM120.015 19.7583H116.02V25.3021C117.041 25.2962 117.903 25.2692 118.606 25.2213C119.309 25.1705 120.018 25.0777 120.734 24.943L120.868 25.9306C120.087 26.0772 119.315 26.1775 118.552 26.2314C117.792 26.2822 116.84 26.3077 115.697 26.3077H114.804V18.7617H120.015V19.7583ZM119.378 21.7693H122.538V17.7023H123.741V29.0998H122.538V22.7659H119.378V21.7693ZM132.611 19.4171C132.608 19.8511 132.719 20.27 132.943 20.674C133.168 21.075 133.491 21.4312 133.913 21.7424C134.335 22.0536 134.832 22.2916 135.403 22.4561L134.833 23.3898C134.187 23.2043 133.623 22.9185 133.141 22.5325C132.659 22.1464 132.288 21.6915 132.028 21.1678C131.776 21.7604 131.401 22.2736 130.901 22.7075C130.401 23.1415 129.807 23.4632 129.119 23.6727L128.526 22.73C129.11 22.5534 129.617 22.2975 130.048 21.9624C130.482 21.6272 130.814 21.2411 131.044 20.8042C131.278 20.3673 131.396 19.9109 131.399 19.4351V19.278H128.903V18.3128H135.058V19.278H132.611V19.4171ZM130.236 24.0587H137.594V26.8778H131.448V28.0314H137.98V28.9696H130.263V26.0069H136.395V24.9924H130.236V24.0587ZM136.386 17.7023H137.594V20.1084H139.241V21.096H137.594V23.5604H136.386V17.7023ZM153.457 24.6288H148.946V26.7206H147.752V24.6288H143.048V23.6592H153.457V24.6288ZM144.345 25.7241H145.539V27.8564H152.304V28.8439H144.345V25.7241ZM144.421 18.066H145.62V19.4351H150.89V18.066H152.088V22.6537H144.421V18.066ZM150.89 21.6885V20.3463H145.62V21.6885H150.89ZM164.693 25.4099H162.076V29.0773H160.864V25.4099H158.116V29.0773H156.913V25.4099H154.283V24.4537H164.693V25.4099ZM155.522 18.1108H163.458V21.1588H156.765V22.4113H163.71V23.3943H155.549V20.2521H162.228V19.0984H155.522V18.1108ZM174.397 22.3125H176.22V23.3135H174.397V29.0773H173.203V17.7023H174.397V22.3125ZM165.473 19.4845H168.279V17.8505H169.482V19.4845H172.211V20.4675H165.473V19.4845ZM166.057 23.9555C166.057 23.4437 166.178 22.9873 166.421 22.5863C166.663 22.1853 167 21.8726 167.431 21.6481C167.861 21.4207 168.348 21.307 168.889 21.307C169.425 21.307 169.907 21.4207 170.335 21.6481C170.766 21.8726 171.103 22.1868 171.345 22.5908C171.59 22.9918 171.713 23.4467 171.713 23.9555C171.713 24.4672 171.59 24.9236 171.345 25.3246C171.103 25.7256 170.766 26.0383 170.335 26.2628C169.907 26.4872 169.425 26.5994 168.889 26.5994C168.348 26.5994 167.861 26.4872 167.431 26.2628C167 26.0383 166.663 25.7256 166.421 25.3246C166.178 24.9236 166.057 24.4672 166.057 23.9555ZM167.211 23.9555C167.208 24.2787 167.278 24.5645 167.422 24.8128C167.565 25.0612 167.764 25.2543 168.019 25.3919C168.276 25.5266 168.566 25.5939 168.889 25.5939C169.207 25.5939 169.491 25.5266 169.742 25.3919C169.997 25.2543 170.196 25.0612 170.339 24.8128C170.486 24.5645 170.561 24.2787 170.564 23.9555C170.561 23.6352 170.486 23.3494 170.339 23.0981C170.196 22.8467 169.997 22.6522 169.742 22.5145C169.491 22.3738 169.207 22.3035 168.889 22.3035C168.566 22.3035 168.276 22.3738 168.019 22.5145C167.764 22.6522 167.565 22.8467 167.422 23.0981C167.278 23.3494 167.208 23.6352 167.211 23.9555ZM186.549 29.0773H185.404V17.7023H186.549V29.0773ZM176.727 25.7914C177.912 25.0882 178.811 24.2637 179.425 23.318C180.041 22.3724 180.4 21.3025 180.502 20.1084H177.265V19.1164H181.705C181.699 20.2715 181.53 21.3249 181.198 22.2766H183.007V17.9941H184.147V28.5252H183.007V23.2417H180.78C180.071 24.6213 178.952 25.757 177.422 26.6488L176.727 25.7914ZM200.392 23.9195H196.954V26.6892H201.591V27.6858H191.181V26.6892H195.759V23.9195H192.474V18.5867H200.293V19.5608H193.677V22.9544H200.392V23.9195ZM205.832 18.4206C206.41 18.4236 206.93 18.5403 207.394 18.7707C207.858 19.0012 208.222 19.3214 208.485 19.7314C208.752 20.1413 208.886 20.6082 208.889 21.1319C208.886 21.5928 208.78 22.0117 208.57 22.3888C208.364 22.7629 208.075 23.0711 207.704 23.3135C207.336 23.5559 206.914 23.7145 206.438 23.7894V25.5894C207.548 25.5386 208.535 25.4563 209.396 25.3425L209.482 26.2448C208.563 26.4064 207.601 26.5172 206.595 26.577C205.593 26.6369 204.548 26.6668 203.462 26.6668C203.004 26.6668 202.669 26.6653 202.457 26.6623L202.272 25.6702C203.562 25.6642 204.55 25.6523 205.235 25.6343V23.7894C204.747 23.7175 204.316 23.5619 203.942 23.3225C203.568 23.0801 203.278 22.7719 203.071 22.3978C202.865 22.0207 202.763 21.5988 202.766 21.1319C202.763 20.6082 202.892 20.1413 203.152 19.7314C203.416 19.3184 203.779 18.9982 204.243 18.7707C204.71 18.5403 205.24 18.4236 205.832 18.4206ZM203.942 21.1319C203.939 21.4641 204.019 21.7574 204.18 22.0117C204.342 22.2661 204.566 22.4636 204.854 22.6043C205.144 22.7419 205.47 22.8093 205.832 22.8063C206.188 22.8093 206.507 22.7419 206.788 22.6043C207.073 22.4636 207.296 22.2661 207.457 22.0117C207.622 21.7574 207.706 21.4641 207.709 21.1319C207.706 20.7997 207.623 20.5079 207.462 20.2566C207.3 20.0022 207.077 19.8047 206.793 19.664C206.509 19.5234 206.188 19.4515 205.832 19.4485C205.467 19.4515 205.141 19.5234 204.854 19.664C204.566 19.8047 204.342 20.0022 204.18 20.2566C204.019 20.5079 203.939 20.7997 203.942 21.1319ZM210.083 17.7023H211.286V22.3215H213.037V23.3405H211.286V29.0773H210.083V17.7023ZM217.943 19.5967C217.943 19.9289 218.055 20.2446 218.28 20.5439C218.507 20.8431 218.827 21.102 219.24 21.3204C219.656 21.5389 220.139 21.696 220.69 21.7918L220.201 22.721C219.539 22.5893 218.963 22.3738 218.473 22.0746C217.982 21.7723 217.606 21.4072 217.346 20.9793C217.088 21.4431 216.707 21.8412 216.201 22.1733C215.698 22.5025 215.1 22.739 214.406 22.8826L213.907 21.9579C214.476 21.8501 214.971 21.6796 215.393 21.4461C215.818 21.2097 216.144 20.9329 216.372 20.6157C216.599 20.2955 216.713 19.9558 216.713 19.5967V19.4755H214.32V18.5059H220.367V19.4755H217.943V19.5967ZM213.966 23.7086C215.291 23.7086 216.547 23.6846 217.732 23.6367C218.917 23.5859 220.035 23.4871 221.085 23.3405L221.161 24.2383C220.21 24.4058 219.116 24.53 217.88 24.6108V28.7317H216.673V24.6692C215.897 24.6991 214.926 24.7171 213.759 24.7231L213.598 23.7086H213.966ZM219.424 25.4997H221.934V17.7113H223.164V29.0818H221.934V26.4289H219.424V25.4997ZM235.297 27.6588H224.887V26.6623H227.378V23.6861C226.899 23.4258 226.528 23.0951 226.265 22.6941C226.002 22.2901 225.87 21.8382 225.87 21.3384C225.87 20.7518 226.048 20.2341 226.404 19.7852C226.763 19.3333 227.26 18.9847 227.894 18.7393C228.532 18.4909 229.255 18.3652 230.063 18.3622C230.874 18.3652 231.598 18.4909 232.235 18.7393C232.873 18.9847 233.371 19.3333 233.73 19.7852C234.089 20.2341 234.269 20.7518 234.269 21.3384C234.269 21.8322 234.14 22.2781 233.883 22.6761C233.628 23.0711 233.268 23.4003 232.801 23.6637V26.6623H235.297V27.6588ZM227.042 21.3384C227.042 21.7394 227.169 22.0925 227.423 22.3978C227.677 22.7 228.034 22.935 228.491 23.1026C228.949 23.2671 229.473 23.3494 230.063 23.3494C230.649 23.3494 231.171 23.2671 231.629 23.1026C232.09 22.935 232.449 22.6985 232.707 22.3933C232.964 22.0881 233.093 21.7364 233.093 21.3384C233.093 20.9344 232.964 20.5813 232.707 20.279C232.449 19.9738 232.092 19.7403 231.634 19.5787C231.176 19.4141 230.652 19.3333 230.063 19.3363C229.473 19.3333 228.949 19.4141 228.491 19.5787C228.034 19.7403 227.677 19.9738 227.423 20.279C227.169 20.5813 227.042 20.9344 227.042 21.3384ZM231.584 26.6623V24.126C231.105 24.2368 230.598 24.2921 230.063 24.2921C229.542 24.2921 229.042 24.2383 228.563 24.1305V26.6623H231.584Z" fill="white"/>
<path d="M6.47019e-06 2.60981C3.88325e-06 1.76626 0.980159 1.30168 1.63312 1.83575L15.5885 13.25H3.91006e-05L6.47019e-06 2.60981Z" fill="#43C7FF"/>
<defs>
<clipPath id="clip0_1294_16342">
<rect width="13" height="13" fill="white" transform="translate(11.5 17)"/>
</clipPath>
</defs>
</svg>
