<svg width="248" height="39" viewBox="0 0 248 39" fill="none" xmlns="http://www.w3.org/2000/svg">
<rect y="7.5" width="248" height="31" rx="3" fill="#BDBDBD"/>
<g clip-path="url(#clip0_1294_15540)">
<circle cx="18" cy="23" r="5.85" stroke="white" stroke-width="1.3"/>
<path d="M18.7197 19.3018L18.6016 24.791H17.3877L17.2588 19.3018H18.7197ZM18 27.165C17.5381 27.165 17.1621 26.7891 17.1621 26.3271C17.1621 25.876 17.5381 25.5 18 25.5C18.4404 25.5 18.8271 25.876 18.8271 26.3271C18.8271 26.7891 18.4404 27.165 18 27.165Z" fill="white"/>
</g>
<path d="M29.9219 27.5H28.7285L32.0928 18.3086H33.2988L36.6631 27.5H35.457L34.543 24.9102H30.8486L29.9219 27.5ZM31.1914 23.9072H34.1875L32.7275 19.7939H32.6514L31.1914 23.9072ZM39.0498 18.3086V27.5H37.9072V18.3086H39.0498ZM49.3457 17.2041V21.7363H51.1104V22.7393H49.3457V28.5664H48.1396V17.2041H49.3457ZM46.375 18.3975C46.3623 21.6855 44.915 24.6182 41.1699 26.4717L40.4971 25.5322C43.3472 24.1104 44.896 22.0537 45.1436 19.4004H41.0684V18.3975H46.375ZM60.8096 18.3594C60.7969 21.7109 59.7686 24.6943 55.6172 26.7383L54.957 25.8369C57.0137 24.8276 58.2388 23.6025 58.918 22.1553L55.1982 22.5107L55.0205 21.4697L59.2861 21.1777C59.4575 20.6001 59.5591 19.9844 59.6035 19.3369H55.6172V18.3594H60.8096ZM63.7549 17.2041V21.749H65.5195V22.7393H63.7549V28.5664H62.5488V17.2041H63.7549ZM70.7881 18.5498V19.5146H67.6904V21.6094H70.2803V22.5488H67.6904V24.9355C69.1758 24.9229 70.147 24.853 71.3213 24.6436L71.4229 25.6211C70.1152 25.8877 69.0361 25.9131 67.2715 25.9131H66.5352V18.5498H70.7881ZM75.9043 17.2041V28.5791H74.7363V17.2041H75.9043ZM73.5557 17.4453V28.0078H72.4131V22.4473H70.877V21.4697H72.4131V17.4453H73.5557ZM86.5684 18.2959V19.4131C86.5684 20.8223 86.5684 22.3965 86.1367 24.7197L84.918 24.5928C85.3623 22.3965 85.3623 20.7842 85.3623 19.4131V19.2734H78.4561V18.2959H86.5684ZM87.7363 26.04V27.043H77.3643V26.04H81.3125V22.0283H82.5059V26.04H87.7363ZM98.0449 17.2041V28.6045H96.8389V17.2041H98.0449ZM94.5664 18.2324V22.3838H90.4785V24.8721C92.3193 24.8657 93.9316 24.7832 95.8359 24.4658L95.9502 25.4561C93.9316 25.7988 92.2178 25.875 90.2119 25.875H89.2471V21.4189H93.335V19.21H89.2344V18.2324H94.5664ZM110.232 22.4219V23.3486H99.8223V22.4219H110.232ZM108.95 24.1484V26.6494H102.272V27.5889H109.306V28.4395H101.066V25.8496H107.757V25.0117H101.054V24.1484H108.95ZM108.925 17.4961V19.959H102.349V20.8223H109.115V21.6729H101.155V19.1592H107.719V18.3467H101.13V17.4961H108.925ZM120.021 18.2578V19.2607H116.021V24.8086C117.926 24.8022 119.24 24.7324 120.731 24.4404L120.871 25.4307C119.233 25.7354 117.85 25.8115 115.704 25.8115H114.803V18.2578H120.021ZM123.74 17.2041V28.6045H122.534V22.2695H119.373V21.2666H122.534V17.2041H123.74ZM132.614 18.918C132.602 20.2256 133.655 21.457 135.407 21.9521L134.836 22.8916C133.522 22.5171 132.544 21.6982 132.03 20.6572C131.529 21.8442 130.513 22.752 129.11 23.1709L128.526 22.2314C130.304 21.6982 131.396 20.3652 131.396 18.9307V18.7783H128.907V17.8135H135.064V18.7783H132.614V18.918ZM137.591 17.2041V19.6035H139.241V20.5938H137.591V23.0566H136.385V17.2041H137.591ZM137.591 23.5518V26.3828H131.446V27.5254H137.984V28.4648H130.266V25.5068H136.397V24.4912H130.24V23.5518H137.591ZM153.46 23.1582V24.123H148.94V26.2178H147.747V24.123H143.05V23.1582H153.46ZM152.305 27.3604V28.3379H144.345V25.2275H145.538V27.3604H152.305ZM145.614 17.5596V18.9434H150.883V17.5596H152.089V22.1553H144.421V17.5596H145.614ZM145.614 21.1904H150.883V19.8447H145.614V21.1904ZM164.695 23.958V24.9102H162.08V28.5791H160.861V24.9102H158.119V28.5791H156.913V24.9102H154.285V23.958H164.695ZM163.464 17.6104V20.6572H156.761V21.9141H163.705V22.8916H155.555V19.7559H162.232V18.6006H155.517V17.6104H163.464ZM174.395 17.2041V21.8125H176.223V22.8154H174.395V28.5791H173.201V17.2041H174.395ZM172.211 18.9814V19.9717H165.47V18.9814H168.275V17.3564H169.481V18.9814H172.211ZM168.885 20.8096C170.51 20.8096 171.703 21.9014 171.716 23.4502C171.703 25.0117 170.51 26.0908 168.885 26.1035C167.247 26.0908 166.054 25.0117 166.054 23.4502C166.054 21.9014 167.247 20.8096 168.885 20.8096ZM168.885 21.7998C167.92 21.7998 167.196 22.4727 167.209 23.4502C167.196 24.4404 167.92 25.1006 168.885 25.0879C169.85 25.1006 170.561 24.4404 170.561 23.4502C170.561 22.4727 169.85 21.7998 168.885 21.7998ZM186.544 17.2041V28.5791H185.401V17.2041H186.544ZM184.145 17.4961V28.0205H183.002V22.7393H180.78C180.101 24.0596 179.022 25.2148 177.416 26.1543L176.73 25.291C179.143 23.8564 180.304 21.9458 180.514 19.6035H177.264V18.6133H181.707C181.701 19.7241 181.548 20.7842 181.199 21.7744H183.002V17.4961H184.145ZM200.395 22.4473V23.4121H196.954V26.1924H201.588V27.1826H191.178V26.1924H195.761V23.4121H192.473V18.0801H200.293V19.0576H193.679V22.4473H200.395ZM205.828 17.9277C207.58 17.9277 208.888 19.0322 208.888 20.6318C208.888 22.041 207.872 23.063 206.438 23.2852V25.0879C207.447 25.0435 208.456 24.9673 209.396 24.8467L209.484 25.748C207.085 26.167 204.432 26.1797 202.464 26.167L202.273 25.1768C203.156 25.1704 204.171 25.1641 205.231 25.1387V23.2852C203.759 23.0757 202.756 22.0474 202.769 20.6318C202.756 19.0322 204.038 17.9277 205.828 17.9277ZM205.828 18.9434C204.736 18.9561 203.937 19.6162 203.937 20.6318C203.937 21.6475 204.736 22.3203 205.828 22.3076C206.907 22.3203 207.694 21.6475 207.707 20.6318C207.694 19.6162 206.907 18.9561 205.828 18.9434ZM211.287 17.2041V21.8252H213.039V22.8408H211.287V28.5791H210.081V17.2041H211.287ZM217.939 19.0957C217.939 20.0986 219.019 21 220.694 21.292L220.199 22.2188C218.873 21.9521 217.863 21.3301 217.355 20.4795C216.841 21.3999 215.813 22.0854 214.41 22.3838L213.902 21.457C215.642 21.127 216.708 20.1748 216.721 19.0957V18.9688H214.321V18.0039H220.364V18.9688H217.939V19.0957ZM223.157 17.2168V28.5791H221.938V25.9258H219.425V24.999H221.938V17.2168H223.157ZM213.598 23.209C215.718 23.209 218.6 23.1836 221.088 22.8408L221.164 23.7422C220.085 23.9326 218.968 24.0405 217.876 24.1104V28.2236H216.67V24.1738C215.623 24.2119 214.632 24.2183 213.763 24.2246L213.598 23.209ZM235.294 26.1543V27.1572H224.884V26.1543H227.372V23.1836C226.439 22.6694 225.874 21.8506 225.874 20.835C225.874 19.0449 227.626 17.8643 230.063 17.8643C232.514 17.8643 234.266 19.0449 234.266 20.835C234.266 21.8379 233.72 22.644 232.806 23.1582V26.1543H235.294ZM230.063 18.8291C228.273 18.8291 227.042 19.6035 227.042 20.835C227.042 22.0537 228.273 22.8535 230.063 22.8535C231.841 22.8535 233.098 22.0537 233.098 20.835C233.098 19.6035 231.841 18.8291 230.063 18.8291ZM228.565 26.1543H231.587V23.6152C231.124 23.7358 230.609 23.793 230.063 23.793C229.53 23.793 229.022 23.7358 228.565 23.6279V26.1543Z" fill="white"/>
<path d="M6.47019e-06 2.10981C3.88325e-06 1.26626 0.980159 0.801682 1.63312 1.33575L15.5885 12.75H3.91006e-05L6.47019e-06 2.10981Z" fill="#BDBDBD"/>
<defs>
<clipPath id="clip0_1294_15540">
<rect width="13" height="13" fill="white" transform="translate(11.5 16.5)"/>
</clipPath>
</defs>
</svg>
