<svg width="98" height="88" viewBox="0 0 98 88" fill="none" xmlns="http://www.w3.org/2000/svg">
<path d="M68.9843 7H28.7657C15.6616 7 5 17.4976 5 30.4V44.8C5 57.7024 15.6616 68.2 28.7657 68.2H34.25V77.2C34.25 77.9272 34.6961 78.586 35.3798 78.8632C35.6029 78.9568 35.8442 79 36.0782 79C36.5535 79 37.0215 78.8164 37.3725 78.4744L51.4599 68.2H68.9843C82.0884 68.2 92.75 57.7024 92.75 44.8V30.4C92.75 17.4976 82.0884 7 68.9843 7Z" fill="#D9D9D9"/>
<circle cx="26.375" cy="37.375" r="5.625" fill="white"/>
<circle cx="48.875" cy="37.375" r="5.625" fill="white"/>
<circle cx="71.375" cy="37.375" r="5.625" fill="white"/>
</svg>
