<svg width="62" height="47" viewBox="0 0 62 47" fill="none" xmlns="http://www.w3.org/2000/svg">
<path fill-rule="evenodd" clip-rule="evenodd" d="M26.5476 32.6034H51.296V32.5935C55.0144 32.4065 57.9668 29.5711 57.9668 25.6972C57.9668 21.6879 54.8045 18.4378 50.9036 18.4378C50.6391 18.4378 50.3781 18.4527 50.1211 18.4818C49.3018 12.5599 44.2195 8 38.0722 8C33.5898 8 29.6736 10.4244 27.5635 14.0335C27.188 13.9879 26.8057 13.9645 26.4178 13.9645C21.2167 13.9645 17.0003 18.1809 17.0003 23.3821C17.0003 28.3924 21.0039 32.3068 25.947 32.5874V32.6034H26.4843C26.4949 32.6035 26.5054 32.6035 26.5159 32.6035C26.5265 32.6035 26.537 32.6035 26.5476 32.6034Z" fill="#D1D4D7"/>
<path fill-rule="evenodd" clip-rule="evenodd" d="M11.3694 39.1981L40.5081 39.1981L40.9769 39.1981V39.1863C45.4197 38.9629 48.9473 35.575 48.9473 30.9464C48.9473 26.1561 45.1689 22.2728 40.5081 22.2728C40.1921 22.2728 39.8801 22.2906 39.5731 22.3254C38.5942 15.2498 32.5218 9.80151 25.1769 9.80151C19.8212 9.80151 15.1422 12.6982 12.621 17.0104C12.1723 16.956 11.7155 16.928 11.2522 16.928C5.03771 16.928 -9.91821e-05 21.9658 -9.91821e-05 28.1802C-9.91821e-05 34.1666 4.78342 38.8435 10.6895 39.1788V39.1981H11.3694Z" fill="white"/>
</svg>
