<svg width="115" height="115" viewBox="0 0 115 115" fill="none" xmlns="http://www.w3.org/2000/svg">
<circle cx="57.5" cy="57.5" r="57.5" fill="#C8EEFF"/>
<g clip-path="url(#clip0_1734_15009)">
<ellipse cx="56.1163" cy="77.779" rx="34.0421" ry="13.2632" fill="#FFD075"/>
<rect x="60.9746" y="50.6484" width="5.30526" height="28.2947" rx="2.65263" transform="rotate(14.9285 60.9746 50.6484)" fill="black"/>
<path fill-rule="evenodd" clip-rule="evenodd" d="M68.2279 24.4324C58.0968 22.8277 41.3943 23.8804 30.8645 37.1316C30.081 38.1176 30.6483 39.5959 31.7822 40.144C33.8452 41.1412 36.2258 42.9627 37.3878 45.8899C37.7003 46.6771 38.4341 47.2504 39.2787 47.3132C43.0009 47.59 49.0292 49.3775 52.3797 54.9869C52.8119 55.7106 53.6505 56.1131 54.4824 55.9772C56.573 55.6356 59.5814 55.4659 62.3284 56.1255C65.0392 56.921 67.5641 58.5659 69.2072 59.903C69.8611 60.4351 70.7887 60.5034 71.5239 60.091C77.2222 56.8941 83.3403 58.345 86.7062 59.958C87.47 60.324 88.3918 60.1921 89.0547 59.6649C91.5197 57.7047 94.4912 57.3102 96.7768 57.4724C98.033 57.5615 99.2611 56.5618 99.0724 55.3167C96.5371 38.5822 82.5756 29.3541 72.9904 25.7021C72.8363 25.5249 72.6294 25.3905 72.3859 25.3255C71.8482 25.1744 71.2701 25.0288 70.6557 24.8921C70.0548 24.7049 69.4811 24.5433 68.9396 24.4067C68.6961 24.3418 68.4498 24.3554 68.2279 24.4324Z" fill="#43C7FF"/>
<mask id="mask0_1734_15009" style="mask-type:alpha" maskUnits="userSpaceOnUse" x="30" y="23" width="70" height="38">
<path fill-rule="evenodd" clip-rule="evenodd" d="M68.2279 24.4324C58.0968 22.8277 41.3943 23.8804 30.8645 37.1316C30.081 38.1176 30.6483 39.5959 31.7822 40.144C33.8452 41.1412 36.2258 42.9627 37.3878 45.8899C37.7003 46.6771 38.4341 47.2504 39.2787 47.3132C43.0009 47.59 49.0292 49.3775 52.3797 54.9869C52.8119 55.7106 53.6505 56.1131 54.4824 55.9772C56.573 55.6356 59.5814 55.4659 62.3284 56.1255C65.0392 56.921 67.5641 58.5659 69.2072 59.903C69.8611 60.4351 70.7887 60.5034 71.5239 60.091C77.2222 56.8941 83.3403 58.345 86.7062 59.958C87.47 60.324 88.3918 60.1921 89.0547 59.6649C91.5197 57.7047 94.4912 57.3102 96.7768 57.4724C98.033 57.5615 99.2611 56.5618 99.0724 55.3167C96.5371 38.5822 82.5756 29.3541 72.9904 25.7021C72.8363 25.5249 72.6294 25.3905 72.3859 25.3255C71.8482 25.1744 71.2701 25.0288 70.6557 24.8921C70.0548 24.7049 69.4811 24.5433 68.9396 24.4067C68.6961 24.3418 68.4498 24.3554 68.2279 24.4324Z" fill="#43C7FF"/>
</mask>
<g mask="url(#mask0_1734_15009)">
<path d="M36.983 48.3048C42.8416 32.1223 61.1036 26.7044 69.7727 26.0186C69.8124 26.0155 69.8504 26.0193 69.8889 26.0296C70.1889 26.1096 70.2524 26.5148 69.9982 26.6932C62.2785 32.1119 56.3159 47.9924 53.7258 57.2363C53.4056 58.3791 52.0879 58.9197 51.0692 58.3107L37.7329 50.3373C37.0331 49.9189 36.7055 49.0715 36.983 48.3048Z" fill="white"/>
<path d="M88.5024 62.0407C91.4776 45.0895 78.3367 31.2992 71.1597 26.3886C71.1268 26.3661 71.092 26.3506 71.0535 26.3403C70.7535 26.2603 70.4967 26.5802 70.6283 26.8614C74.6258 35.4041 71.891 52.1452 69.5354 61.4516C69.2442 62.6021 70.1179 63.7269 71.3045 63.7059L86.8402 63.4301C87.6554 63.4156 88.3614 62.8438 88.5024 62.0407Z" fill="white"/>
</g>
<rect x="69.1748" y="19.8911" width="5.30526" height="7.9579" rx="2.65263" transform="rotate(14.9285 69.1748 19.8911)" fill="black"/>
<path d="M33.6341 74.362C33.1805 73.4237 34.6772 72.5596 36.3024 72.8214L39.3585 73.3138C39.9647 73.4115 40.6146 73.3521 41.139 73.151L43.7819 72.1375C45.1874 71.5985 47.0734 72.1533 47.1442 73.1266L47.2775 74.9568C47.3039 75.3199 47.6027 75.6584 48.0959 75.8841L50.5822 77.0222C51.9043 77.6273 51.5732 78.8343 49.9919 79.174L47.0182 79.8128C46.4282 79.9395 45.9629 80.2081 45.7435 80.5487L44.6371 82.2656C44.0488 83.1786 41.9582 83.3698 40.91 82.6064L38.9389 81.171C38.5478 80.8862 37.9615 80.7137 37.3326 80.6985L34.1626 80.6215C32.4768 80.5806 31.5159 79.4917 32.4494 78.6803L34.2049 77.1544C34.5532 76.8517 34.6561 76.4764 34.4869 76.1264L33.6341 74.362Z" fill="#FF8368"/>
<mask id="mask1_1734_15009" style="mask-type:alpha" maskUnits="userSpaceOnUse" x="22" y="64" width="69" height="28">
<ellipse cx="56.1163" cy="77.779" rx="34.0421" ry="13.2632" fill="#FFD075"/>
</mask>
<g mask="url(#mask1_1734_15009)">
<g style="mix-blend-mode:multiply">
<ellipse cx="72.0323" cy="77.779" rx="34.0421" ry="13.2632" fill="url(#paint0_linear_1734_15009)"/>
</g>
</g>
</g>
<defs>
<linearGradient id="paint0_linear_1734_15009" x1="54.3481" y1="75.1264" x2="100.769" y2="77.779" gradientUnits="userSpaceOnUse">
<stop stop-color="#EABB5E"/>
<stop offset="1" stop-color="#EABB5E" stop-opacity="0"/>
</linearGradient>
<clipPath id="clip0_1734_15009">
<rect width="84" height="84" fill="white" transform="translate(15 15)"/>
</clipPath>
</defs>
</svg>
