<svg width="115" height="115" viewBox="0 0 115 115" fill="none" xmlns="http://www.w3.org/2000/svg">
<circle cx="57.5" cy="57.5" r="57.5" fill="#FFF4CC"/>
<g clip-path="url(#clip0_1734_14515)">
<path d="M50.7332 52.5482C50.7731 52.0065 51.2242 51.5875 51.7673 51.5875H66.8325C67.3813 51.5875 67.8351 52.0152 67.8676 52.563L69.3236 77.1347C69.371 77.9353 68.5306 78.4844 67.8165 78.1193L59.77 74.0057C59.4786 73.8567 59.1339 73.854 58.8402 73.9985L50.4126 78.1451C49.6934 78.4989 48.8618 77.9378 48.9207 77.1384L50.7332 52.5482Z" fill="#43C7FF"/>
<mask id="mask0_1734_14515" style="mask-type:alpha" maskUnits="userSpaceOnUse" x="48" y="51" width="22" height="28">
<path d="M50.7332 52.5482C50.7731 52.0065 51.2242 51.5875 51.7673 51.5875H66.8325C67.3813 51.5875 67.8351 52.0152 67.8676 52.563L69.3236 77.1347C69.371 77.9353 68.5306 78.4844 67.8165 78.1193L59.77 74.0057C59.4786 73.8567 59.1339 73.854 58.8402 73.9985L50.4126 78.1451C49.6934 78.4989 48.8618 77.9378 48.9207 77.1384L50.7332 52.5482Z" fill="#43C7FF"/>
</mask>
<g mask="url(#mask0_1734_14515)">
<path d="M56.0377 52.6241H62.2099L62.8626 79.5837H55.356L56.0377 52.6241Z" fill="url(#paint0_linear_1734_14515)"/>
</g>
<path d="M32.7885 44.0809C33.1149 43.6468 33.7209 43.538 34.1778 43.8316L46.8528 51.9744C47.3145 52.2711 47.4651 52.8762 47.1963 53.3547L35.1401 74.8148C34.7473 75.514 33.7434 75.5217 33.34 74.8285L28.7936 67.0184C28.6289 66.7355 28.3403 66.547 28.0152 66.5098L18.6834 65.4433C17.8871 65.3522 17.4907 64.4307 17.9724 63.79L32.7885 44.0809Z" fill="#FF8368"/>
<mask id="mask1_1734_14515" style="mask-type:alpha" maskUnits="userSpaceOnUse" x="17" y="43" width="31" height="33">
<path d="M32.7885 44.0809C33.1149 43.6468 33.7209 43.538 34.1778 43.8316L46.8528 51.9744C47.3145 52.2711 47.4651 52.8762 47.1963 53.3547L35.1401 74.8148C34.7473 75.514 33.7434 75.5217 33.34 74.8285L28.7936 67.0184C28.6289 66.7355 28.3403 66.547 28.0152 66.5098L18.6834 65.4433C17.8871 65.3522 17.4907 64.4307 17.9724 63.79L32.7885 44.0809Z" fill="#43C7FF"/>
</mask>
<g mask="url(#mask1_1734_14515)">
<path d="M37.2103 47.0119L42.4032 50.348L28.3804 73.383L22.0648 69.3256L37.2103 47.0119Z" fill="url(#paint1_linear_1734_14515)"/>
</g>
<path d="M84.7427 44.0809C84.4164 43.6468 83.8103 43.538 83.3534 43.8316L70.6785 51.9744C70.2167 52.2711 70.0661 52.8762 70.3349 53.3547L82.3911 74.8148C82.784 75.514 83.7878 75.5217 84.1913 74.8285L88.7377 67.0184C88.9024 66.7355 89.1909 66.547 89.5161 66.5098L98.8478 65.4433C99.6442 65.3522 100.041 64.4307 99.5589 63.79L84.7427 44.0809Z" fill="#61DB6A"/>
<mask id="mask2_1734_14515" style="mask-type:alpha" maskUnits="userSpaceOnUse" x="70" y="43" width="30" height="33">
<path d="M84.7427 44.0809C84.4164 43.6468 83.8103 43.538 83.3534 43.8316L70.6785 51.9744C70.2167 52.2711 70.0661 52.8762 70.3349 53.3547L82.3911 74.8148C82.784 75.514 83.7878 75.5217 84.1913 74.8285L88.7377 67.0184C88.9024 66.7355 89.1909 66.547 89.5161 66.5098L98.8478 65.4433C99.6442 65.3522 100.041 64.4307 99.5589 63.79L84.7427 44.0809Z" fill="#43C7FF"/>
</mask>
<g mask="url(#mask2_1734_14515)">
<path d="M80.3209 47.0119L75.1281 50.348L89.1509 73.383L95.4665 69.3256L80.3209 47.0119Z" fill="url(#paint2_linear_1734_14515)"/>
</g>
<mask id="mask3_1734_14515" style="mask-type:alpha" maskUnits="userSpaceOnUse" x="17" y="43" width="83" height="36">
<path d="M50.7332 52.5482C50.7731 52.0065 51.2242 51.5875 51.7673 51.5875H66.8325C67.3813 51.5875 67.8351 52.0152 67.8676 52.563L69.3236 77.1347C69.371 77.9353 68.5306 78.4844 67.8165 78.1193L59.77 74.0057C59.4786 73.8567 59.1339 73.854 58.8402 73.9985L50.4126 78.1451C49.6934 78.4989 48.8618 77.9378 48.9207 77.1384L50.7332 52.5482Z" fill="#43C7FF"/>
<mask id="mask4_1734_14515" style="mask-type:alpha" maskUnits="userSpaceOnUse" x="48" y="51" width="22" height="28">
<path d="M50.7332 52.5482C50.7731 52.0065 51.2242 51.5875 51.7673 51.5875H66.8325C67.3813 51.5875 67.8351 52.0152 67.8676 52.563L69.3236 77.1347C69.371 77.9353 68.5306 78.4844 67.8165 78.1193L59.77 74.0057C59.4786 73.8567 59.1339 73.854 58.8402 73.9985L50.4126 78.1451C49.6934 78.4989 48.8618 77.9378 48.9207 77.1384L50.7332 52.5482Z" fill="#43C7FF"/>
</mask>
<g mask="url(#mask4_1734_14515)">
<path d="M56.0377 52.6241H62.2099L62.8626 79.5837H55.356L56.0377 52.6241Z" fill="url(#paint3_linear_1734_14515)"/>
</g>
<path d="M32.7885 44.0809C33.1149 43.6468 33.7209 43.538 34.1778 43.8316L46.8528 51.9744C47.3145 52.2711 47.4651 52.8762 47.1963 53.3547L35.1401 74.8148C34.7473 75.514 33.7434 75.5217 33.34 74.8285L28.7936 67.0184C28.6289 66.7355 28.3403 66.547 28.0152 66.5098L18.6834 65.4433C17.8871 65.3522 17.4907 64.4307 17.9724 63.79L32.7885 44.0809Z" fill="#FF8368"/>
<mask id="mask5_1734_14515" style="mask-type:alpha" maskUnits="userSpaceOnUse" x="17" y="43" width="31" height="33">
<path d="M32.7885 44.0809C33.1149 43.6468 33.7209 43.538 34.1778 43.8316L46.8528 51.9744C47.3145 52.2711 47.4651 52.8762 47.1963 53.3547L35.1401 74.8148C34.7473 75.514 33.7434 75.5217 33.34 74.8285L28.7936 67.0184C28.6289 66.7355 28.3403 66.547 28.0152 66.5098L18.6834 65.4433C17.8871 65.3522 17.4907 64.4307 17.9724 63.79L32.7885 44.0809Z" fill="#43C7FF"/>
</mask>
<g mask="url(#mask5_1734_14515)">
<path d="M37.2103 47.0119L42.4032 50.348L28.3804 73.383L22.0648 69.3256L37.2103 47.0119Z" fill="url(#paint4_linear_1734_14515)"/>
</g>
<path d="M84.7427 44.0809C84.4164 43.6468 83.8103 43.538 83.3534 43.8316L70.6785 51.9744C70.2167 52.2711 70.0661 52.8762 70.3349 53.3547L82.3911 74.8148C82.784 75.514 83.7878 75.5217 84.1913 74.8285L88.7377 67.0184C88.9024 66.7355 89.1909 66.547 89.5161 66.5098L98.8478 65.4433C99.6442 65.3522 100.041 64.4307 99.5589 63.79L84.7427 44.0809Z" fill="#61DB6A"/>
<mask id="mask6_1734_14515" style="mask-type:alpha" maskUnits="userSpaceOnUse" x="70" y="43" width="30" height="33">
<path d="M84.7427 44.0809C84.4164 43.6468 83.8103 43.538 83.3534 43.8316L70.6785 51.9744C70.2167 52.2711 70.0661 52.8762 70.3349 53.3547L82.3911 74.8148C82.784 75.514 83.7878 75.5217 84.1913 74.8285L88.7377 67.0184C88.9024 66.7355 89.1909 66.547 89.5161 66.5098L98.8478 65.4433C99.6442 65.3522 100.041 64.4307 99.5589 63.79L84.7427 44.0809Z" fill="#43C7FF"/>
</mask>
<g mask="url(#mask6_1734_14515)">
<path d="M80.3209 47.0119L75.1281 50.348L89.1509 73.383L95.4665 69.3256L80.3209 47.0119Z" fill="url(#paint5_linear_1734_14515)"/>
</g>
</mask>
<g mask="url(#mask3_1734_14515)">
<g style="mix-blend-mode:multiply">
<path d="M38.0234 43.5034C41.119 49.44 49.7165 53.481 61.7765 53.481C74.0682 53.481 83.3621 49.2833 85.8782 43.1594" stroke="#969696" stroke-width="10.3216" stroke-linecap="round"/>
</g>
</g>
<path d="M34.2705 42.5651C37.3661 48.5016 45.9636 52.5426 58.0236 52.5426C70.3152 52.5426 79.6092 48.3449 82.1253 42.221" stroke="#C0AE71" stroke-width="3.75332" stroke-linecap="round"/>
</g>
<defs>
<linearGradient id="paint0_linear_1734_14515" x1="59.1093" y1="52.6241" x2="59.1093" y2="79.5837" gradientUnits="userSpaceOnUse">
<stop stop-color="white"/>
<stop offset="0.85" stop-color="white" stop-opacity="0.34"/>
</linearGradient>
<linearGradient id="paint1_linear_1734_14515" x1="39.7945" y1="48.6721" x2="25.2226" y2="71.3543" gradientUnits="userSpaceOnUse">
<stop stop-color="white"/>
<stop offset="0.85" stop-color="white" stop-opacity="0.34"/>
</linearGradient>
<linearGradient id="paint2_linear_1734_14515" x1="77.7367" y1="48.6721" x2="92.3087" y2="71.3543" gradientUnits="userSpaceOnUse">
<stop stop-color="white"/>
<stop offset="0.85" stop-color="white" stop-opacity="0.34"/>
</linearGradient>
<linearGradient id="paint3_linear_1734_14515" x1="59.1093" y1="52.6241" x2="59.1093" y2="79.5837" gradientUnits="userSpaceOnUse">
<stop stop-color="white"/>
<stop offset="0.85" stop-color="white" stop-opacity="0.34"/>
</linearGradient>
<linearGradient id="paint4_linear_1734_14515" x1="39.7945" y1="48.6721" x2="25.2226" y2="71.3543" gradientUnits="userSpaceOnUse">
<stop stop-color="white"/>
<stop offset="0.85" stop-color="white" stop-opacity="0.34"/>
</linearGradient>
<linearGradient id="paint5_linear_1734_14515" x1="77.7367" y1="48.6721" x2="92.3087" y2="71.3543" gradientUnits="userSpaceOnUse">
<stop stop-color="white"/>
<stop offset="0.85" stop-color="white" stop-opacity="0.34"/>
</linearGradient>
<clipPath id="clip0_1734_14515">
<rect width="84" height="84" fill="white" transform="translate(16 21)"/>
</clipPath>
</defs>
</svg>
