<svg width="51" height="47" viewBox="0 0 51 47" fill="none" xmlns="http://www.w3.org/2000/svg">
<path fill-rule="evenodd" clip-rule="evenodd" d="M12.3694 32.3966L41.5081 32.3966L41.9769 32.3966V32.3848C46.4197 32.1614 49.9473 28.7735 49.9473 24.1449C49.9473 19.3546 46.1689 15.4713 41.5081 15.4713C41.1921 15.4713 40.8801 15.4891 40.5731 15.5239C39.5942 8.44827 33.5218 3 26.1769 3C20.8212 3 16.1422 5.89671 13.621 10.2089C13.1723 10.1544 12.7155 10.1264 12.2522 10.1264C6.03771 10.1264 0.999901 15.1642 0.999901 21.3787C0.999901 27.3651 5.78342 32.042 11.6895 32.3773V32.3966H12.3694Z" fill="#D1D4D7"/>
<path d="M15.5 36.5L14 42.8111" stroke="#43C7FF" stroke-width="3" stroke-linecap="round"/>
<path d="M24.5 36.5L23.0522 42.8111" stroke="#43C7FF" stroke-width="3" stroke-linecap="round"/>
<path fill-rule="evenodd" clip-rule="evenodd" d="M34.1707 35C34.6703 35 35.0754 35.405 35.0754 35.9047V38.1123L36.9773 36.9915C37.4077 36.7379 37.9623 36.8812 38.2159 37.3116C38.4696 37.7421 38.3263 38.2967 37.8958 38.5503L35.9526 39.6955L37.8959 40.8407C38.3264 41.0944 38.4697 41.6489 38.216 42.0794C37.9624 42.5098 37.4078 42.6532 36.9773 42.3995L35.0754 41.2787V43.4862C35.0754 43.9858 34.6703 44.3909 34.1707 44.3909C33.6711 44.3909 33.266 43.9858 33.266 43.4862L33.266 41.2787L31.3641 42.3995C30.9337 42.6532 30.3791 42.5098 30.1254 42.0794C29.8717 41.6489 30.0151 41.0944 30.4455 40.8407L32.3888 39.6955L30.4456 38.5503C30.0151 38.2967 29.8718 37.7421 30.1255 37.3116C30.3792 36.8812 30.9337 36.7379 31.3642 36.9915L33.266 38.1123L33.266 35.9047C33.266 35.405 33.6711 35 34.1707 35Z" fill="url(#paint0_linear_1550_15302)"/>
<defs>
<linearGradient id="paint0_linear_1550_15302" x1="34.1707" y1="35" x2="34.1707" y2="47.4716" gradientUnits="userSpaceOnUse">
<stop stop-color="white"/>
<stop offset="1" stop-color="#C8EEFF"/>
</linearGradient>
</defs>
</svg>
