<svg width="51" height="47" viewBox="0 0 51 47" fill="none" xmlns="http://www.w3.org/2000/svg">
<path fill-rule="evenodd" clip-rule="evenodd" d="M12.3694 32.3966L41.5081 32.3966L41.9769 32.3966V32.3848C46.4197 32.1614 49.9473 28.7735 49.9473 24.1449C49.9473 19.3546 46.1689 15.4713 41.5081 15.4713C41.1921 15.4713 40.8801 15.4891 40.5731 15.5239C39.5942 8.44827 33.5218 3 26.1769 3C20.8212 3 16.1422 5.89671 13.621 10.2089C13.1723 10.1544 12.7155 10.1264 12.2522 10.1264C6.03771 10.1264 0.999901 15.1642 0.999901 21.3787C0.999901 27.3651 5.78342 32.042 11.6895 32.3773V32.3966H12.3694Z" fill="#D1D4D7"/>
<path d="M13.9473 36V42" stroke="#43C7FF" stroke-width="3" stroke-linecap="round"/>
<path d="M37.9473 36V42" stroke="#43C7FF" stroke-width="3" stroke-linecap="round"/>
<path d="M25.9473 39V45" stroke="#43C7FF" stroke-width="3" stroke-linecap="round"/>
</svg>
