<svg width="115" height="115" viewBox="0 0 115 115" fill="none" xmlns="http://www.w3.org/2000/svg">
<circle cx="57.5" cy="57.5" r="57.5" fill="#E3E3E3"/>
<path d="M55.0654 18.9678C55.0654 18.2414 55.6543 17.6526 56.3807 17.6526H58.485C59.2114 17.6526 59.8002 18.2414 59.8002 18.9678V33.4353C59.8002 34.1617 59.2114 34.7505 58.485 34.7505H56.3807C55.6543 34.7505 55.0654 34.1617 55.0654 33.4353V18.9678Z" fill="#B3B3B3"/>
<rect x="51.1196" y="24.6232" width="12.6261" height="18.9392" rx="1.89392" fill="#B3B3B3"/>
<rect x="47.9634" y="38.0385" width="18.9392" height="18.9392" rx="1.89392" fill="black"/>
<rect x="46.3848" y="57.7668" width="22.0958" height="23.674" rx="1.89392" fill="black"/>
<rect width="41.035" height="12.6261" rx="1.89392" transform="matrix(1 0 0 -1 36.9155 90.2529)" fill="#929394"/>
<rect x="40.0718" y="91.0421" width="4.73481" height="16.5718" rx="1.57827" transform="rotate(180 40.0718 91.0421)" fill="#929394"/>
<rect x="80.3174" y="91.0421" width="4.73481" height="16.5718" rx="1.57827" transform="rotate(180 80.3174 91.0421)" fill="#929394"/>
<path fill-rule="evenodd" clip-rule="evenodd" d="M52.5077 29.5765C51.8548 29.5765 51.2181 29.7795 50.6858 30.1573L40.8608 37.131H55.9699V37.131H74.856L64.9456 30.1507C64.4151 29.7771 63.782 29.5765 63.1331 29.5765L60.3766 29.5765H52.5077Z" fill="#B3B3B3"/>
<path fill-rule="evenodd" clip-rule="evenodd" d="M50.3411 45.1407C49.3303 45.1407 48.3617 44.7356 47.6519 44.0159L40.861 37.131L55.7038 37.131L55.7038 37.1309L74.856 37.1309L68.0651 44.0158C67.3553 44.7355 66.3866 45.1406 65.3758 45.1406L60.0132 45.1406L60.0132 45.1407L50.3411 45.1407Z" fill="url(#paint0_linear_1734_14516)"/>
<path fill-rule="evenodd" clip-rule="evenodd" d="M49.6503 50.6646C48.7428 50.6646 47.8654 50.9906 47.1781 51.5832L37.7041 59.7512H55.8772V59.7513H78.5937L69.442 51.6204C68.7491 51.0048 67.8543 50.6647 66.9274 50.6647H61.1778V50.6646H49.6503Z" fill="#B3B3B3"/>
<path fill-rule="evenodd" clip-rule="evenodd" d="M49.1064 69.3854C47.8906 69.3854 46.7256 68.8981 45.8718 68.0326L37.7037 59.7513L55.5573 59.7513L55.5573 59.7513L78.5938 59.7513L70.4256 68.0325C69.5719 68.8981 68.4068 69.3854 67.191 69.3854L60.7401 69.3854L60.7401 69.3854L49.1064 69.3854Z" fill="url(#paint1_linear_1734_14516)"/>
<defs>
<linearGradient id="paint0_linear_1734_14516" x1="59.6678" y1="37.131" x2="59.6678" y2="45.3298" gradientUnits="userSpaceOnUse">
<stop stop-color="#929292"/>
<stop offset="1" stop-color="#98A6AC"/>
</linearGradient>
<linearGradient id="paint1_linear_1734_14516" x1="60.3251" y1="59.7513" x2="60.3251" y2="69.613" gradientUnits="userSpaceOnUse">
<stop stop-color="#929292"/>
<stop offset="1" stop-color="#98A6AC"/>
</linearGradient>
</defs>
</svg>
