<svg width="115" height="115" viewBox="0 0 115 115" fill="none" xmlns="http://www.w3.org/2000/svg">
<circle cx="57.5" cy="57.5" r="57.5" fill="#BEFBF0"/>
<circle cx="57.673" cy="56.8232" r="33.8654" fill="url(#paint0_linear_1734_14511)"/>
<path d="M37.6372 33.0533C38.3734 31.8693 40.0966 31.8693 40.8327 33.0533L45.1344 39.972C45.3935 40.3885 45.8049 40.6875 46.2812 40.8051L54.1905 42.7583C55.544 43.0925 56.0765 44.7314 55.178 45.7974L49.9272 52.0266C49.6111 52.4016 49.4539 52.8853 49.4892 53.3746L50.0758 61.5004C50.1761 62.891 48.782 63.9038 47.4905 63.3787L39.9437 60.3098C39.4893 60.125 38.9807 60.125 38.5263 60.3098L30.9794 63.3787C29.6879 63.9038 28.2938 62.891 28.3942 61.5004L28.9807 53.3746C29.0161 52.8853 28.8589 52.4016 28.5427 52.0266L23.292 45.7974C22.3934 44.7314 22.9259 43.0925 24.2795 42.7583L32.1888 40.8051C32.665 40.6875 33.0765 40.3885 33.3355 39.972L37.6372 33.0533Z" fill="#FEFFD0"/>
<path d="M75.2656 33.0532C76.0018 31.8692 77.725 31.8692 78.4612 33.0532L82.7629 39.9718C83.0219 40.3884 83.4333 40.6874 83.9096 40.805L91.8189 42.7582C93.1725 43.0924 93.705 44.7313 92.8064 45.7973L87.5556 52.0264C87.2395 52.4015 87.0823 52.8852 87.1176 53.3745L87.7042 61.5003C87.8046 62.8908 86.4104 63.9037 85.119 63.3785L77.5721 60.3097C77.1177 60.1249 76.6091 60.1249 76.1547 60.3097L68.6078 63.3785C67.3163 63.9037 65.9222 62.8908 66.0226 61.5003L66.6092 53.3745C66.6445 52.8852 66.4873 52.4015 66.1712 52.0264L60.9204 45.7973C60.0218 44.7313 60.5543 43.0924 61.9079 42.7582L69.8172 40.805C70.2935 40.6874 70.7049 40.3884 70.9639 39.9718L75.2656 33.0532Z" fill="#FEFFD0"/>
<path d="M57.8976 80.2915C63.2891 80.2915 67.7706 76.395 68.6796 71.2645C68.8658 70.2136 67.9828 69.3411 66.9156 69.3411H48.8797C47.8124 69.3411 46.9294 70.2136 47.1156 71.2645C48.0246 76.395 52.5061 80.2915 57.8976 80.2915Z" fill="black"/>
<mask id="mask0_1734_14511" style="mask-type:alpha" maskUnits="userSpaceOnUse" x="47" y="69" width="22" height="12">
<path d="M57.8976 80.2915C63.2891 80.2915 67.7706 76.395 68.6796 71.2645C68.8658 70.2136 67.9828 69.3411 66.9156 69.3411H48.8797C47.8124 69.3411 46.9294 70.2136 47.1156 71.2645C48.0246 76.395 52.5061 80.2915 57.8976 80.2915Z" fill="black"/>
</mask>
<g mask="url(#mask0_1734_14511)">
<ellipse cx="57.8979" cy="78.0368" rx="9.66208" ry="4.83104" fill="#FF8368"/>
</g>
<path d="M57.898 68.0526C51.7445 68.0526 47.2695 69.0029 47.2695 70.6292H68.5261C68.5261 69.0029 64.0515 68.0526 57.898 68.0526Z" fill="black"/>
<defs>
<linearGradient id="paint0_linear_1734_14511" x1="57.673" y1="-17.2738" x2="57.673" y2="90.6885" gradientUnits="userSpaceOnUse">
<stop stop-color="#FFB1B1"/>
<stop offset="1" stop-color="#FFDD52"/>
</linearGradient>
</defs>
</svg>
