<svg width="115" height="115" viewBox="0 0 115 115" fill="none" xmlns="http://www.w3.org/2000/svg">
<circle cx="57.5" cy="57.5" r="57.5" fill="#FFCFA2"/>
<path fill-rule="evenodd" clip-rule="evenodd" d="M57.5182 16.8378C46.2828 16.8378 37.1746 21.4945 37.1746 27.2387C37.1746 28.2482 37.4559 29.224 37.9806 30.1469C30.5433 34.2967 25.7622 40.7611 25.7622 48.0228C25.7622 60.5451 39.9797 70.6965 57.5179 70.6965C75.0561 70.6965 89.2736 60.5451 89.2736 48.0228C89.2736 40.7612 84.4927 34.297 77.0557 30.1472C77.5804 29.2242 77.8618 28.2483 77.8618 27.2387C77.8618 21.4945 68.7536 16.8378 57.5182 16.8378Z" fill="url(#paint0_linear_1734_14513)"/>
<path fill-rule="evenodd" clip-rule="evenodd" d="M70.6645 77.6941H44.3717V84.2051C44.3716 84.2089 44.3716 84.2126 44.3716 84.2164C44.3716 84.2201 44.3716 84.2239 44.3717 84.2276V84.2673H44.3731C44.482 86.059 50.3255 87.503 57.518 87.503C64.7105 87.503 70.554 86.059 70.6629 84.2673H70.6645V77.6941Z" fill="#EF7054"/>
<path d="M87.4419 61.2431C87.4419 75.0713 74.8606 83.8385 57.8266 83.8385C40.7927 83.8385 26.9839 75.0713 26.9839 61.2431C26.9839 47.4149 33.0908 33.7622 57.8266 33.7622C79.5029 33.7622 87.4419 47.4149 87.4419 61.2431Z" fill="#FF8368"/>
<mask id="mask0_1734_14513" style="mask-type:alpha" maskUnits="userSpaceOnUse" x="26" y="33" width="62" height="51">
<path d="M87.4419 61.2433C87.4419 75.0715 74.8606 83.8387 57.8266 83.8387C40.7927 83.8387 26.9839 75.0715 26.9839 61.2433C26.9839 47.4152 33.0908 33.7625 57.8266 33.7625C79.5029 33.7625 87.4419 47.4152 87.4419 61.2433Z" fill="#FF8368"/>
</mask>
<g mask="url(#mask0_1734_14513)">
<g style="mix-blend-mode:multiply">
<ellipse cx="61.5136" cy="46.7055" rx="35.7509" ry="21.7221" fill="url(#paint1_linear_1734_14513)"/>
</g>
</g>
<path fill-rule="evenodd" clip-rule="evenodd" d="M86.8241 54.1153C87.3213 52.7915 87.3633 51.0856 86.8314 49.3671C86.1022 47.0113 84.4966 45.2841 82.8044 44.7987C82.9639 43.2897 82.4428 41.4766 81.2561 39.8823C79.6113 37.6724 77.1966 36.5667 75.335 37.0039C75.4694 35.14 73.9418 33.0373 71.5035 31.7412C70.1891 31.0426 68.8298 30.6951 67.6259 30.7041C66.8582 29.1521 64.8227 27.97 62.3304 27.6822C60.38 27.4571 58.5798 27.8292 57.3625 28.6422C56.1451 27.8292 54.3449 27.4571 52.3946 27.6822C49.8264 27.9787 47.7433 29.2248 47.0325 30.8468C45.5862 30.4938 43.7263 30.7963 41.9487 31.7412C39.55 33.0162 38.0326 35.0719 38.1119 36.9128C36.3713 36.8434 34.322 37.9335 32.8715 39.8823C31.6796 41.4837 31.1591 43.3059 31.3255 44.8188C29.6583 45.3305 28.0858 47.0428 27.3664 49.3671C26.722 51.449 26.9199 53.5124 27.749 54.9003C29.2051 59.4961 40.7994 63.0754 56.8817 63.0754C73.869 63.0754 86.4931 59.0819 86.8241 54.1153Z" fill="white"/>
<defs>
<linearGradient id="paint0_linear_1734_14513" x1="57.5179" y1="38.1975" x2="57.5179" y2="13.5242" gradientUnits="userSpaceOnUse">
<stop stop-color="white" stop-opacity="0.48"/>
<stop offset="1" stop-color="white" stop-opacity="0"/>
</linearGradient>
<linearGradient id="paint1_linear_1734_14513" x1="51.7505" y1="63.27" x2="92.5723" y2="69.96" gradientUnits="userSpaceOnUse">
<stop stop-color="#EEB5A8"/>
<stop offset="1" stop-color="#EEB5A8" stop-opacity="0"/>
</linearGradient>
</defs>
</svg>
