<svg width="115" height="115" viewBox="0 0 115 115" fill="none" xmlns="http://www.w3.org/2000/svg">
<circle cx="57.5" cy="57.5" r="57.5" fill="#CBF6C4"/>
<g clip-path="url(#clip0_1734_14514)">
<path d="M35.3369 39.7579C35.3369 37.3162 37.3163 35.3369 39.758 35.3369H40.6422C43.0839 35.3369 45.0632 37.3162 45.0632 39.7579V81.3158C45.0632 83.7575 43.0839 85.7369 40.6422 85.7369H39.758C37.3163 85.7369 35.3369 83.7575 35.3369 81.3158V39.7579Z" fill="#604500"/>
<path d="M38.0756 36.4806C39.1629 35.1152 41.2374 35.1152 42.3246 36.4806L62.4533 61.7572C63.1615 62.6464 63.2187 63.8744 62.3918 64.6544C60.0227 66.8892 53.8252 70.9801 40.2001 70.9801C26.5751 70.9801 20.3776 66.8892 18.0085 64.6544C17.1816 63.8744 17.2388 62.6464 17.9469 61.7572L38.0756 36.4806Z" fill="#00844C"/>
<mask id="mask0_1734_14514" style="mask-type:alpha" maskUnits="userSpaceOnUse" x="17" y="19" width="45" height="52">
<path d="M37.3608 36.5931C38.448 35.1864 40.5713 35.1864 41.6585 36.5931L61.1278 61.7839C61.8062 62.6617 61.8637 63.8569 61.0703 64.6321C58.7881 66.8619 52.7773 70.9801 39.5097 70.9801C26.242 70.9801 20.2312 66.8619 17.9491 64.6321C17.1556 63.8569 17.2131 62.6617 17.8915 61.7839L37.3608 36.5931Z" fill="#0A9F60"/>
<path d="M37.4173 26.645C38.5035 25.3324 40.5159 25.3324 41.602 26.645L59.4297 48.1888C60.1773 49.0922 60.2322 50.3619 59.3443 51.1279C57.0537 53.1041 51.4248 56.4359 39.5097 56.4359C27.5946 56.4359 21.9657 53.1041 19.675 51.1279C18.7871 50.3619 18.8421 49.0922 19.5897 48.1888L37.4173 26.645Z" fill="#23B169"/>
<path d="M37.4725 19.9652C38.5538 18.738 40.4665 18.738 41.5479 19.9652L56.1637 36.5526C56.9786 37.4774 57.0241 38.818 56.0328 39.5507C53.8737 41.1465 49.0643 43.5082 39.5102 43.5082C29.9561 43.5082 25.1467 41.1465 22.9875 39.5507C21.9962 38.818 22.0418 37.4774 22.8567 36.5526L37.4725 19.9652Z" fill="#68C76F"/>
</mask>
<g mask="url(#mask0_1734_14514)">
<g style="mix-blend-mode:multiply">
<ellipse cx="46.0846" cy="53.9051" rx="22.1094" ry="13.2657" transform="rotate(11.1813 46.0846 53.9051)" fill="url(#paint0_linear_1734_14514)" fill-opacity="0.61"/>
</g>
</g>
<path d="M38.1337 26.5403C39.218 25.2686 41.1827 25.2686 42.267 26.5403L60.7027 48.1624C61.4819 49.0763 61.5363 50.3791 60.6135 51.1478C58.2382 53.1263 52.4362 56.4359 40.2004 56.4359C27.9645 56.4359 22.1626 53.1263 19.7873 51.1478C18.8645 50.3791 18.9188 49.0763 19.6981 48.1624L38.1337 26.5403Z" fill="#23B169"/>
<mask id="mask1_1734_14514" style="mask-type:alpha" maskUnits="userSpaceOnUse" x="19" y="25" width="43" height="32">
<path d="M38.1337 26.5403C39.218 25.2686 41.1827 25.2686 42.267 26.5403L60.7027 48.1624C61.4819 49.0763 61.5363 50.3791 60.6135 51.1478C58.2382 53.1263 52.4362 56.4359 40.2004 56.4359C27.9645 56.4359 22.1626 53.1263 19.7873 51.1478C18.8645 50.3791 18.9188 49.0763 19.6981 48.1624L38.1337 26.5403Z" fill="#2AD17C"/>
</mask>
<g mask="url(#mask1_1734_14514)">
<g style="mix-blend-mode:multiply">
<ellipse cx="45.8267" cy="40.3938" rx="20.2143" ry="11.3706" transform="rotate(7.67869 45.8267 40.3938)" fill="url(#paint1_linear_1734_14514)" fill-opacity="0.61"/>
</g>
</g>
<path d="M38.1896 19.8674C39.2673 18.6804 41.1334 18.6804 42.2111 19.8674L57.336 36.5267C58.1842 37.4609 58.2274 38.8354 57.2002 39.5682C54.9637 41.1637 50.0086 43.5082 40.2004 43.5082C30.3921 43.5082 25.437 41.1637 23.2005 39.5682C22.1733 38.8354 22.2166 37.4609 23.0647 36.5267L38.1896 19.8674Z" fill="#61DB6A"/>
<rect x="59.2104" y="53.0211" width="5.30526" height="21.2211" rx="2.37346" fill="black"/>
<rect x="91.042" y="53.0211" width="5.30526" height="21.2211" rx="2.37346" fill="black"/>
<rect x="55.6738" y="51.9191" width="43.5793" height="14.5264" rx="2.0344" fill="#F0C351"/>
<rect x="49.9819" y="72.9014" width="5.30773" height="13.7194" rx="2.37346" fill="black"/>
<rect x="90.6743" y="72.9014" width="5.30773" height="13.7194" rx="2.37346" fill="black"/>
<path d="M46.3508 72.1717L99.2108 70.5576V73.2706C99.2108 74.0746 98.7374 74.8032 98.0027 75.1297L95.9738 76.0314C95.7136 76.147 95.4322 76.2068 95.1475 76.2068H48.1952C46.9917 76.2068 46.0512 75.1676 46.1709 73.97L46.3508 72.1717Z" fill="url(#paint2_linear_1734_14514)"/>
<rect width="49.2285" height="4.65935" rx="0.678132" transform="matrix(1 0 -0.920505 0.390731 50.2363 70.5576)" fill="#F0C351"/>
</g>
<defs>
<linearGradient id="paint0_linear_1734_14514" x1="33.8706" y1="59.9095" x2="57.878" y2="63.2214" gradientUnits="userSpaceOnUse">
<stop stop-color="#0A9F72"/>
<stop offset="1" stop-color="#0A9F72" stop-opacity="0"/>
</linearGradient>
<linearGradient id="paint1_linear_1734_14514" x1="34.101" y1="43.2495" x2="66.0076" y2="52.9707" gradientUnits="userSpaceOnUse">
<stop stop-color="#0A9F72"/>
<stop offset="1" stop-color="#0A9F72" stop-opacity="0"/>
</linearGradient>
<linearGradient id="paint2_linear_1734_14514" x1="79.8423" y1="72.1717" x2="79.8423" y2="83.9684" gradientUnits="userSpaceOnUse">
<stop stop-color="#E19B32"/>
<stop offset="0.75" stop-color="#F0C351"/>
</linearGradient>
<clipPath id="clip0_1734_14514">
<rect width="84" height="84" fill="white" transform="translate(15 15)"/>
</clipPath>
</defs>
</svg>
