<svg width="115" height="115" viewBox="0 0 115 115" fill="none" xmlns="http://www.w3.org/2000/svg">
<circle cx="57.5" cy="57.5" r="57.5" fill="#E3CCFF"/>
<path fill-rule="evenodd" clip-rule="evenodd" d="M69.1378 15.8842C68.7036 15.8842 68.3337 16.1994 68.2648 16.6281L66.9633 24.7263H63.6317C62.6551 24.7263 61.8633 25.5181 61.8633 26.4947V31.8H57.4422C56.4656 31.8 55.6738 32.5918 55.6738 33.5684V83.0842C55.6738 84.0609 56.4656 84.8526 57.4422 84.8526H81.3159C82.2926 84.8526 83.0844 84.0609 83.0844 83.0842V33.5684C83.0844 32.5918 82.2926 31.8 81.3159 31.8H76.8949V26.4947C76.8949 25.5181 76.1031 24.7263 75.1265 24.7263H71.9686L70.8139 16.6434C70.7516 16.2078 70.3786 15.8842 69.9385 15.8842L69.1378 15.8842Z" fill="url(#paint0_linear_1734_14517)"/>
<rect x="60.979" y="36.9727" width="5.57053" height="5.57053" rx="0.884211" fill="#E3CCFF"/>
<rect x="71.3242" y="44.9305" width="5.57053" height="5.57053" rx="0.884211" fill="#E3CCFF"/>
<path d="M34.453 52.9874C34.8786 48.1227 39.5221 44.179 44.8245 44.179C50.1269 44.179 54.0804 48.1227 53.6548 52.9874" stroke="#FF85DD" stroke-width="2.65263" stroke-linecap="round"/>
<path d="M28.534 53.6487C28.6334 52.8058 29.3228 52.1801 30.1732 52.1611L53.9055 51.6313L51.4338 87.3983L26.6909 86.056C25.6414 85.9991 24.8332 85.0446 24.9556 84.0064L28.534 53.6487Z" fill="#FF85DD"/>
<path d="M51.909 51.6446L58.1332 51.6446C59.0064 51.6446 59.7112 52.2873 59.7899 53.1553L62.5878 84.0183C62.6759 84.9904 61.9529 85.8944 60.9768 86.0327L51.2529 87.4097L51.909 51.6446Z" fill="url(#paint1_linear_1734_14517)"/>
<g style="mix-blend-mode:overlay">
<mask id="mask0_1734_14517" style="mask-type:alpha" maskUnits="userSpaceOnUse" x="24" y="51" width="39" height="37">
<path d="M28.534 53.6487C28.6334 52.8058 29.3228 52.1801 30.1732 52.1611L53.9055 51.6313L51.4338 87.3983L26.6909 86.056C25.6414 85.9991 24.8332 85.0446 24.9556 84.0064L28.534 53.6487Z" fill="#FF85DD"/>
<path d="M51.909 51.6446L58.1332 51.6446C59.0064 51.6446 59.7112 52.2873 59.7899 53.1553L62.5878 84.0183C62.6759 84.9904 61.9529 85.8944 60.9768 86.0327L51.2529 87.4097L51.909 51.6446Z" fill="url(#paint2_linear_1734_14517)"/>
</mask>
<g mask="url(#mask0_1734_14517)">
<path fill-rule="evenodd" clip-rule="evenodd" d="M61.4571 57.4421L51.2532 58.3263V58.3341L25.2011 58.559L22.9585 63.6316H51.7086L51.7141 63.5644L61.8638 62.0842L61.4571 57.4421ZM25.1692 72.4737L51.7447 72.9094L61.8638 71.5895L62.3059 77.3369L51.2535 79.5474H51.2532L23.7991 78.6826L25.1692 72.4737Z" fill="white"/>
</g>
</g>
<defs>
<linearGradient id="paint0_linear_1734_14517" x1="69.3791" y1="15.8842" x2="69.3791" y2="95.4632" gradientUnits="userSpaceOnUse">
<stop/>
<stop offset="1" stop-color="#1C0285" stop-opacity="0.71"/>
</linearGradient>
<linearGradient id="paint1_linear_1734_14517" x1="56.0805" y1="51.0706" x2="59.8766" y2="107.06" gradientUnits="userSpaceOnUse">
<stop offset="0.196181" stop-color="#E761C1"/>
<stop offset="0.66358" stop-color="#FF85DD"/>
</linearGradient>
<linearGradient id="paint2_linear_1734_14517" x1="56.0805" y1="51.0706" x2="59.8766" y2="107.06" gradientUnits="userSpaceOnUse">
<stop offset="0.196181" stop-color="#E761C1"/>
<stop offset="0.66358" stop-color="#FF85DD"/>
</linearGradient>
</defs>
</svg>
