<svg width="42" height="41" viewBox="0 0 42 41" fill="none" xmlns="http://www.w3.org/2000/svg">
<rect x="0.130859" width="41" height="41" rx="6.72131" fill="#E3CCFF"/>
<path fill-rule="evenodd" clip-rule="evenodd" d="M25.412 6.04919C25.247 6.04919 25.1064 6.16901 25.0802 6.33193L24.5855 9.40991H23.3195C22.9483 9.40991 22.6474 9.71083 22.6474 10.082V12.0984H20.9671C20.5958 12.0984 20.2949 12.3993 20.2949 12.7705V31.5902C20.2949 31.9614 20.5958 32.2623 20.9671 32.2623H30.0408C30.412 32.2623 30.713 31.9614 30.713 31.5902V12.7705C30.713 12.3993 30.412 12.0984 30.0408 12.0984H28.3605V10.082C28.3605 9.71083 28.0596 9.40991 27.6883 9.40991H26.4879L26.049 6.33773C26.0254 6.17217 25.8836 6.04919 25.7163 6.04919H25.412Z" fill="url(#paint0_linear_823_1115)"/>
<rect x="22.3115" y="14.0643" width="2.11721" height="2.11721" rx="0.336066" fill="#E3CCFF"/>
<rect x="26.2437" y="17.0889" width="2.11721" height="2.11721" rx="0.336066" fill="#E3CCFF"/>
<path d="M12.2297 20.1511C12.3915 18.3021 14.1564 16.8033 16.1717 16.8033C18.187 16.8033 19.6896 18.3021 19.5278 20.1511" stroke="#FF85DD" stroke-width="1.0082" stroke-linecap="round"/>
<path d="M9.97983 20.4025C10.0176 20.0821 10.2796 19.8443 10.6028 19.8371L19.6229 19.6357L18.6834 33.2299L9.27933 32.7197C8.88041 32.698 8.57325 32.3353 8.61976 31.9407L9.97983 20.4025Z" fill="#FF85DD"/>
<path d="M18.8641 19.6408L21.2297 19.6408C21.5617 19.6408 21.8295 19.885 21.8594 20.2149L22.9228 31.9451C22.9563 32.3146 22.6815 32.6582 22.3105 32.7108L18.6147 33.2341L18.8641 19.6408Z" fill="url(#paint1_linear_823_1115)"/>
<g style="mix-blend-mode:overlay">
<mask id="mask0_823_1115" style="mask-type:alpha" maskUnits="userSpaceOnUse" x="8" y="19" width="15" height="15">
<path d="M9.97983 20.4025C10.0176 20.0821 10.2796 19.8443 10.6028 19.8371L19.6229 19.6357L18.6834 33.2299L9.27933 32.7197C8.88041 32.698 8.57325 32.3353 8.61976 31.9407L9.97983 20.4025Z" fill="#FF85DD"/>
<path d="M18.8641 19.6408L21.2297 19.6408C21.5617 19.6408 21.8295 19.885 21.8594 20.2149L22.9228 31.9451C22.9563 32.3146 22.6815 32.6582 22.3105 32.7108L18.6147 33.2341L18.8641 19.6408Z" fill="url(#paint2_linear_823_1115)"/>
</mask>
<g mask="url(#mask0_823_1115)">
<path fill-rule="evenodd" clip-rule="evenodd" d="M22.4932 21.8442L18.615 22.1803V22.1831L8.71321 22.2686L7.86084 24.1966H18.615V24.1967L18.6158 24.1966H18.788L18.7901 24.1712L22.6478 23.6086L22.4932 21.8442ZM18.6151 30.2447L18.615 30.246L22.8158 29.4058L22.6478 27.2214L18.8021 27.723L8.70096 27.5574L8.18021 29.9172L18.6149 30.2459L18.6151 30.2447Z" fill="white"/>
</g>
</g>
<defs>
<linearGradient id="paint0_linear_823_1115" x1="25.5039" y1="6.04919" x2="25.5039" y2="36.2951" gradientUnits="userSpaceOnUse">
<stop/>
<stop offset="1" stop-color="#1C0285" stop-opacity="0.71"/>
</linearGradient>
<linearGradient id="paint1_linear_823_1115" x1="20.4496" y1="19.4226" x2="21.8924" y2="40.7029" gradientUnits="userSpaceOnUse">
<stop offset="0.196181" stop-color="#E761C1"/>
<stop offset="0.66358" stop-color="#FF85DD"/>
</linearGradient>
<linearGradient id="paint2_linear_823_1115" x1="20.4496" y1="19.4226" x2="21.8924" y2="40.7029" gradientUnits="userSpaceOnUse">
<stop offset="0.196181" stop-color="#E761C1"/>
<stop offset="0.66358" stop-color="#FF85DD"/>
</linearGradient>
</defs>
</svg>
