<svg width="51" height="47" viewBox="0 0 51 47" fill="none" xmlns="http://www.w3.org/2000/svg">
<circle cx="37.5" cy="11.5" r="8.5" fill="#FFD043"/>
<path d="M15.6143 36L14.1142 42.3111" stroke="#43C7FF" stroke-width="3" stroke-linecap="round"/>
<path d="M37.6143 36L36.1142 42.3111" stroke="#43C7FF" stroke-width="3" stroke-linecap="round"/>
<path d="M26.6113 36L25.1636 42.3111" stroke="#43C7FF" stroke-width="3" stroke-linecap="round"/>
<path fill-rule="evenodd" clip-rule="evenodd" d="M13.6211 10.2089C13.1724 10.1545 12.7156 10.1265 12.2523 10.1265C6.03781 10.1265 1 15.1643 1 21.3787C1 27.3651 5.78357 32.0421 11.6897 32.3773V32.3966H12.3695H41.4893C41.4956 32.3966 41.5019 32.3966 41.5082 32.3966C41.5145 32.3966 41.5208 32.3966 41.5272 32.3966H41.9771V32.3849C46.4198 32.1614 49.9474 28.7735 49.9474 24.1449C49.9474 19.3546 46.1691 15.4713 41.5082 15.4713C41.1922 15.4713 40.8803 15.4892 40.5733 15.5239C39.5944 8.4483 33.522 3 26.177 3C20.8214 3 16.1423 5.89673 13.6211 10.2089Z" fill="white"/>
</svg>
