<svg width="51" height="47" viewBox="0 0 51 47" fill="none" xmlns="http://www.w3.org/2000/svg">
<path fill-rule="evenodd" clip-rule="evenodd" d="M26.4163 7.00004C26.4163 6.21764 25.782 5.58337 24.9996 5.58337C24.2172 5.58337 23.5829 6.21764 23.5829 7.00004V9.28881L22.2389 7.90272C21.6942 7.34104 20.7973 7.32724 20.2356 7.8719C19.6739 8.41657 19.6601 9.31345 20.2048 9.87514L23.5829 13.3588V20.5798L17.8092 14.806L17.7345 9.95387C17.7225 9.17156 17.0785 8.54713 16.2962 8.55916C15.5139 8.5712 14.8895 9.21514 14.9015 9.99745L14.9312 11.928L13.9806 10.9775C13.4274 10.4242 12.5304 10.4242 11.9772 10.9774C11.4239 11.5307 11.4239 12.4277 11.9772 12.9809L12.9277 13.9314L10.9972 13.9017C10.2149 13.8897 9.57096 14.5141 9.55892 15.2965C9.54689 16.0788 10.1713 16.7227 10.9536 16.7347L15.8056 16.8094L21.5797 22.5834H13.414L9.93035 19.2054C9.36867 18.6607 8.47179 18.6745 7.92712 19.2362C7.38245 19.7979 7.39625 20.6947 7.95794 21.2394L9.34397 22.5834H7.99968C7.21727 22.5834 6.58301 23.2177 6.58301 24.0001C6.58301 24.7825 7.21727 25.4168 7.99968 25.4168H9.34408L7.95794 26.7609C7.39625 27.3056 7.38245 28.2025 7.92712 28.7641C8.47179 29.3258 9.36867 29.3396 9.93035 28.795L13.4141 25.4168H21.5793L15.8054 31.1907L10.9536 31.2654C10.1713 31.2774 9.54689 31.9214 9.55893 32.7037C9.57096 33.486 10.2149 34.1104 10.9972 34.0984L12.9274 34.0687L11.9771 35.019C11.4239 35.5723 11.4239 36.4692 11.9771 37.0225C12.5304 37.5757 13.4273 37.5757 13.9806 37.0225L14.9312 36.0718L14.9015 38.0027C14.8895 38.785 15.5139 39.4289 16.2962 39.441C17.0785 39.453 17.7225 38.8286 17.7345 38.0462L17.8092 33.1939L23.583 27.4201V35.5856L20.2048 39.0694C19.6601 39.6311 19.6739 40.5279 20.2356 41.0726C20.7973 41.6173 21.6942 41.6035 22.2389 41.0418L23.583 39.6557V41C23.583 41.7824 24.2172 42.4167 24.9996 42.4167C25.782 42.4167 26.4163 41.7824 26.4163 41V39.6557L27.7604 41.0418C28.305 41.6035 29.2019 41.6173 29.7636 41.0726C30.3253 40.5279 30.3391 39.6311 29.7944 39.0694L26.4163 35.5857V27.42L31.5225 32.5262L31.5971 37.3782C31.6092 38.1605 32.2531 38.785 33.0354 38.7729C33.8177 38.7609 34.4422 38.1169 34.4301 37.3346L34.4004 35.4042L36.0188 37.0226C36.572 37.5758 37.469 37.5758 38.0223 37.0226C38.5755 36.4693 38.5755 35.5723 38.0223 35.0191L36.4038 33.4006L38.3344 33.4303C39.1167 33.4424 39.7607 32.8179 39.7727 32.0356C39.7847 31.2533 39.1603 30.6094 38.378 30.5973L33.5259 30.5227L28.42 25.4168H35.6409L39.1246 28.7949C39.6863 29.3396 40.5831 29.3258 41.1278 28.7641C41.6725 28.2024 41.6587 27.3055 41.097 26.7609L39.7109 25.4168H41.9997C42.7821 25.4168 43.4163 24.7825 43.4163 24.0001C43.4163 23.2177 42.7821 22.5834 41.9997 22.5834H39.7109L41.097 21.2393C41.6587 20.6947 41.6725 19.7978 41.1278 19.2361C40.5831 18.6744 39.6863 18.6606 39.1246 19.2053L35.6409 22.5834H28.4196L33.5257 17.4773L38.3779 17.4027C39.1602 17.3907 39.7847 16.7467 39.7726 15.9644C39.7606 15.1821 39.1167 14.5577 38.3344 14.5697L36.4037 14.5994L38.0222 12.9808C38.5755 12.4276 38.5755 11.5306 38.0222 10.9774C37.469 10.4241 36.572 10.4241 36.0187 10.9774L34.4004 12.5958L34.4301 10.6654C34.4421 9.88309 33.8177 9.23914 33.0354 9.22711C32.253 9.21507 31.6091 9.8395 31.5971 10.6218L31.5224 15.4737L26.4163 20.5798V13.3588L29.7944 9.87514C30.3391 9.31345 30.3253 8.41657 29.7636 7.8719C29.2019 7.32724 28.305 7.34104 27.7604 7.90272L26.4163 9.28881V7.00004Z" fill="url(#paint0_linear_1550_15178)"/>
<defs>
<linearGradient id="paint0_linear_1550_15178" x1="24.9997" y1="5.58337" x2="24.9997" y2="54.5" gradientUnits="userSpaceOnUse">
<stop stop-color="white"/>
<stop offset="1" stop-color="#C8EEFF"/>
</linearGradient>
</defs>
</svg>
