<svg width="48" height="60" viewBox="0 0 48 60" fill="none" xmlns="http://www.w3.org/2000/svg">
<rect width="48" height="60" fill="#303037"/>
<g clip-path="url(#clip0_1267_8476)">
<rect width="375" height="812" transform="translate(-164 -282)" fill="white"/>
<rect x="-164" y="-282" width="375" height="299" fill="#E3F7FF"/>
<rect x="-164" y="-282" width="375" height="812" fill="black" fill-opacity="0.4"/>
<rect x="-136" y="-26" width="319" height="246" rx="20" fill="white"/>
<rect x="3.68896" y="12.0715" width="40.2424" height="46.71" rx="4.31169" fill="url(#paint0_linear_1267_8476)"/>
<mask id="mask0_1267_8476" style="mask-type:alpha" maskUnits="userSpaceOnUse" x="3" y="12" width="41" height="48">
<rect x="3.68896" y="12.79" width="40.2424" height="46.71" rx="4.31169" fill="url(#paint1_linear_1267_8476)"/>
</mask>
<g mask="url(#mask0_1267_8476)">
<path d="M-1.34131 12.7901C-1.34131 11.5995 -0.376104 10.6343 0.814536 10.6343H43.9314C45.1221 10.6343 46.0873 11.5995 46.0873 12.7901V19.8589C46.0873 21.0944 45.051 22.0772 43.8173 22.0117L0.70037 19.7252C-0.444298 19.6645 -1.34131 18.7187 -1.34131 17.5724V12.7901Z" fill="#BDBDBD"/>
<g style="mix-blend-mode:multiply">
<rect x="11.5938" y="25.0063" width="3.59307" height="28.026" rx="1.43723" fill="#D9D9D9"/>
</g>
<g style="mix-blend-mode:multiply">
<rect x="31.7151" y="25.0063" width="3.59307" height="28.026" rx="1.43723" fill="#D9D9D9"/>
</g>
<g style="mix-blend-mode:multiply">
<rect x="21.6543" y="25.0063" width="3.59307" height="28.026" rx="1.43723" fill="#D9D9D9"/>
</g>
</g>
<rect y="7.04126" width="47.4286" height="11.4978" rx="2.15584" fill="#D9D9D9"/>
<rect x="16.648" y="2.37021" width="15.0909" height="13.6537" rx="3.23377" stroke="#D9D9D9" stroke-width="3.59307" stroke-linejoin="round"/>
</g>
<defs>
<linearGradient id="paint0_linear_1267_8476" x1="23.8102" y1="25.7252" x2="23.8102" y2="75.6689" gradientUnits="userSpaceOnUse">
<stop stop-color="#D9D9D9"/>
<stop offset="1" stop-color="#C8EEFF"/>
</linearGradient>
<linearGradient id="paint1_linear_1267_8476" x1="23.8102" y1="26.4437" x2="23.8102" y2="76.3874" gradientUnits="userSpaceOnUse">
<stop stop-color="#D9D9D9"/>
<stop offset="1" stop-color="#C8EEFF"/>
</linearGradient>
<clipPath id="clip0_1267_8476">
<rect width="375" height="812" fill="white" transform="translate(-164 -282)"/>
</clipPath>
</defs>
</svg>
