<svg width="24" height="24" viewBox="0 0 24 24" fill="none" xmlns="http://www.w3.org/2000/svg">
<path d="M12 12V11.2C11.5582 11.2 11.2 11.5582 11.2 12H12ZM12.0797 12H12.8797C12.8797 11.5582 12.5215 11.2 12.0797 11.2V12ZM12.0797 12.0721V12.8721C12.5215 12.8721 12.8797 12.5139 12.8797 12.0721H12.0797ZM12 12.0721H11.2C11.2 12.5139 11.5582 12.8721 12 12.8721V12.0721ZM20.2 12C20.2 16.5287 16.5287 20.2 12 20.2V21.8C17.4124 21.8 21.8 17.4124 21.8 12H20.2ZM12 20.2C7.47126 20.2 3.8 16.5287 3.8 12H2.2C2.2 17.4124 6.58761 21.8 12 21.8V20.2ZM3.8 12C3.8 7.47126 7.47126 3.8 12 3.8V2.2C6.58761 2.2 2.2 6.58761 2.2 12H3.8ZM12 3.8C16.5287 3.8 20.2 7.47126 20.2 12H21.8C21.8 6.58761 17.4124 2.2 12 2.2V3.8ZM15.7 12C15.7 14.0435 14.0435 15.7 12 15.7V17.3C14.9271 17.3 17.3 14.9271 17.3 12H15.7ZM12 15.7C9.95655 15.7 8.3 14.0435 8.3 12H6.7C6.7 14.9271 9.07289 17.3 12 17.3V15.7ZM8.3 12C8.3 9.95655 9.95655 8.3 12 8.3V6.7C9.07289 6.7 6.7 9.07289 6.7 12H8.3ZM12 8.3C14.0435 8.3 15.7 9.95655 15.7 12H17.3C17.3 9.07289 14.9271 6.7 12 6.7V8.3ZM12 12.8H12.0797V11.2H12V12.8ZM11.2797 12V12.0721H12.8797V12H11.2797ZM12.0797 11.2721H12V12.8721H12.0797V11.2721ZM12.8 12.0721V12H11.2V12.0721H12.8Z" fill="#43C7FF"/>
</svg>
